<?xml version="1.0" encoding="utf-8"?>
<!-- Generator: Adobe Illustrator 20.0.0, SVG Export Plug-In . SVG Version: 6.00 Build 0)  -->
<svg version="1.1" id="Layer_1" xmlns="http://www.w3.org/2000/svg" xmlns:xlink="http://www.w3.org/1999/xlink" x="0px" y="0px"
	 viewBox="0 0 141 160.9" style="enable-background:new 0 0 141 160.9;" xml:space="preserve">
<style type="text/css">
	.st0{fill:#181A21;}
	.st1{fill:#FFFFFF;}
	.st2{fill:#B2B4BE;}
	.st3{fill:#8F9199;}
	.st4{fill:#FFC95D;}
	.st5{fill:#1A1A23;}
	.st6{fill:#9E694D;}
	.st7{fill:#D9A53E;}
	.st8{fill:#6F7076;}
	.st9{fill:none;}
	.st10{fill:#6E4837;}
	.st11{fill:#885843;}
	.st12{fill:#FFC95C;}
	.st13{fill:#C4825F;}
	.st14{fill:#904E39;}
	.st15{fill:#C56C4D;}
	.st16{fill:#B65E2B;}
	.st17{fill:#8EC73F;}
	.st18{fill:#64BC46;}
	.st19{fill:#DE7034;}
	.st20{fill:#8B4620;}
	.st21{fill:#763E2E;}
</style>
<g>
	<g>
		<circle class="st0" cx="70.5" cy="90.4" r="58.5"/>
	</g>
	<g>
		<path class="st1" d="M20.1,117.8C20.1,117.8,20.2,117.8,20.1,117.8c0.8,0.5,1.2,1.5,1.6,2.3c0,0-0.1,0-0.1,0c0,0,0,0,0,0
			c0-0.1-0.1-0.1-0.2-0.1c-0.1-0.2-0.2-0.5-0.3-0.7C20.9,118.8,20.6,118.2,20.1,117.8C20.1,117.8,20.1,117.8,20.1,117.8z"/>
		<path class="st1" d="M55.4,149.9c0-0.1-0.1-0.2-0.1-0.3c0-0.1-0.1-0.1-0.1-0.2c-0.2-0.9-0.4-1.8-0.5-2.8c0-0.1,0-0.1,0-0.2
			c0.1,0,0.3-0.1,0.4,0.1c0,0.1,0.1,0.1,0.1,0.2c0.1,1.4,0.6,3.1,0.6,3.7c0,0.6-0.1,1.2-0.4,1.6C55.7,151.4,55.7,150.7,55.4,149.9z"
			/>
		<path class="st1" d="M23.3,83.2c0.8,0.4,1.5,1,2.2,1.5c-0.2-0.1-0.5-0.2-0.7-0.2c0,0-0.1,0-0.1,0c0,0,0,0,0,0
			c-1.9-1.1-4.2-2.4-6.4-2.2c0.3-0.1,0.7-0.1,1-0.2C20.7,82.1,21.9,82.5,23.3,83.2z"/>
		<path class="st1" d="M26.8,85.9c0.8,0.3,1.5,0.8,2,1.6c0,0,0.1,0,0.1,0c-0.1-0.3-0.4-0.6-0.6-0.9c0,0,0,0,0,0c0.1,0,0.2,0,0.3,0.1
			c0.3,0.2,0.5,0.5,0.8,0.7c0.5,1,1.2,1.8,1.9,2.7c0.7,0.9,1.3,1.9,1.9,2.8c0.9,1.4,1.9,2.8,2.8,4.1c0.3,0.4,1,1.7,1.9,2.5
			c0.2,0.3,0.5,0.6,0.7,0.7c0,0,0,0.1,0,0.1c-0.3,0.1-0.6,0.2-0.8,0.3c0-0.1,0-0.1,0-0.2c-1.8-3-4.1-5.7-6.3-8.5
			C29.9,89.9,28.6,87.7,26.8,85.9z"/>
		<path class="st1" d="M22,100.1c-1.3-1.8-2.7-3.5-4.1-5.3c-1-1.2-2-2.9-3.4-3.7c-0.6-0.3-1.1-0.5-1.6-0.5c-0.3-0.1-0.7-0.2-1-0.2
			c0,0,0,0-0.1,0c-0.5,0-1.2,0-1.5,0.4c0,0,0,0,0,0c0-0.1,0-0.1,0-0.2c0.1-0.1,0.2-0.3,0.3-0.4c0,0,0,0,0,0c0.1-0.1,0.2-0.2,0.3-0.2
			c0.1-0.1,0.2-0.2,0.4-0.2c0.1,0,0.1-0.1,0.2-0.1c0,0,0,0,0,0c0,0,0,0,0,0c0,0,0.1,0,0.1-0.1c0.1,0,0.2-0.1,0.2-0.1c0,0,0,0,0,0
			c1.3-0.3,2.8,0.2,3.6,1.2c0,0,0,0,0,0c-0.8-1.2-2.5-1.9-3.8-1.4c0-0.1,0-0.2,0-0.2c0-0.2,0.1-0.3,0.2-0.4c0.1,0,0.1-0.1,0.2-0.1
			c0,0,0,0,0,0c0.2,0,0.4,0,0.7,0c3.2,0.8,5.2,3.4,7.1,6c1.5,2.2,3,4.6,4.7,6.7c0.1,0.2,0.3,0.4,0.4,0.7c0,0,0.1,0.1,0.1,0.1
			c0.1,0.2,0.2,0.3,0.3,0.5c0.2,0.4,0.5,0.7,0.7,1.1c0,0,0,0,0,0.1c0,0.1,0.1,0.1,0.2,0.2c0,0,0,0,0,0.1c-0.3,0.2-0.7,0.4-1,0.6
			C24.1,103.2,23.1,101.6,22,100.1z"/>
		<path class="st1" d="M20.6,92.5c-1.7-2.2-4.5-5.2-7.6-4.6c0,0,0,0,0,0c-0.1,0-0.2,0-0.2,0c0,0-0.1,0-0.1,0c0,0-0.1,0-0.1,0.1
			c-0.1,0-0.1,0-0.2,0.1c0,0,0-0.1,0-0.1c0.1-0.2,0.3-0.3,0.5-0.4c0.2-0.1,0.5-0.2,0.7-0.3c1.6-0.4,3.9,0.6,4.8,1.5c0,0,0,0,0,0
			c-0.5-0.6-1.1-1-1.8-1.3c0,0,0-0.1-0.1-0.1c-0.3-0.2-0.6-0.3-0.9-0.3c0,0,0,0,0,0c0,0-0.1,0-0.1,0c0,0,0,0-0.1,0
			c-0.3-0.1-0.5-0.2-0.6-0.4c0,0,0,0,0,0c0,0,0.1-0.1,0.1-0.1c0,0,0.1-0.1,0.1-0.1c0,0,0,0,0.1,0c0.4-0.1,0.7-0.1,1.1,0
			c0.1,0,0.2,0,0.3,0.1c0.1,0,0.1,0,0.2,0c0.1,0,0.2,0.1,0.3,0.1c0.6,0.2,1.1,0.5,1.6,1c0.2,0.2,0.3,0.3,0.5,0.4
			c0.1,0.1,0.2,0.2,0.3,0.3c1.1,1.2,2.1,2.6,2.9,3.6c2.5,3.1,4.4,6.6,6.5,10c0,0,0,0.1,0,0.1c0.1,0.2,0.3,0.5,0.5,0.7c0,0,0,0,0,0
			c-0.5,0.2-1,0.4-1.5,0.6c0,0-0.1-0.1-0.1-0.1c-0.2-0.2-0.3-0.4-0.5-0.6c-0.1-0.2-0.3-0.4-0.4-0.6c-0.4-0.7-0.8-1.4-1.3-2.1
			c-0.7-1.1-1.5-2.2-2.3-3.2C22.6,95.2,21.7,93.8,20.6,92.5z"/>
		<path class="st1" d="M24.6,89c1,1.2,1.9,2.6,2.8,3.9c1.1,1.7,2.1,3.4,3.3,5.1c0.5,0.7,1,1.6,1.6,2.4c0.1,0.3,0.2,0.5,0.4,0.7
			c-0.3,0.1-0.6,0.4-0.9,0.6c0,0-0.1,0-0.1,0c0,0,0,0,0,0c-0.1,0-0.1-0.1-0.2-0.1c-2-2.6-3.5-5.7-5.3-8.4c-1.6-2.3-3.4-4.4-5.6-6.2
			c-0.9-0.8-2-1.4-3.2-1.8c0.1,0,0.1-0.1,0.2-0.1c0.1,0,0.1,0,0.2,0c0.6,0,1.2,0.3,1.7,0.6c0.4,0.3,0.9,0.6,1.4,0.9c0,0,0,0,0,0
			c-0.1-0.1-0.1-0.1-0.2-0.2c0.3,0.2,0.7,0.4,1.1,0.6c0,0,0,0,0,0c-0.8-0.7-1.9-1.8-3-2.1c0,0,0,0,0,0c0,0,0-0.1,0-0.2
			c0,0,0.1,0.1,0.1,0.1c0.9,0.1,1.6,0.5,2.3,0.9c0.4,0.4,0.8,0.6,1.2,0.9c0.5,0.5,1.1,1,1.6,1.6c0.2,0.2,0.4,0.5,0.6,0.7
			c0,0,0,0.1,0.1,0.1C24.5,88.9,24.6,89,24.6,89z"/>
		<path class="st1" d="M51.9,145.7c-0.3,0.1-1.1,0.3-1.8,0.3c-0.3-0.1-0.6-0.3-0.8-0.6c-0.1-0.5-0.2-0.9-0.2-1.4
			c0-0.1-0.1-0.1-0.1,0c0.1,0.6,0,1.3,0,1.9c0,0,0,0,0,0.1c-0.1,0.1-0.2,0.1-0.3,0.2c-0.1-0.1-0.2-0.3-0.2-0.4c0,0,0,0,0,0
			c-0.3-2.6-1.2-4.9-2.3-7.2c0-0.1,0-0.1,0-0.2c0.1-0.2,0.2-0.4,0.4-0.4c0,0,0,0,0,0c0.8,1.5,1.6,3,2.1,4.8c0,0,0.1,0,0.1,0
			c-0.1-1.3-0.5-2.9-1.2-4.2c0.1-0.2,0.2-0.4,0.3-0.6c0.3,0.5,0.6,1.1,0.8,1.7c0.2,0.9,0.4,1.9,0.8,2.7c0,0,0.1,0,0.1,0
			c-0.3-1.2-0.5-2.5-1-3.6c-0.2-0.3-0.3-0.7-0.5-1c0.1-0.4,0.3-0.7,0.4-1.1c0.4-0.7,0.8-1.4,1.1-2.1c0.4-0.8,0.9-1.7,1.1-2.6
			c0.8-0.2,1.5-0.1,2.3,0.1c0.4,0.2,0.7,0.4,1.1,0.6c0.1,0.1,0.1,0.1,0.2,0.2c1.7,1.7,2.6,4.1,3.3,6.5c0,0,0.1,0,0.1,0
			c-0.1-1.2-0.5-2.5-1.1-3.6c0,0,0,0,0.1,0.1c0.2,0.2,0.4,0.3,0.5,0.5c0.1,0.1,0.1,0.2,0.2,0.3c0.1,0.2,0.2,0.5,0.4,0.7c0,0,0,0,0,0
			c-0.3-1.2-0.8-2.4-1.4-3.6c0,0,0,0,0.1,0c0,0,0.1,0,0.1-0.1c0.7,1.1,1.5,2.4,2,3.7c0,0.2,0.1,0.3,0.1,0.5c0,0,0,0,0,0.1
			c0,0.1,0,0.1,0.1,0.2c0.3,1.3,0.3,2.7-0.1,4c-0.1,0-0.1,0-0.2,0c0,0-0.1,0-0.1,0c0,0,0,0,0,0c0.1-0.7,0.1-1.4-0.1-2.1c0,0,0,0,0,0
			c0,0.5,0,0.9-0.1,1.4c-0.1,0.3-0.2,0.6-0.3,0.9c-0.9,1-2.2,1.8-3.3,2.4C53.5,145,52.7,145.4,51.9,145.7z"/>
		<path class="st2" d="M5,96.8c0.2,1.1,0.4,2.2,0.8,3.2c0,0.1,0.1,0.2,0.1,0.3c0,0,0,0,0-0.1c0-0.1,0-0.1-0.1-0.2
			c-0.3-0.7-0.5-1.6-0.6-2.3C4.9,96.2,5.1,94.4,5,93c0-0.1,0.1-0.1,0.1,0c0.1,1.3,0.2,2.6,0.5,3.9c0,0,0-0.1,0-0.1
			c0.1-0.6,0.3-1.3,0.6-1.9c0,0,0,0,0,0c0-0.7,0-1.4,0-2.1c0-0.1,0.2-0.1,0.2,0c-0.1,1.4,0,2.7,0.4,4c0.3,0.9,0.8,1.7,1.1,2.6
			c-0.1-1.1-0.7-2.4-0.9-3.1c-0.5-1.7-0.3-3.5,0.2-5.2c1.3-3.7,5-7,8.4-8.6c3.7-1.8,9.1-1.5,12.5,0.7c1.7,1.2,3.1,2.9,4.4,4.4
			c0.8,0.9,1.5,2.1,2.4,3c0,0,0,0,0,0c0,0,0,0,0,0c0,0,0,0,0,0c0.1,0,0.2,0,0.2,0c-0.3-2.5-1.8-4.1-3.5-5.9c-1.8-1.9-4.2-3-6.6-4
			c-0.4-0.2-0.9-0.3-1.3-0.4c0,0,0,0,0,0c-0.3,0.1-0.6,0.1-0.9,0.2c0,0,0,0-0.1,0c0.2,0.1,0.5,0.1,0.7,0.2c0,0,0,0,0,0
			c-2.5-0.3-5-0.2-7.4,0.7c0,0,0,0,0,0c0.7-0.4,1.4-0.7,2.2-0.9c-0.3,0-0.5-0.1-0.8-0.1c-0.2,0-0.5,0-0.7-0.1
			c-1.4,0.4-2.7,0.9-4,1.6c-3.3,1.9-6.2,5-7.4,8.7C4.7,92.9,4.7,94.8,5,96.8z M32,86.2C32,86.2,32,86.2,32,86.2
			C32,86.2,32,86.2,32,86.2z"/>
		<path class="st3" d="M17.9,118.2C17.9,118.2,17.9,118.2,17.9,118.2C17.9,118.2,17.9,118.2,17.9,118.2c0.1,0,0.3,0.1,0.4,0.1
			c0,0,0,0,0,0c-0.3-0.3-0.7-0.5-1.2-0.6c0.3-0.1,0.6-0.2,0.9-0.3c0.1,0,0.3-0.1,0.5-0.1c0.4,0.2,0.8,0.4,1.2,0.7
			c0.4,0.4,0.8,0.9,1.1,1.4c0.1,0.2,0.1,0.4,0.1,0.6c0,0.2,0,0.5-0.2,0.7c0,0.1-0.1,0.1-0.1,0.2c0,0-0.1,0-0.1,0c0,0-0.1,0-0.1-0.1
			c-0.2-0.4-0.4-0.8-0.7-1.1c0,0,0,0,0,0c0.2,0.6,0.5,1.4,0.6,2.1c0,0.2,0.1,0.4,0.1,0.6c0,0.1,0,0.2,0.1,0.3c0,0,0,0,0,0
			c0,0,0,0,0,0.1c0,0,0,0,0,0c0,0,0,0,0,0c-0.2-2.5-1.7-5-4.1-5c0,0,0.1,0,0.1,0c0.4,0,0.9,0,1.3,0.2
			C17.8,118.2,17.9,118.2,17.9,118.2z"/>
		<path class="st1" d="M9.4,99.3c-0.1-0.1-0.2-0.2-0.3-0.4c-0.1-0.2-0.1-0.4-0.2-0.6c-0.2-1.3-0.5-3.1-0.3-4.3
			c0.1-0.2,0.1-0.3,0.2-0.4c1.1-1.7,3.1-0.2,4.4,0.3c0,0,0,0,0,0c-0.8-0.4-2.1-1.4-3.2-1.4c0,0,0,0,0-0.1c0,0,0-0.1,0-0.1
			c0-0.1,0-0.2,0-0.3c0,0,0-0.1,0-0.1c0-0.1,0-0.1,0.1-0.2c0-0.1,0.1-0.1,0.1-0.1c0,0,0,0,0,0c0.2,0,0.3,0,0.5,0c0,0,0.1,0,0.1,0
			c0.1,0,0.2,0,0.3,0c1.4,0.2,2.6,1.1,3.4,2.1c0.1,0.1,0.1,0.2,0.2,0.3c0,0,0,0.1,0,0.1c0.2,0.1,0.3,0.3,0.4,0.4
			c0.1,0.1,0.2,0.2,0.2,0.3c0.4,0.5,0.8,1,1.2,1.6c0,0.1,0.1,0.1,0.1,0.1c0.7,0.9,1.4,1.9,2.1,2.9c1.5,2.1,2.9,4.4,4.7,6.3
			c0.1,0.1,0.1,0.2,0.2,0.3c0,0.1,0.1,0.1,0.2,0.1c0,0,0,0,0,0c-0.4,0.2-0.8,0.4-1.1,0.7c-0.3,0.2-0.6,0.5-0.9,0.7
			c-1.3-2.1-2.9-3.9-4.2-5.9c-1.1-1.6-2.1-3.3-3.3-4.8c-0.7-1-2.1-2.4-3.4-2.6c-0.3-0.1-0.6-0.1-0.8-0.1c-0.3,0-0.7,0.1-0.9,0.3
			c-0.1,0.1-0.2,0.3-0.2,0.5c0,0.1-0.1,0.3-0.1,0.4c-0.2,1.2-0.1,3.1,0.7,4.3c0,0,0,0-0.1,0c0,0,0,0,0,0c0,0,0,0,0,0
			C9.5,99.3,9.5,99.3,9.4,99.3z"/>
		<path class="st1" d="M8,98.1c-0.4-1.3-0.9-2.7-1-3.5c-0.1-4.6,3.9-9,7.7-11.1c0.8-0.4,1.6-0.8,2.5-1c0,0,0,0,0,0
			c1.5-0.1,2.9-0.1,4.3,0.5c1,0.4,1.9,0.9,2.9,1.4c-0.3,0-0.7,0.1-0.9,0.3c-0.5-0.3-1-0.5-1.4-0.7c-0.6-0.2-1.3-0.3-1.9-0.2
			c-0.4,0-0.8,0-1.2,0.1c0,0,0,0,0,0c-0.3,0.1-0.6,0.2-0.9,0.4c-0.2,0.1-0.4,0.2-0.6,0.3c0,0,0,0-0.1,0c0,0,0,0,0,0
			c-0.7,0.3-1.6,0.5-2.1,0.9c-0.3,0.2-0.6,0.4-0.9,0.7c-0.3,0.3-0.8,0.5-1.2,0.6c0,0,0,0-0.1,0c-0.1,0-0.1,0.1-0.2,0.1
			c0,0,0,0-0.1,0c-0.1,0-0.1,0.1-0.2,0.1c-0.3,0.2-0.7,0.6-0.7,0.9c0,0-0.1,0.1-0.1,0.1c-0.1,0.1-0.3,0.2-0.4,0.4
			c-0.2,0.2-0.3,0.6-0.2,0.8c0,0,0,0-0.1,0.1c-0.2,0.1-0.3,0.2-0.5,0.3c-0.3,0.2-0.6,0.5-0.7,0.8c-0.2,0.4-0.2,0.8-0.3,1.2
			c0,0.2,0,0.4,0.1,0.5c-0.2,0.1-0.4,0.2-0.6,0.3c-1.2,1.1-1,3.1-0.8,4.6c0,0,0,0,0,0c0,0,0,0,0,0c0,0.3,0.1,0.5,0.1,0.8
			C8.3,98.1,8.2,98.3,8,98.1z"/>
		<path class="st1" d="M20,123.4c0,0-0.1,0-0.1,0c-0.1-0.1-0.1-0.2-0.2-0.3c0-0.5-0.1-1-0.2-1.5c-0.3-1.1-0.9-2-2.1-2.5c0,0,0,0,0,0
			c0.7,0.5,1.2,1.1,1.5,1.8c0,0.4,0.1,0.7,0,1.1c0,0.2-0.1,0.6-0.3,0.7c-0.1,0.1-0.2,0-0.3,0c0,0,0,0,0,0c0,0,0,0,0,0
			c0,0-0.1,0-0.1,0c0-0.7-0.4-1.4-1.1-1.7c-0.1-0.1-0.2-0.1-0.3-0.1c0,0-0.1,0-0.1,0c-0.1,0-0.1,0-0.1,0c-0.3,0-0.5,0.2-0.6,0.5
			c-0.1,0.2,0,0.6,0.1,0.9c0.1,0.4,0.3,0.8,0.6,1.1c0.1,0.1,0.1,0.1,0.2,0.2c0,0.1,0,0.2,0,0.3c-0.2,0.5-0.6,1.1-1.2,0.6
			c-0.2-0.2-0.4-0.5-0.5-0.7c-0.4-0.7-0.3-1.5-0.4-2.2c0,0,0,0,0,0c-0.1,0.6-0.1,1.3,0,1.9c0,0-0.1,0.1-0.1,0.1c0,0,0,0,0,0
			c-0.6-1.7-0.6-3.5,0.2-4.6c0.2-0.1,0.3-0.2,0.6-0.3c0,0,0,0,0,0C18.2,117.9,19.9,120.8,20,123.4z"/>
		<path class="st1" d="M16.9,122c0.1,0,0.1,0.1,0.1,0.1c0.2,0.1,0.3,0.3,0.3,0.5c0,0.1,0,0.3-0.1,0.3c0,0-0.1,0-0.2,0
			c-0.1,0-0.1,0-0.2,0c0,0,0,0,0,0c-0.1-0.1-0.1-0.2-0.2-0.3c0,0,0,0,0-0.1C16.7,122.4,16.8,122.1,16.9,122z"/>
		<path class="st1" d="M36.8,93.9C36.8,93.9,36.8,93.9,36.8,93.9c-1.1-0.4-1.7-1.3-2.4-2c-0.2-0.2-0.5-0.5-0.7-0.7c0,0,0,0-0.1-0.1
			c0,0,0,0,0-0.1c-0.6-0.8-1.3-1.5-2.1-2.1c0,0,0,0,0,0c-0.7-0.7-1.4-1.4-2.2-2.1c-0.1-0.2-0.3-0.3-0.4-0.5
			c-0.2-0.2-0.7-0.4-0.9-0.2c0,0,0,0,0,0c0,0,0,0,0,0c-0.1-0.1-0.2-0.2-0.4-0.3c-0.2-0.1-0.4-0.3-0.6-0.4c0,0-0.1-0.1-0.1-0.1
			c0,0,0-0.1,0-0.1c-0.4-0.4-0.8-0.8-1.2-1.2c1,0.2,2,0.5,3,1c0.2,0.1,0.3,0.2,0.5,0.3c0.1,0.1,0.2,0.1,0.3,0.2
			c0.6,0.6,1.2,1.3,1.7,1.9c0.7,0.8,1.2,1.7,2.1,2.3c0,0,0,0,0,0c-1.1-1-1.9-2.5-2.8-3.7c0.2,0.1,0.3,0.2,0.5,0.3
			c1,1,1.8,2.1,2.7,3.2c0.6,0.8,1.3,1.7,2.1,2.3c0.1,0.1,0.1,0.2,0.2,0.2c0,0,0.1,0,0.1,0c0.3,0.2,0.6,0.3,1,0.5
			c0.1,0.2,0.1,0.5,0.1,0.7C37,93.7,36.9,93.8,36.8,93.9z"/>
		<path class="st1" d="M31.1,93.2c0.5,0.9,1.2,1.6,1.7,2.4c1.2,1.8,2.4,3.5,3.5,5.3c-0.5,0.1-0.9,0.1-1.3,0.2
			c-0.2,0-0.3,0.1-0.5,0.1c0,0,0,0,0,0c-1.4-1.7-2.5-3.7-3.9-5.4c-0.5-0.6-0.9-1.2-1.4-1.9c-0.4-0.8-0.9-1.5-1.5-2.2
			c-0.3-0.4-0.5-0.8-0.8-1.2c-1.1-1.7-2.2-3.4-3.8-4.6c-0.7-0.5-1.3-0.9-1.9-1.1c0,0,0,0,0,0c0,0,0.1,0,0.1-0.1
			c1.6,0.2,2.9,1.2,4.1,2.3c0,0,0.1,0.1,0.1,0.1c0,0,0.1,0,0.1,0c-0.1-0.1-0.2-0.2-0.2-0.3c-0.3-0.5-0.8-1-1.3-1.4
			c0.1-0.1,0.1-0.1,0.2-0.2c0.2,0.1,0.4,0.2,0.6,0.4c0,0,0,0,0.1,0c0.7,0.6,1.6,1.6,2.4,2.6C28.6,89.8,29.7,91.7,31.1,93.2z"/>
		<path class="st1" d="M60.4,128.2c0.3,0.9,0.6,2,0.4,2.9c0,0.1,0,0.2-0.1,0.3c-0.3,1.8-2.2,2.1-3.8,0.8c0,0,0,0,0,0
			c0-0.1-0.1-0.1-0.1-0.2c-1-0.6-1.7-1.7-2.6-2.6c0,0,0,0,0,0c1,0.7,1.8,1.6,2.8,2.2c0.6,0,1.1,0,1.5-0.7c0.2-0.5,0.3-1.1,0.3-1.7
			c-0.6,0.3-1.4,0.5-2,0.3c-0.3,0-0.6-0.2-0.8-0.4c0,0,0,0,0,0c0.1,0,0.2,0,0.3,0c0,0,0,0,0,0c0.4-0.1,0.7-0.1,1.1-0.3c0,0,0,0,0,0
			c1-1.4,0.1-3.7-1.6-4.1c0,0,0,0,0,0c0.1,0,0.2,0,0.3,0c0,0,0,0,0,0c-1.3-0.5-2.6-0.3-3.8,1c0,0,0,0,0,0c0,0.1-0.1,0.2-0.1,0.2
			c0,0.1,0,0.3,0,0.4c0,0.1,0.1,0.2,0.2,0.3c0,0,0,0,0,0c0,0,0,0,0,0c0,0,0,0,0,0c0,0,0,0,0,0c0,0,0,0,0,0c0,0,0,0,0,0
			c-0.3,0-0.6-0.2-0.8-0.5c-0.1-0.2-0.1-0.4-0.2-0.5c0-0.1,0-0.2,0-0.3c0,0,0,0,0-0.1c-0.1-0.1-0.2-0.2-0.4-0.2
			c-0.7,0-1.3,0.2-1.9,0.5c-0.3,0.1-0.6,0.3-0.9,0.3c-0.2,0.2-0.4,0.3-0.7,0.4c-0.2,0.1-0.5,0.2-0.8,0.3c-0.9,0.3-1.7,0.8-2.6,1.2
			c0,0,0,0,0,0c0.2-0.1,0.4-0.3,0.6-0.4c-1.2,0.5-2.3,1-3.5,1.6c0,0-0.1,0,0-0.1c1.1-0.7,2.2-1.2,3.4-1.7c0.4-0.2,0.7-0.3,1.1-0.5
			c0.2-0.1,0.4-0.2,0.6-0.3c0,0,0,0,0,0c0.9-0.4,1.7-0.8,2.6-1.2c0.6-0.2,1.2-0.4,1.7-0.6c0.1-0.1,0.3-0.1,0.5-0.2
			c1.3-0.5,2.7-1,4.1-1.2c0.2-0.1,0.5-0.2,0.7-0.3c0.3-0.2,0.5-0.5,0.6-0.9c-0.4-0.6-0.9-1.1-1.3-1.6c-0.1,0-0.1,0-0.2-0.1
			c0,0,0-0.1,0-0.1c-3.6-4-6.3-8.9-9.3-13.4c-1.7-2.6-3.4-5.3-5.2-7.9c-0.7-1-1.3-1.9-2.1-2.8c-0.4-0.5-0.9-0.9-1.2-1.5
			c-0.1,0-0.3,0-0.5-0.1c-0.3-0.2-0.6-0.4-0.8-0.7c0,0,0,0.1,0.1,0.1c0,0,0,0,0,0c0-0.1-0.1-0.1-0.1-0.1c-0.1-0.1-0.2-0.2-0.3-0.3
			c-0.5-0.5-1.1-1-1.5-1.6c0,0,0,0,0,0c0,0,0,0,0,0c0,0-0.1,0-0.1,0c0.2,0.3,0.4,0.6,0.5,0.9c0.1,0.2,0.3,0.5,0.4,0.7
			c0.2,0.4,0.5,0.7,0.8,1c0.8,0.9,1.5,1.8,2.2,2.7c0.5,0.7,1.1,1.2,1.5,1.9c0.1,0.1,0.2,0.2,0.3,0.3c0,0,0,0,0,0
			c0,0,0.1,0.1,0.1,0.1c0,0,0,0,0,0c0,0,0,0,0,0c0.3,1-0.9,1.3-1.9,1.4c-0.3,0.1-0.6,0.1-0.9,0.1c0,0-0.1,0-0.1,0c0,0-0.1,0-0.1,0
			c-0.7,0.1-1.3,0.2-2,0.4c0,0,0,0-0.1,0.1c-0.1,0-0.2,0-0.2,0c-0.7,0.2-1.4,0.3-2,0.5c-1.4,0.4-2.8,0.9-4.1,1.5c0,0,0,0.1-0.1,0
			c0,0,0,0,0,0c-0.7,0.3-1.3,0.8-1.9,1.1c-0.1,0.1-0.2,0.1-0.3,0.2c-0.1,0.1-0.2,0.2-0.3,0.4c-0.1,0.1-0.1,0.1-0.2,0.2
			c-0.5,0.4-1.2,0.6-1.7,1c-0.5,0.3-1,0.7-1.5,1.1c-0.4,0.4-0.7,0.9-1.2,1.2c0,0,0,0,0,0c0,0,0,0,0,0.1c0,0-0.1,0-0.1,0c0,0,0,0,0,0
			c0,0-0.1,0.1-0.1,0c-0.1-0.1-0.2-0.1-0.2-0.2c0,0,0,0,0,0c0,0,0,0,0,0c0,0-0.1-0.1-0.1-0.1c-0.2-0.2-0.4-0.4-0.5-0.7
			c-0.3-0.4-0.6-0.9-0.9-1.3c-0.9-1.5-2-2.9-3-4.4c-1.2-1.7-3.3-6.5-5.9-5.1c1.1,0,2.5,0.5,2.7,1.6c0,0,0,0,0,0
			c-0.3-0.3-0.6-0.6-1-0.8c0,0,0,0,0,0c-0.1,0-0.1,0.1-0.2,0.1c0.9,0.7,1.7,2.1,2.1,2.8c1.5,2.8,3.4,5.5,5.2,8.2
			c0.4,0.4,0.7,0.9,1,1.4c0.4,0.5,0.8,1.1,1.1,1.7c0.1,0.1,0.1,0.2,0.2,0.3c1.1,1.6,1.9,2.9,2.2,3.2c0.2,0.3,0.5,0.6,0.7,0.9
			c0.6,0.7,1.8,2.2,1.9,2.7c0,0.1,0.1,0.2,0.1,0.3c0.9,1.2,1.7,2.4,2.5,3.6c0.5,0.7,0.9,1.5,1.4,2.2c0.5,0.6,0.9,1.2,1.4,1.8
			c0.3,0.4,0.6,0.9,0.9,1.4c0.2,0.2,0.4,0.5,0.5,0.8c0,0,0,0,0,0c0.3,0.3,0.5,0.7,0.8,1.1c0,0,0,0,0,0c0.5,0.4,1.1,0.7,1.7,0.7
			c0,0,0.1,0,0.1,0c0,0,0,0,0,0c0.1,0,0.1,0,0.2,0c0,0,0,0.1,0,0.1c-0.1,0-0.1,0-0.2,0c0,0,0,0,0,0c0,0,0,0,0,0c0,0,0,0,0,0
			c0,0,0,0-0.1,0c0,0,0,0,0,0c-0.1,0-0.1,0-0.2,0c-0.2,0.1-0.4,0.2-0.6,0.3c-0.1,0.1-0.1,0.1-0.1,0.2c0,0,0,0,0,0
			c0.1,0.2,0.2,0.3,0.2,0.5c0,0,0,0,0,0c0,0,0,0.1,0,0.1c0,0,0,0,0,0.1c0,0,0,0,0,0c-0.1,0-0.1-0.1-0.2-0.2c0,0-0.1,0-0.1-0.1
			c0,0-0.1-0.1-0.1-0.2c-0.7-0.6-1.3-1.4-1.9-2.1c-0.3-0.3-0.7-0.6-1-0.8c-0.3,0-0.5-0.1-0.8-0.1c-0.1,0-0.2,0-0.4,0.1
			c-0.3,0.1-0.5,0.4-0.6,0.7c-0.1,0.3,0,0.6,0.1,0.9c0.5,0.3,1,0.6,1.5,0.9c0.2,0.1,0.3,0.2,0.5,0.3c0,0,0,0.1,0,0.1
			c-0.2,0-0.3,0-0.5-0.1c-0.2,0-0.4,0.1-0.5,0.3c0,0.1,0,0.3,0.1,0.4c0.1,0.2,0.3,0.3,0.4,0.4c0.3,0,0.6-0.1,1-0.3
			c0.2-0.1,0.5,0.1,0.3,0.4c-0.3,0.4-0.5,0.7-0.7,1.1c0.1,0.7,0.1,1.3,0.2,2c0.1,0.1,0.1,0.2,0.2,0.4c0,0,0,0,0,0
			c0.4-0.1,0.7,0.1,1-0.2c0.1-0.1,0.2-0.3,0.2-0.4c0-0.5,0.1-1.1,0.4-1.7c0-0.1,0-0.2,0.1-0.2c0.1-0.1,0.1-0.2,0.2-0.3
			c0.1-0.2,0.2-0.3,0.3-0.4c1-1.3,2.8-2.7,4.3-3.1c0,0,0,0,0,0c-0.4,0.3-0.8,0.6-1.2,0.9c-0.6,0.7-1.4,1.1-1.9,2
			c-0.6,1.2-0.4,2.5-0.1,3.7c0.3,1.1,0.8,2.1,1.6,2.9c0.1,0.1,0.2,0.2,0.3,0.3c0,0,0,0,0,0c0,0,0,0,0,0c-0.7-1-1-2.5-1-3.5
			c-0.2-2,1.9-3.1,3.6-3.6c0,0,0,0,0,0c-1.8,0.6-3.6,1.8-3.4,3.8c0.1,1,0.4,2,1,2.8c0-0.1,0-0.1,0-0.2c-0.1-0.3-0.2-0.7-0.2-1
			c-0.1-0.4-0.3-0.7-0.3-0.9c-0.1-0.8-0.2-1.5,0.1-2.2c0.5-1.3,2.3-1.7,3.5-1.6c1.4,0.2,2.1,1.5,2.3,2.7c0.1,0.8-0.1,1.6-0.5,2.2
			c-0.2,0.3-0.3,0.4-0.6,0.6c-0.2,0.1-0.4,0.2-0.6,0.3c-0.4,0.2-1,1.1-0.5,1.1c0.3-0.2,0.7-0.4,1-0.6c0.4-0.3,0.8-0.7,1.2-0.9
			c0.5-0.5,0.9-0.9,1-1.7c0.1-0.7,0-1.3,0.1-2c0,0,0,0,0,0c0.2,1.6,0.4,2.6-0.3,3.7c-0.2,0.7-0.6,1.5-1,2.2c-0.4,1-0.8,1.9-1.6,2.7
			c0,0,0,0-0.1,0.1c0,0,0,0.1,0.1,0.1c0,0,0,0,0,0c0.1,0.1,0.2,0.1,0.2,0.2c0,0,0,0,0,0c0.5-0.2,0.9-0.5,1.1-0.9
			c0-0.1,0.1-0.1,0.1-0.1c0.3-0.5,0.7-0.9,1-1.3c1.3-2.3,1.9-5,1.4-7.6c0,0,0,0,0,0c0.3,2.1,0.1,4.3-0.6,6.3
			c0.3-0.6,0.6-1.1,0.8-1.7c0-0.1,0-0.2,0.1-0.2c0.2-0.8,0.3-1.7,0.2-2.7c-0.2-1.5-0.1-2.9,0.4-4.1c0.1-0.3,0.2-0.6,0.4-0.9
			c0.2-0.4,0.6-0.7,1-1.1c0.3-0.3,0.7-0.5,1.1-0.8c2.4-1.5,4.7,0.2,6.3,2c0.6,0.7,1.3,1.6,2.2,2.4c1.1,0.7,2.7,1.6,3.8,0.5
			c0.5-0.4,0.4-1.1,0.5-1.8C61.4,130.8,61,129.5,60.4,128.2z M45.9,124.6c-0.1,0.1-0.2,0.1-0.3,0.1c0,0,0,0,0,0
			c-0.1,0-0.2,0.1-0.2,0.1c0,0-0.1,0-0.1,0.1c-0.1,0,0,0.1,0,0.1c0.1,0,0.2,0.1,0.2,0.1c0,0,0,0,0,0c0,0,0,0,0,0c-0.1,0-0.2,0-0.2,0
			c-0.5,0-0.8,0.2-1.2,0.4c0,0,0,0.1-0.1,0.1c-0.1,0.1-0.3,0.2-0.4,0.3c0,0,0,0,0,0c-0.1,0-0.1,0.1-0.2,0.1c0,0-0.1,0,0,0
			c0,0,0.1-0.1,0.1-0.1c0,0,0,0-0.1,0c0,0,0,0,0,0l0,0c0,0,0,0,0,0c-0.3,0.1-0.7,0.2-1.1,0.1c0,0,0-0.1,0-0.1c0.7,0.1,1.6-0.2,1.7-1
			c0-0.2,0-0.3-0.1-0.5c-0.2-0.2-0.4-0.5-0.6-0.7c-0.4-0.4-0.7-0.8-1-1.2c-0.4-0.5-0.8-1.1-0.9-1.7c0-0.1,0.1-0.1,0.1,0
			c0.2,0.3,0.4,0.6,0.6,0.8c0,0,0,0,0,0c0.6,0.8,1.3,1.7,2,2.5c0,0,0.1,0.1,0.1,0.1c0.3,0.2,0.7,0.4,1.1,0.5
			C45.5,124.7,45.7,124.7,45.9,124.6C45.9,124.6,45.9,124.6,45.9,124.6z M49.4,123.8c-0.2,0.1-0.3,0.1-0.5,0.1c0,0,0,0,0,0
			c-0.1,0-0.1,0.1-0.2,0.1c0,0-0.1,0-0.1,0.1c0,0,0,0,0,0.1c0.2,0,0.3,0.1,0.5,0.1c0,0,0,0.1,0,0.1c-0.2,0-0.5,0-0.7,0
			c0,0,0,0-0.1,0c0,0-0.1,0-0.1-0.1c-0.3,0-0.6-0.1-1-0.1c-0.3,0-0.6,0.2-0.9,0.3c0,0,0,0,0,0c-0.1,0-0.1,0.1-0.2,0.1
			c0,0-0.1,0,0-0.1c0.3-0.3,0.5-0.7,0.7-1.1c0-0.1,0-0.1,0-0.2c0-0.1,0-0.3-0.1-0.4c-1.1-1.1-2.2-2.5-2.6-3.8c0,0,0,0,0,0
			c0.4,0.6,0.8,1.1,1.2,1.6c0,0,0,0,0,0c0.3,0.4,0.6,0.8,0.9,1.1c0.4,0.5,0.8,0.9,1.1,1.5C48.2,123.5,48.7,123.9,49.4,123.8
			C49.4,123.7,49.5,123.8,49.4,123.8z M52.3,123.1c-0.2,0.1-0.4,0.1-0.5,0.1c0,0,0,0,0,0c0,0,0,0,0,0c-0.1,0-0.2-0.1-0.2-0.1
			c0,0,0,0-0.1,0c-0.3-0.1-0.6-0.1-0.9,0c-0.1,0.3-0.4,0.6-0.7,0.5c0,0,0,0,0,0c0.1-0.1,0.3-0.2,0.4-0.4c0.1-0.2,0.2-0.3,0.2-0.5
			c0,0,0-0.1,0-0.1c0-0.1,0-0.3-0.1-0.4c0-0.1-0.1-0.3-0.2-0.4c0,0-0.1-0.1-0.1-0.1c-0.1-0.2-0.2-0.4-0.4-0.5
			c-0.6-0.9-1.2-1.8-1.8-2.7c-0.1-0.1,0.1-0.2,0.1-0.1c0.9,1.2,2,2.3,2.8,3.6c0.4,0.4,0.9,0.6,1.5,0.7c0,0,0,0,0,0
			c-0.1,0-0.2,0.1-0.3,0.1c0,0,0,0,0,0c0,0,0,0,0,0c-0.1,0-0.1,0.1-0.2,0.1c0,0,0,0,0,0.1c0.2,0.1,0.4,0.1,0.6,0
			C52.4,123,52.4,123.1,52.3,123.1z M54.9,121.8C54.9,121.8,54.9,121.8,54.9,121.8C54.9,121.9,54.9,121.9,54.9,121.8
			c-0.1,0.3-0.4,0.3-0.6,0.3c0,0-0.1,0-0.1,0c0,0,0,0,0,0c0,0,0,0,0,0c0,0,0.1,0,0.2,0c0,0,0,0.1,0,0.1c-0.1,0-0.2,0-0.2,0
			c0,0,0,0,0,0c-0.1,0-0.3-0.1-0.4-0.1c0,0-0.1,0-0.1,0c0,0-0.1,0-0.1,0c0,0,0,0,0,0c0,0,0,0-0.1,0c-0.1,0-0.1,0.1-0.2,0.1
			c0,0,0,0,0,0c-0.1,0.1-0.2,0.3-0.4,0.3c0,0-0.1,0,0-0.1c0.1-0.1,0.2-0.2,0.2-0.3c0-0.1,0.1-0.1,0.1-0.2c0.1-0.2,0.1-0.5,0.1-0.7
			c-0.2-0.3-0.4-0.6-0.6-0.8c-0.5-0.7-0.9-1.4-1.3-2.1c0-0.1,0.1-0.1,0.1-0.1c0.3,0.4,0.6,0.9,0.9,1.4c0,0,0,0,0,0
			c0.3,0.4,0.6,0.7,0.8,1.1c0.2,0.3,0.4,0.5,0.6,0.8c0,0,0.1,0.1,0.1,0.1C54.2,121.9,54.5,122,54.9,121.8z M29.8,103.6
			c3.3-1.4,6.9-2.2,10.4-2.5c0,0,0.1,0.1,0,0.1c-3.3,0.7-6.6,1.3-9.7,2.5c-3.1,1.2-6.1,2.7-8.5,5c0,0-0.1,0-0.1,0
			C23.9,106.2,27,104.8,29.8,103.6z M34.2,102.8C34.1,102.8,34.1,102.8,34.2,102.8C34.2,102.7,34.2,102.8,34.2,102.8z M30,104.5
			C30,104.5,30,104.5,30,104.5C30.1,104.5,30.1,104.5,30,104.5z M39.2,128.3C39.2,128.3,39.2,128.3,39.2,128.3c-0.1,0-0.1,0-0.1,0
			c-0.2,0-0.4,0-0.5-0.1c0,0,0,0,0,0c0,0,0,0-0.1,0c-0.2,0-0.4,0.1-0.5,0.3c-0.2,0.3,0,0.6-0.2,0.9c0,0-0.1,0-0.1,0
			c0-0.1,0-0.1,0-0.2c0,0,0,0-0.1,0c0,0-0.1,0-0.1,0.1c-0.1,0.3-0.3,0.6-0.7,0.7c0,0-0.1-0.1,0-0.1c0.7-0.5,0.8-1.3,0.4-2
			c-0.4-0.4-0.7-0.9-1-1.4c-0.7-1.1-1.4-2.1-2.1-3.2c0,0,0,0,0,0c0.7,0.7,1.3,1.5,1.9,2.3c0.4,0.6,0.9,1.2,1.3,1.8
			C38,127.8,38.6,128.1,39.2,128.3C39.3,128.2,39.3,128.3,39.2,128.3z M38.8,127.3c-0.4-0.2-0.8-0.8-1.1-1.3
			c-0.6-0.8-1.1-1.7-1.6-2.5c-1.2-1.7-2.3-3.4-3.4-5.1c-2-3-4-5.9-6-8.9c0,0,0,0,0,0c-0.3-0.4-0.6-0.8-0.9-1.2
			c-0.1-0.1-0.1-0.2-0.2-0.3c-0.1-0.1-0.2-0.2-0.3-0.3c-0.2,0.2-0.4,0.3-0.6,0.5c0,0-0.1,0.1-0.1,0.1c-0.1,0-0.1,0-0.1,0.1
			c0,0,0,0-0.1,0c-0.2,0.1-0.5,0.2-0.7,0.4c0,0,0,0-0.1,0.1c-0.1,0.2-0.3,0.3-0.4,0.5c0.5,0.5,1,1.2,1.3,2c0,0.1,0.1,0.1,0.1,0.2
			c0.2,0.3,0.5,0.7,0.7,1.1c2.3,3.8,4.7,7.5,7.3,11.1c1.1,1.4,2.3,2.8,3.3,4.4c0,0.1,0.1,0.1,0.1,0.2c0.2,0.2,0.4,0.5,0.4,0.8
			c0,0,0,0,0,0.1c0,0,0,0,0,0c0.1,0.1,0,0.1,0,0.2c-0.1,0.2-0.2,0.4-0.4,0.6c-0.1,0.1-0.2,0.1-0.3,0.2c0,0,0,0,0,0c0,0-0.1,0-0.1,0
			c0,0-0.1,0-0.2,0c-0.1,0-0.2,0-0.2,0c-0.2-0.1-0.4-0.3-0.5-0.5c-1-1.1-1.8-2.3-2.7-3.5c-1.2-1.7-2.3-3.3-3.4-5
			c-1.1-1.8-2.2-3.5-3.4-5.2c-1-1.4-2.1-2.7-2.9-4.3c-0.1-0.1-0.2-0.2-0.2-0.4c0,0-0.1,0-0.1,0c0-0.1-0.1-0.2-0.1-0.3c0,0,0,0,0-0.1
			c0-0.2,0-0.3,0.1-0.4c0.2-0.9,1.1-1.6,1.8-2.1c1.4-1.1,3.1-1.9,4.7-2.6c1.4-0.5,2.7-1,4.1-1.4c0,0,0,0,0,0c0.1,0,0.2-0.1,0.3-0.1
			c0.1,0,0.2-0.1,0.2-0.1c0.1,0,0.2,0,0.2-0.1c2.2-0.7,4.5-1.2,6.7-1.6c0,0,0.1,0,0.1,0c0,0,0,0,0,0c0.3,0,0.5-0.1,0.8-0.1
			c0.1-0.1,0.2-0.1,0.3,0c0.1,0.2,0.2,0.4,0.3,0.6c0.4,0.5,0.7,1.1,1,1.7c0.4,0.4,0.8,0.8,1.1,1.3c0.8,1.1,1.6,2.4,2.4,3.5
			c1.8,2.3,3.2,4.9,5,7.2c0.8,1,1.6,2,2.4,3.1c0.2,0.3,1.3,1.5,0.9,1.9c0,0,0,0,0,0c0,0,0,0,0,0c-0.1,0.1-0.3,0.1-0.4,0.1
			c0,0,0,0,0,0c-0.1,0.1-0.2,0-0.3-0.1c-0.9-1.7-2.2-3.1-3.3-4.6c-1.3-1.8-2.5-3.7-3.9-5.5c-1.2-1.6-2.3-3.1-3.5-4.7
			c-0.6-0.8-1.8-1.6-2.3-2.6c-0.2-0.3-0.4-0.6-0.7-0.9c-0.1,0-0.2,0-0.2,0.1c0.4,0.8,0.8,1.5,1.2,2.2c0.1,0.1,0.2,0.2,0.2,0.2
			c0,0,0,0.1,0,0.1c0,0,0.1,0.1,0.1,0.1c0.1,0.1,0.2,0.2,0.2,0.4c1.5,1.9,2.9,3.9,4.2,5.9c0.5,0.7,1,1.5,1.5,2.2
			c0.7,0.9,1.3,1.7,2,2.6c0.1,0.1,0.1,0.1,0.2,0.2c1.2,1.3,2.4,2.5,3.1,4c0,0.1,0,0.1,0,0.2c0,0.1,0.1,0.2,0.1,0.3c0,0,0,0,0,0
			c0,0,0,0,0,0c0,0.1,0,0.2-0.1,0.3c0,0,0,0,0,0c-0.1,0.1-0.2,0.2-0.4,0.1c-0.4,0-0.6-0.3-0.8-0.6c-0.4-0.4-0.7-0.9-1-1.4
			c-0.9-1.2-1.7-2.4-2.7-3.6c-1.7-2-3-4.3-4.5-6.5c-1.6-2.3-3.2-4.4-4.8-6.6c-0.2,0-0.4,0-0.6,0.1c-0.2,0.1-0.5,0.1-0.7,0.1
			c-0.1,0-0.2,0-0.3,0.1c0,0.1,0.1,0.1,0.1,0.2c0.1,0.1,0.1,0.2,0.2,0.3c0,0,0,0,0,0c0,0,0,0,0,0c0,0,0,0,0,0c0,0.1,0.1,0.1,0.1,0.2
			c0.2,0.3,0.3,0.5,0.5,0.8c0.5,0.6,0.9,1.2,1.2,1.8c1.1,1.7,2.2,3.4,3.4,5.1c0.1,0.2,0.3,0.4,0.4,0.6c0.2,0.2,0.4,0.5,0.6,0.8
			c0.7,0.9,1.6,1.6,2.1,2.6c1.3,1.6,2.6,3.3,3.7,5.1c0.1,0.1,0.1,0.2,0.2,0.3c0.2,0.2,0.4,0.4,0.5,0.6c0.1,0.2,0.2,0.6,0,0.7
			c0,0-0.1,0.1-0.1,0.1c-0.2,0.3-0.7,0.3-0.9,0c0,0-0.1-0.1-0.1-0.1c-0.2-0.1-0.3-0.3-0.4-0.4c0,0,0,0,0,0
			c-4.3-5.6-8.3-11.4-12.4-17.1c-0.3-0.3-0.5-0.5-0.8-0.8c-0.6,0.1-1.3-0.1-1.8,0.4c0.1,0.1,0.1,0.3,0.2,0.4c0,0,0,0,0,0.1
			c0.7,1,1.5,2,2.2,3c1.1,1.6,2.1,3.2,3.4,4.7c1.2,1.6,2.5,3.1,3.6,4.8c0.4,0.6,0.8,1.3,1.2,1.9c0.2,0.3,0.4,0.5,0.6,0.8
			c0.5,0.6,1,1.2,1.5,1.9c0.2,0.2,0.4,0.4,0.5,0.6c0.1,0.2,0.1,0.4,0,0.5c0,0.1-0.1,0.1-0.2,0.1c-0.1,0.1-0.2,0.2-0.4,0.3
			c0,0-0.1,0-0.1,0c-0.4,0.1-0.8,0-1-0.3c-0.3-0.3-0.5-0.6-0.7-0.9c-0.2-0.3-0.4-0.5-0.5-0.8c-0.9-1-1.6-2.1-2.3-3.3
			c-0.8-1.2-1.6-2.3-2.5-3.4c-0.2-0.2-0.3-0.4-0.5-0.6c-0.2-0.2-0.4-0.5-0.6-0.7c-1.1-1.5-2.1-3-3.2-4.5c-0.6-0.9-1.4-1.8-2-2.8
			c-0.4-0.5-0.8-1-1.1-1.6c-0.1,0-0.2,0.1-0.3,0.1c0,0,0,0,0,0c-0.1,0.1-0.2,0.1-0.4,0.1c0,0,0,0,0,0c-0.2,0.1-0.4,0.1-0.5,0.2
			c0,0-0.1,0-0.1,0c0,0,0,0.1,0.1,0.1c0,0,0,0,0,0.1c0,0.1,0.1,0.1,0.1,0.2c0,0,0,0,0,0c0,0,0,0,0.1,0.1c0,0.1,0.1,0.1,0.1,0.2
			c2.4,2.8,4.2,6.2,6.4,9.2c1.2,1.7,2.4,3.3,3.7,5c0.7,0.9,1.3,1.7,1.9,2.7c0,0,0,0,0.1,0.1c0.2,0.4,0.5,0.7,0.8,1.1
			c0.1,0.1,0.1,0.1,0.2,0.2c0,0,0,0,0,0.1c0,0,0,0,0,0.1c0,0.1,0,0.1,0,0.2c0,0.3-0.3,0.7-0.6,0.6c0,0,0,0,0,0c-0.1,0-0.2,0.1-0.3,0
			c-0.2,0-0.5,0-0.7-0.2c-0.4-0.3-0.6-0.8-0.9-1.2c-0.3-0.4-0.5-0.8-0.7-1.2c-0.7-0.9-1.4-1.7-2.1-2.6c-1.2-1.7-2.4-3.5-3.6-5.2
			c-1.1-1.7-2.2-3.3-3.4-4.9c-0.6-0.8-1.3-1.5-1.8-2.3c-0.4-0.4-0.8-0.9-1-1.3c-0.1,0-0.1,0-0.2,0.1c-0.4,0.2-0.7,0.4-1.1,0.6
			c0.1,0.1,0.3,0.3,0.4,0.5c0,0,0,0,0,0c0,0,0,0,0,0c0.2,0.2,0.3,0.5,0.4,0.8c0,0,0,0.1,0.1,0.1c0.4,0.6,0.8,1.2,1.1,1.7
			c1.4,2,2.7,4,4,6.1c1.4,2.1,2.7,4.2,4.1,6.2c0.5,0.8,1,1.6,1.6,2.4c0.5,0.5,1,1,1.4,1.6c0,0.1,0.1,0.1,0,0.2
			C40.2,127.1,39.5,127.6,38.8,127.3z M40.9,127.7c0.1-0.1,0.1-0.2,0.2-0.2c0,0-0.1-0.1-0.1,0c0,0,0,0-0.1,0
			c-0.2,0.3-0.4,0.5-0.8,0.6c0,0-0.1,0,0-0.1c0.9-0.5,1-1.2,0.8-2c-0.4-0.5-0.8-1.2-1.2-1.7c-0.6-0.8-1.2-1.5-1.6-2.3c0,0,0,0,0,0
			c1,0.9,2.4,2.2,3,3.6c0.2,0.2,0.4,0.3,0.7,0.4c0,0,0,0.1,0,0.1c0,0,0,0,0,0c0,0,0,0,0,0c-0.1,0-0.2,0-0.2,0c0,0.2,0,0.3,0,0.5
			c0,0,0,0,0,0.1c0,0.1,0,0.2,0,0.3C41.3,127.3,41.1,127.6,40.9,127.7C40.9,127.8,40.8,127.8,40.9,127.7z"/>
	</g>
	<path class="st4" d="M70.5,160.9C31.6,160.9,0,129.3,0,90.4s31.6-70.5,70.5-70.5S141,51.6,141,90.4S109.4,160.9,70.5,160.9z
		 M70.5,25.9C34.9,25.9,6,54.9,6,90.4s28.9,64.5,64.5,64.5S135,126,135,90.4S106.1,25.9,70.5,25.9z"/>
	<path class="st1" d="M70.5,154.9C34.9,154.9,6,126,6,90.4s28.9-64.5,64.5-64.5S135,54.9,135,90.4S106.1,154.9,70.5,154.9z
		 M70.5,31.9C38.2,31.9,12,58.2,12,90.4s26.2,58.5,58.5,58.5S129,122.7,129,90.4S102.8,31.9,70.5,31.9z"/>
	<path class="st5" d="M58.5,135.6c0.2-0.5,3.2,5.6,3.3,4.8c0,0,0-0.1,0-0.1l1.6,1.2c1.1,0.9,2.5,1.3,3.9,1.3c5.5,0,7.2-5.8,7.7-10.4
		l0.2-4.7l0-1.1c0-0.4,0-0.8-0.1-1.3c0,0,0,0,0,0c0.4-0.1,1-0.3,2-0.7c-0.1,1.2-0.2,2.5-0.3,3.8c0,0.2,0,0.3,0,0.5l0,0.1
		c-0.2,13.1,5.4,19,6,19.7l0.3,0.3c3.9,3.6,9.9,3.7,13.3,3.7c1.5,0.4,3.1,0.7,4.6,0.7c1,0,1.9-0.1,2.7-0.2c6-0.1,12-3.2,16.9-10.4
		c4-6,5.6-13.3,6.6-19.5c0.5-1.9,1.1-4.2,1.3-6.1c0.3-3.4-0.3-5.8-0.6-7.2c-0.1-0.3-0.2-0.6-0.2-0.7c0-0.5,0.2-1.4,0.4-2.3l0.2-0.6
		c0.3-1.4,0.2-2.8-0.4-4.2c0.2-1,0.5-4.4-1.3-9.9c-1.7-5.3-5.5-7.8-8.4-8.8l-0.3-2.6l0-0.1c-0.6-3-1.1-4.2-1.5-4.8
		c1.4-1.1,2.5-2.5,3-3.8c0.5-1.4,2.1-3.8,3-5.5c1-2,2.3-5.6,2.7-8.1c0.4-2.7,0.3-5.6,0.3-5.6c0.1-4.3-0.1-7.5-0.5-9.4
		c0.5,0,0.9-0.1,1.3-0.1l0.2,0c2-0.3,4.4-0.9,6.5-1.7c3.1-1.1,5.2-2.4,5.6-4.8c0,0,0.4-1.7-0.6-3c-1-1.3-2.5-1.6-2.5-1.6
		c-0.6-0.2-1.3-0.4-2-0.5c-3-0.4-7.3-0.7-12.8-0.7c-1.4,0-2.5,0-3.5,0c0-0.6,0-1.1,0-1.7c0-3.7-0.2-7-0.7-9.8l0-0.2
		c0-0.1,0-0.2-0.1-0.3l0-0.1l0-0.2c-0.1-0.4-0.2-0.9-0.3-1.3C113.1,5.9,100.4,0.9,94.5,0.9c-0.2,0-0.4,0-0.6,0c0,0-14-0.9-19.3-0.9
		c-4.9,0-10.1,0.5-15.5,1.5c-0.2,0-0.4,0.1-0.6,0.1L58,1.8c-7.7,1.7-14.4,5.6-18.8,11.1L39.1,13c-0.4,0.5-0.8,1-1.1,1.5
		c0,0.1-0.1,0.1-0.1,0.2c-0.4,0.5-0.6,1-0.9,1.4c-0.1,0.1-0.1,0.2-0.2,0.3c-0.2,0.4-0.5,0.8-0.7,1.3c-0.1,0.2-0.1,0.3-0.2,0.5
		l-0.1,0.3c-0.1,0.3-0.3,0.7-0.4,1c-0.1,0.2-0.2,0.5-0.2,0.7l-0.1,0.4c-0.1,0.2-0.2,0.5-0.2,0.7c-0.2,0.6-0.3,1.2-0.4,1.7
		c-0.1,0.3-0.1,0.5-0.1,0.8c0,0.1-0.1,0.7-0.1,0.8c0,0-0.1,0.7-0.1,0.8c0,0-0.1,0.7-0.1,0.8l0,0.2c0,0.2,0,0.4,0,0.7l0,0.1
		c-0.2,6.7,1.4,15.6,2.5,20.5l1.6,8.5l-1.1,1.6c0,0-0.1,0.1-0.1,0.1c-0.7,1.2-0.5,7.3-0.5,7.3l2.1,1.5l1.7,6.3
		c0,0.5-0.1,0.9-0.2,1.3c-0.2,1.3-0.5,3,0.3,5.2c0.7,2,8.9,16.7,8.9,17.5v0.3l0,0.3c0,0.2,0.4,2.4,0.6,3.7c0.3,1.5,1.1,3,1.2,3.2
		l0.1,0.2l0.1,0.1c0.3,0.5,1,1.4,1.6,2.2c-0.4-0.2-0.9-0.3-1.5-0.3c-0.8,0-1.6,0.1-2.6,0.4c-0.3-0.5-0.7-1.1-1-1.6l-1.1-1.6
		c-1.4-2.1-2.8-4.2-4.2-6.3c-0.6-0.9-1.4-2-2.2-3c-0.1-0.2-0.3-0.3-0.5-0.5c-0.1-0.1-0.1-0.2-0.2-0.2c0.1-0.6,0-1.3-0.2-1.8
		c-0.1-0.6-0.5-1.3-1.6-1.7 M46.5,148.8"/>
	<path class="st6" d="M94.5,107.3l5.6-6.6c0-0.3-3-1.3-2.9-1.6c0.1-0.3,3.5,0.1,3.7-0.2c4.4-9,6.4-20.3,6.4-20.3s-1.9,2.5-3.6,3.4
		c-1.9,1-3.1,1.2-3.1,1.2s2.7-5.6,4.1-10.5c0,0,0-0.1,0-0.1c0.6-3.8,0.9-7.6,1-10.3l-2.1,1l-1.3-11.8l3-3l-3.9,1.2l3.8-3.6l-0.4,0.1
		c-2.1,0.6-3.8,1.2-4.3,1.3c-2.9,0.9-9.6,2.2-15.3,2.8c-5.2,0.5-34.4,2.1-42.3,2.2l-3.3,9.3l2.5,4.1c0,0,0.5,1.1,1,2.3l0-0.1
		c0,0.2,2.8,5.8,2.8,5.8L44,73c-0.2,2.3-0.8,3.3-0.1,5.1c0.8,2.2,5.2,10.1,6.1,11c0.9,0.9,1.7,0.6,1.7,0.6s0.4-0.2,0.4,0.7
		c0.3-0.3,0.9-0.1,1.4,0.1c0.4-0.3,0.8-0.3,1.1,0.1c0.6,0.8,1.4,1.8,1.4,1.8c-1.4-0.4-2,0.7-2.5,2.2c-0.1,1.3-0.2,2.5-0.2,2.5
		s-0.1,0-0.3,0l0.4,2l2.1,4.3l0.2,0.6c1.5,0.7,3.1,2.1,5.7,2.3c2.8,0.2,11.2,2.1,11.2,2.1s-6.8,1-10.3,0.9c-1.7-0.1-4.5,1.3-4.5,1.3
		s0,0.1,0,0.3l0.1,0.3l0.9,5.4c0,0,0.9,2,1.9,2.8c1,0.7,2.9,1,2.9,1h0c-0.2-1.8,0.2-3.5,0.2-3.5s0.7,1.8,1.9,3.5
		c1.5,0.4,5.9,1.6,7.8,1.2c2.2-0.5,10.8-4.5,10.8-4.5s5.1-3,10.3-8.7C94.7,107.9,94.5,107.3,94.5,107.3z"/>
	<path class="st2" d="M81.7,122c-0.4,1.9-0.6,4.1-0.7,6.6c-0.4,12.2,4.8,17.4,4.8,17.4s-1.1-3.5-1.3-5.5c-0.3-2,1.3-1.3,1.5-2.1
		c0.2-0.8-1.5-1.2-1.1-1.6c0.4-0.4,1.6,0.3,1.3-0.5c-0.3-0.8-1.6-1.3-1.3-2.1c0.4-0.7,1.3-0.5,0.9-1.4c-0.4-0.9-2-0.4-1.4-1.1
		c0.5-0.7,1.6-1,1.3-1.5c-0.3-0.5-1.6-1-1.2-1.6c0.4-0.6,1.2-0.5,1-1.7c-0.2-1.2,0.5-2.6,0.7-3c0.2-0.4-1.9-0.9-1.5-1.4
		c0.4-0.5,1.5-0.4,1.8-1.2c0.2-0.5-0.3-0.8-0.5-1.3C84.8,120.5,83.2,121.3,81.7,122z"/>
	<path class="st3" d="M67.7,123.3c-0.5,0.6-1.6,1.4-1.5,1.8c0.1,0.5,0.7,1.9,0.5,3.1c-0.3,1.1,0.5,1.1,0.8,1.8c0.4,0.7-1,1-1.3,1.5
		c-0.3,0.5,0.7,0.9,1.2,1.6c0.5,0.7-0.9,0.2-1.4,0.8c0,0.3,0,0.6,0,0.9c0.2,0.2,0.6,0.4,0.7,0.8c0.2,0.5-0.3,0.8-0.8,1.3
		c0,0.5-0.1,1-0.1,1.5c1.4,1,4.9,1.5,5.4-8c0.1-2.4,0-4.5-0.1-6.4C69.9,123.7,68.6,123.5,67.7,123.3z"/>
	<path class="st7" d="M62.5,93.6c0,0-0.4,0-1,0l0.3,1.4L62.5,93.6z"/>
	<path class="st8" d="M67.7,123.3c-0.5,0.6-1.6,1.4-1.5,1.8c0.1,0.3,0.4,1,0.5,1.8c1.3,0.3,2.9,0.6,4.5,0.8c0-1.4-0.1-2.7-0.2-3.9
		C69.9,123.7,68.6,123.5,67.7,123.3z"/>
	<path class="st1" d="M117.5,108.8c-0.3-0.2-0.8-0.3-1.3-0.3c-2.9,0-8.4,3.1-10.8,14.6c-1.6,7.6-0.9,14.2,1.9,17.8
		c1.1,1.5,2.5,2.3,3.9,2.3c2.2,0.1,4.6-2,6.6-5.7c2.1-3.8,3.2-8.7,3.2-13.4C121,115.3,119.9,110.5,117.5,108.8z"/>
	<path class="st2" d="M112.3,143.1c1.9-0.5,3.8-2.5,5.4-5.6c2.1-3.8,3.2-8.7,3.2-13.4c0-8.7-1.1-13.6-3.5-15.2
		c-0.3-0.2-0.8-0.3-1.3-0.3c-0.6,0-1.2,0.1-1.9,0.4c0.3,0.1,0.6,0.2,0.8,0.3c2.2,1.5,3.8,5.4,3.8,15.8
		C118.9,132.6,115.9,139.8,112.3,143.1z"/>
	<path class="st1" d="M124.1,110.9c-0.1-0.5-0.3-1-0.3-1.4c-0.1-1.1,0.2-2.3,0.5-3.5l0.2-0.6c0.4-1.7-1.7-3.5-2-3.7l-0.6,0.8
		c0.5,0.4,1.8,1.7,1.6,2.6l-0.2,0.6c-0.3,1.2-0.7,2.5-0.6,3.8c0,0.5,0.2,1,0.3,1.6c0.3,1.2,0.7,2.9,0.5,5.5
		c-0.2,1.8-0.7,4.1-1.3,5.9c0,0.5,0,1,0,1.5c0,0.6,0,1.2-0.1,1.9c0.4-1.2,2-5.8,2.3-9.2C124.9,114,124.4,112.2,124.1,110.9z"/>
	<path class="st1" d="M108.5,109.2c0.8,0.3,1.9,0.2,2.4-0.2c0.2-0.1,0.4-0.3,0.6-0.6c0.6-0.6,1.4-1.4,2.5-1.4c0.5,0,0.8,0.1,1.1,0.2
		c0.4-0.1,0.7-0.1,1-0.1c0.2,0,0.4,0,0.5,0c0,0-0.1,0-0.1-0.1c-0.2-0.4-0.9-1.1-2.5-1.1c-1.6,0-2.6,1-3.2,1.7
		c-0.2,0.2-0.3,0.4-0.5,0.4c-0.3,0.2-1,0.3-1.5,0.1c-0.1,0-0.3-0.1-0.4-0.3c-0.2-0.6,0-2.1,0.2-3l-1-0.2c0,0.3-0.5,2.5-0.2,3.5
		C107.6,108.6,107.9,109,108.5,109.2z"/>
	<path class="st7" d="M106,107.4l0.2,2c0,0-7,6.1-7.3,20.2c-0.4,14.1,7.5,15.4,7.5,15.4s-6.9,1.8-8.6-10.2c-1.7-12,2.1-19,4-22.5
		C103.8,108.9,106,107.4,106,107.4z"/>
	<path class="st1" d="M97.4,148.8c1.2,0.4,2.5,0.6,3.8,0.6c2.2,0,4.1-0.6,5.3-1.1c-2.5,0.3-6.9-0.1-10.4-5.3
		c-5.6-8.1-2.8-19.6-0.6-25.7c0.7-2.1,1.5-3.9,2.4-5.6l-1-1.3l-0.7-0.7c-1.6,2.9-4.2,8.5-5.3,16.1c-1.7,11.6,2,18.2,5.6,20.8
		c3.6,2.6,7.4,2.4,7.4,2.4s-7.6,0.8-11.2-5c-3.6-5.8-3.5-12.8-2-21.1c1-5.5,3.7-10.4,5.4-13.2l-0.7-0.6c-2.6,3.6-4.6,8.8-5.9,15.5
		C86.5,138.6,91.3,146.9,97.4,148.8z"/>
	<path class="st9" d="M100.1,111.9c0,0-1.7,3.3-3.1,10.7c-1.4,7.4,0.4,16.4,0.4,16.4s-2.2-3.6-2.7-7c-0.4-3.4,0.1-7.1,1.2-11.2
		C97,116.7,100.1,111.9,100.1,111.9z"/>
	<path class="st1" d="M120.1,107.6c-0.1,0-0.2,0-0.3,0c-0.6-0.1-1.1-0.6-1.8-1.2c-0.9-0.8-1.9-1.7-3-1.8c-1.8-0.2-3.4,0.2-5.3,1.1
		c-1.2,0.6-1.8,0.1-1.9-0.1c-0.4-0.5-0.2-1.2,0.4-1.9c1.5-1.7,5-1.8,6.8-1.1c1.4,0.5,2.7,2.2,2.8,2.3l-0.1,0c0.1,0,0.1,0.1,0.2,0.1
		c0.5-1.1,1.4-3.1,2.2-3.5c1-0.6,1.7-0.2,2.3,0.2c1,0.6,0.7,1.8,0.3,3.2C122.3,106.5,121.2,107.6,120.1,107.6z M118.8,105.6
		c0.5,0.4,1,0.9,1.2,0.9c0.8,0.1,1.5-0.9,1.8-2c0.3-1,0.5-2,0.2-2.1c-0.6-0.4-0.8-0.5-1.4-0.2C120.2,102.5,119.4,104.2,118.8,105.6z
		 M108.6,104.9c0.1,0,0.3,0,0.6-0.2c2-1,3.6-1.4,5.5-1.3c0,0-0.1,0-0.1,0c-1.5-0.6-4.5-0.5-5.7,0.8
		C108.7,104.6,108.6,104.8,108.6,104.9z"/>
	<path class="st3" d="M81.7,122c-0.4,1.9-0.6,4.1-0.7,6.6c0,0.2,0,0.4,0,0.6c0.8-0.8,0.9-1.8,1.6-2.6c0.8-0.9,1.6-2.2,1.6-3
		c0-0.3,0.3-0.6,0.8-0.8c-0.1-0.1-0.2-0.2-0.1-0.3c0.4-0.5,1.5-0.4,1.8-1.2c0.2-0.5-0.3-0.8-0.5-1.3C84.8,120.5,83.2,121.3,81.7,122
		z"/>
	<path class="st10" d="M56.2,72.4c0.2-0.7-2.7-2.9-2.7-2.9s-5.3,1.5-6.6,0.9c-1.3-0.6-3.9-2.1-3.9-2.1s-2.4-4.4-2.3-5.2
		c0.1-0.7,1-0.8,2.2-0.6c1.2,0.1,10.2,4.5,11.4,4.7c1.2,0.1,2.9-0.3,2.9,1.3C57.3,70.1,56.2,72.4,56.2,72.4z"/>
	<path class="st11" d="M103.7,82.1c-1.9,1-3.1,1.2-3.1,1.2s2.7-5.6,4.1-10.5c0,0,0-0.1,0-0.1c0,0,0,0,0,0c0.2-1.4,0.4-2.8,0.5-4.2
		c0,0,0-0.1,0-0.1c0-0.4,0.1-0.8,0.1-1.2c0-0.1,0-0.1,0-0.2c0-0.4,0.1-0.7,0.1-1c0-0.1,0-0.1,0-0.2c0-0.4,0-0.7,0.1-1.1
		c0,0,0-0.1,0-0.1c0-0.8,0.1-1.5,0.1-2.2l-2.1,1l-1.3-11.8l3-3l-3.9,1.2l3.8-3.6l-0.4,0.1c-2.1,0.6-3.8,1.2-4.3,1.3
		c-2.4,0.7-7.5,1.8-12.5,2.4l6.2,3.6l-1.1,3.7c0,0-11.5,0.2-12.8,0.3c-1.2,0.1-8.1,6.6-8.4,6.9c-0.4,0.2-2.8,4.1-2.8,4.1
		s2.6,3.4,4.2,4.9c0.3,0.1,0.9,0.2,1.7,0.3c0.1,0,0.3,0,0.5,0c1.1,0.1,2,0.2,2.8,0.2c1.4,0,3.1-0.1,5-0.4c1.1-0.3,6.8-2.2,8.1-2.4
		c2.5-0.5,5.4,1.8,5.3,2.3c-0.3,0.8-2.5,2.4-4.8,3.6c0,0-2.1,1.2-3.7,1.8l1.3,1.2l-3.6-0.9c-2.8-0.2-7.5-1.2-8.9-2
		c-0.2-0.1-0.3-0.2-0.5-0.3c-3.5-0.9-6.6-1.7-7.1-2.3c-1.1-1.3-0.6-5.2-0.4-6c0.2-0.8-1.3-2.3-2.4-2.5c-1.1-0.3-3.9-0.3-3.9-0.3
		c0.6,2.2-0.4,5.2-0.6,7c-0.3,1.8,0.3,7.2,0.3,8.6s0.8,3.3,1.7,2.7c0.9-0.6,3.5-2.8,5-3.2c1.1-0.3,8.8,1.1,12.6,1.9l6,6.2l-1-5.5
		l6.1,0.4l3.1,4.1c0,1.9-0.2,4-0.7,6.1c-1.2,5.6-3.6,9.8-4,10.1c-0.8,0.5-1,3.9,1.9,6.2c0.5-0.5,1.1-1.1,1.6-1.7l-0.6-0.5l6.3-7.2
		c0.1-0.1,0.1-0.2,0.2-0.4l-2.1-0.9l2.9-0.5c4.4-9,6-20.3,6-20.3S105.4,81.2,103.7,82.1z"/>
	<path class="st11" d="M85.2,50.3c-4.7,0.5-29.2,1.8-39.6,2.1c1.3,0.3,6.9,1.1,6.9,1.1l3.8,2l2.5-2c0,0,13.4-1.1,14.4-1.1
		c0.9,0,8.8-1.4,12.6-2.2C85.6,50.3,85.4,50.3,85.2,50.3z"/>
	<path class="st12" d="M78.9,38.1c-1.6,0.1-16.6,0.8-21.8,1.5l-0.1,0c-5.1,0.7-4.8,3.1-4.5,5.1c0.2,1.7,1,3.6,7,3.6
		c5.7,0,22.5-1.4,25.4-1.6c-0.4-0.9-1.7-3.3-3.4-5.4C79.8,39,79.1,38.3,78.9,38.1z"/>
	<path class="st5" d="M59,44.3c0,0.7-0.5,1.3-1.1,1.4c-0.1,0-0.2,0-0.4,0c-0.8-0.1-1.4-0.9-1.4-1.7c0-0.8,0.7-1.5,1.5-1.4
		C58.4,42.7,59,43.4,59,44.3z"/>
	<path class="st5" d="M64.7,43.8c0,0.8-0.5,1.4-1.2,1.5c-0.1,0-0.3,0-0.4,0c-0.8-0.1-1.5-1-1.5-1.9c0-0.9,0.7-1.6,1.6-1.5
		C64,42.1,64.7,42.9,64.7,43.8z"/>
	<path class="st7" d="M55.7,40.9l0.1,0c5.2-0.7,20.4-1.4,22-1.5c0.2,0.2,0.7,0.6,2.4,3c1.1,1.6,2,3.3,2.7,4.4
		c0.9-0.1,1.5-0.1,1.9-0.2c-0.4-0.9-1.7-3.3-3.4-5.4c-1.7-2.2-2.4-2.9-2.6-3.2c-1.6,0.1-16.6,0.8-21.8,1.5l-0.1,0
		c-2.8,0.4-3.9,1.3-4.4,2.3C53.3,41.4,54.3,41.1,55.7,40.9z"/>
	<path class="st7" d="M49.9,40.8c0.1-0.2,0.1-0.4,0.2-0.6c-0.1,0-0.1,0-0.2,0c-0.5,0.1-1.5,0.3-1.7,1.1c-0.2,1-0.1,4.7,0,6.4
		c0,0.5,0,0.8,0,1c0.1,0,0.5,0.1,1.7,0c0.4-0.1,0.9-0.1,1.2-0.2c-0.7-0.8-1.9-2.7-1.8-4.6C49.3,42.5,49.7,41.4,49.9,40.8z"/>
	<path class="st2" d="M95.5,14.4c-0.6-3.1-2.5-6.2-4.5-7.6C89.3,5.8,78.6,2,59.8,5.5c-12.6,2.4-20,10.7-21.6,18.3
		c-1.3,6.4,1.2,19.2,2.2,23.7c0,0.1,1,1.1,1,1.1c-0.1-0.4-0.2-0.7-0.2-1.1c-0.1-0.3,0-0.6,0.1-0.8c0.1-0.2,0.4-0.4,0.6-0.4
		c0.5-0.1,1,0.4,1.2,0.9c0,0.3,0.1,0.5,0.2,0.8l0.8-0.2c-0.1-1-0.5-4.1,0-7.7c0.7-5.7,3.2-9.8,7.1-11.8c1.7-0.9,3.6-1.5,5.8-1.8
		c8.6-1.2,19.6,2.9,24.9,9.2c4,4.7,5.9,8.4,6.7,10.4c0.1,0.3,0.3,0.8,0.6,1c0.3,0.3,0.7,0.2,0.7,0.2l0.5-0.1c-0.1-0.4-0.3-1-0.5-1.6
		c-0.1-0.3-0.1-0.6,0-0.8c0.1-0.2,0.3-0.4,0.5-0.5c0,0,0.1,0,0.1,0c0.5-0.1,0.9,0.3,1.1,0.8c0.2,0.6,0.4,1.2,0.6,1.8l1.2-0.2v-0.1
		c0-0.5,0.4-1,0.9-0.9l0,0l0.1,0c0.4,0.1,0.7,0.3,0.8,0.7l1.1-0.2c0,0,0.6-0.1,0.9-0.5c0.2-0.3,0.2-1,0.2-1.2
		C97.3,36.7,97,22.2,95.5,14.4z M42.5,41.6l0,0.3c0,0.9,0,1.7,0.1,2.5c0,0.5-0.3,1-0.8,1c0,0-0.1,0-0.2,0c-0.1,0-0.1,0-0.1,0
		c-0.5-0.1-0.9-0.5-0.9-1c-0.1-0.9-0.1-1.8-0.1-2.7l0-0.3c0-0.6,0.5-1,1-0.9C42.1,40.5,42.5,41,42.5,41.6z M43.3,36.3
		c-0.2,0.9-0.4,1.7-0.6,2.6c-0.1,0.4-0.4,0.7-0.7,0.8c-0.1,0-0.2,0-0.2,0c0,0-0.1,0-0.2,0c-0.5-0.2-0.9-0.7-0.8-1.3
		c0.1-1,0.4-1.9,0.6-2.9c0.1-0.5,0.7-0.8,1.2-0.6C43.1,35.2,43.4,35.8,43.3,36.3z M45.3,31.6c-0.4,0.7-0.8,1.5-1.2,2.3
		c-0.1,0.3-0.4,0.5-0.7,0.5c-0.1,0-0.2,0-0.2,0c-0.1,0-0.3-0.1-0.4-0.1c-0.5-0.3-0.7-0.9-0.5-1.4c0.4-0.9,0.8-1.7,1.3-2.5
		c0.3-0.5,0.9-0.5,1.3-0.2C45.5,30.4,45.6,31.1,45.3,31.6z M48.9,27.1c0,0.3-0.1,0.5-0.3,0.7c-0.6,0.5-1.2,1.1-1.7,1.7
		c-0.1,0.2-0.3,0.3-0.5,0.3c-0.1,0-0.2,0-0.2,0c-0.2,0-0.4-0.1-0.6-0.3C45,29.1,45,28.4,45.3,28c0.6-0.7,1.2-1.4,1.9-1.9
		c0.4-0.3,1-0.2,1.4,0.2C48.8,26.5,48.9,26.8,48.9,27.1z M53.2,24.7c-0.1,0.2-0.3,0.4-0.5,0.5c-0.8,0.3-1.5,0.7-2.2,1.1
		c-0.1,0.1-0.2,0.1-0.3,0.1c-0.1,0-0.2,0-0.2,0c-0.3,0-0.6-0.2-0.8-0.5C49,25.7,49,25.3,49,25.1c0.1-0.3,0.2-0.5,0.4-0.6
		c0.8-0.5,1.6-0.9,2.4-1.2c0.5-0.2,1,0.1,1.3,0.6C53.3,24.2,53.3,24.5,53.2,24.7z M58.2,23.7c-0.1,0.2-0.4,0.4-0.6,0.4
		c-0.3,0-0.5,0.1-0.7,0.1c-0.6,0.1-1.2,0.2-1.8,0.3l-0.1,0c-0.1,0-0.2,0-0.2,0c-0.4-0.1-0.8-0.4-0.9-0.8c-0.1-0.3-0.1-0.6,0.1-0.8
		c0.1-0.2,0.3-0.4,0.6-0.4c0.9-0.2,1.8-0.3,2.7-0.4c0.5-0.1,1,0.4,1.1,0.9C58.4,23.2,58.3,23.5,58.2,23.7z M63.7,23.2
		c0,0.5-0.3,0.9-0.8,1c-0.1,0-0.1,0-0.2,0c-0.9-0.1-1.7-0.1-2.6-0.2c0,0-0.1,0-0.1,0c-0.5-0.1-0.9-0.5-0.9-1
		c-0.1-0.6,0.3-1.1,0.9-1.1c0.9,0,1.8,0.1,2.8,0.2C63.2,22.1,63.6,22.6,63.7,23.2z M69,24.3c0,0.4-0.3,0.8-0.8,0.8
		c-0.1,0-0.2,0-0.2,0c0,0-0.1,0-0.1,0c-0.3-0.1-0.6-0.1-0.9-0.2c-0.6-0.1-1.2-0.3-1.7-0.4c-0.5-0.1-0.9-0.6-0.9-1.2
		c0-0.6,0.5-1,1-0.9c0.6,0.1,1.2,0.2,1.8,0.4c0.3,0.1,0.6,0.1,0.9,0.2C68.7,23.2,69.1,23.8,69,24.3z M74.3,26.3
		c-0.1,0.4-0.4,0.6-0.7,0.7c-0.1,0-0.2,0-0.2,0c-0.1,0-0.2,0-0.3-0.1c-0.8-0.4-1.7-0.7-2.5-1c-0.5-0.2-0.8-0.8-0.7-1.3
		c0.1-0.5,0.6-0.9,1.2-0.7c0.9,0.3,1.8,0.7,2.7,1.1C74.1,25.2,74.4,25.8,74.3,26.3z M79.2,29.3c-0.1,0.3-0.4,0.4-0.7,0.5
		c-0.1,0-0.2,0-0.2,0c-0.1,0-0.3-0.1-0.4-0.2c-0.8-0.5-1.6-1-2.4-1.5c-0.5-0.3-0.7-0.9-0.5-1.4c0.2-0.5,0.8-0.7,1.3-0.5
		c0.9,0.5,1.7,1,2.5,1.6C79.3,28.1,79.5,28.8,79.2,29.3z M83.1,33.5c-0.1,0-0.2,0-0.2,0c-0.2,0-0.4-0.1-0.6-0.3
		c-0.7-0.7-1.4-1.3-2.1-1.9c-0.4-0.4-0.6-1-0.3-1.5c0.3-0.4,0.9-0.5,1.4-0.2c0.8,0.7,1.5,1.4,2.3,2.1c0.4,0.4,0.5,1.1,0.1,1.5
		C83.5,33.4,83.3,33.5,83.1,33.5z M86.6,38.1c-0.3,0-0.6-0.2-0.7-0.5c-0.5-0.8-1.1-1.6-1.7-2.3c-0.2-0.2-0.3-0.5-0.3-0.8
		c0-0.3,0.1-0.5,0.3-0.7c0.4-0.3,1-0.3,1.4,0.2c0.7,0.8,1.3,1.6,1.9,2.5c0.2,0.2,0.2,0.5,0.2,0.8c0,0.3-0.2,0.5-0.4,0.6
		c-0.1,0.1-0.2,0.1-0.4,0.2C86.8,38.2,86.7,38.2,86.6,38.1z M90.5,42.8c-0.1,0.2-0.3,0.4-0.5,0.5c-0.1,0-0.1,0-0.2,0.1
		c-0.1,0-0.2,0-0.2,0c-0.4,0-0.7-0.3-0.8-0.7c-0.4-0.9-0.8-1.8-1.3-2.6c-0.1-0.3-0.2-0.6-0.1-0.8c0.1-0.3,0.2-0.5,0.4-0.6
		c0.4-0.2,1,0,1.3,0.5c0.5,0.9,1,1.9,1.4,2.8C90.6,42.3,90.6,42.6,90.5,42.8z M92.3,11.6c0.5,0.9,0.8,2,1.1,3c0.1,0.3,0,0.6-0.1,0.8
		c-0.1,0.2-0.4,0.4-0.6,0.4c-0.1,0-0.2,0-0.2,0c-0.4-0.1-0.8-0.4-0.9-0.9c-0.2-0.9-0.5-1.8-0.9-2.5c-0.1-0.3-0.2-0.6-0.1-0.8
		c0.1-0.3,0.2-0.4,0.5-0.6C91.4,10.8,92.1,11.1,92.3,11.6z M87.2,8.5c-0.5-0.3-0.6-1-0.4-1.5c0.2-0.5,0.9-0.6,1.3-0.3
		c0.9,0.6,1.7,1.4,2.4,2.1c0.2,0.2,0.3,0.5,0.3,0.8c0,0.3-0.1,0.5-0.3,0.7c-0.1,0.1-0.3,0.2-0.5,0.2c-0.1,0-0.2,0-0.2,0
		c-0.2,0-0.5-0.2-0.6-0.4C88.6,9.6,87.9,9,87.2,8.5z M95.3,40.9c0,0.8,0,1.5,0,2.2l0,0.7c0,0.5-0.3,0.9-0.8,0.9c-0.1,0-0.2,0-0.2,0
		c-0.5-0.1-0.9-0.6-0.9-1.2l0-0.7c0-0.7,0-1.4,0-2.2c0-0.6,0.4-1,0.9-1l0,0l0.1,0C94.9,39.8,95.3,40.3,95.3,40.9z M95.2,35.1
		c0,1,0,2,0.1,2.9c0,0.5-0.3,0.9-0.8,1c-0.1,0-0.1,0-0.2,0l0,0c-0.5-0.1-0.9-0.6-0.9-1.1c0-0.9,0-1.9-0.1-2.9c0-0.6,0.4-1,1-1
		C94.7,34,95.2,34.5,95.2,35.1z M95.1,32.2c0,0.5-0.3,0.9-0.8,1c-0.1,0-0.1,0-0.2,0c-0.5-0.1-1-0.6-1-1.1c0-0.9-0.1-1.9-0.1-2.9
		c0-0.6,0.4-1.1,0.9-1c0.5,0.1,1,0.5,1,1.1C95,30.3,95.1,31.2,95.1,32.2z M94.8,26.4c0,0.5-0.3,1-0.8,1c-0.1,0-0.1,0-0.2,0l-0.1,0
		c-0.5-0.1-0.9-0.5-0.9-1.1c-0.1-1-0.1-1.9-0.2-2.9c-0.1-0.6,0.3-1.1,0.9-1c0.5,0,1,0.5,1,1.1C94.7,24.4,94.8,25.4,94.8,26.4z
		 M94.3,20.6c0.1,0.5-0.3,1-0.8,1.1c0,0-0.1,0-0.1,0c0,0-0.1,0-0.1,0c-0.5-0.1-0.9-0.5-0.9-1c-0.1-1-0.2-2-0.4-2.8
		c0-0.3,0-0.5,0.2-0.7c0.1-0.2,0.4-0.3,0.6-0.4l0.1,0c0.5,0,1,0.4,1.1,1C94.1,18.5,94.2,19.5,94.3,20.6z M92.8,17L92.8,17L92.8,17
		C92.8,17,92.8,17,92.8,17z"/>
	<path class="st5" d="M78.8,43.2c0,1-0.7,1.9-1.6,2c-0.2,0-0.3,0-0.5,0c-1.1-0.2-2-1.3-2-2.5c0-1,0.7-1.9,1.6-2c0.2,0,0.3,0,0.5,0
		C77.9,40.9,78.8,42,78.8,43.2z"/>
	<path class="st2" d="M76.2,44.2c0.1,0,0.2,0.1,0.3,0.1c0.1,0,0.2,0,0.4,0c0.6-0.1,1-0.5,1.1-1.2c0-0.2,0-0.4-0.1-0.7
		C77.6,43.3,77,44,76.2,44.2z"/>
	<path class="st5" d="M71.8,43.5c0,0.9-0.6,1.7-1.4,1.8c-0.1,0-0.3,0-0.5,0c-1-0.1-1.8-1.1-1.8-2.2c0-1.1,0.9-1.9,1.9-1.8
		C71,41.4,71.8,42.4,71.8,43.5z"/>
	<path class="st2" d="M69.7,44.2c0.1,0.1,0.3,0.1,0.4,0.2c0.1,0,0.1,0,0.2,0c0.4-0.1,0.6-0.4,0.6-0.8c0-0.2-0.1-0.4-0.2-0.6
		C70.5,43.5,70.2,44,69.7,44.2z"/>
	<path class="st1" d="M44.2,38.7c0-0.1,0-0.2,0.1-0.3c0.1-0.4,0.1-0.7,0.2-1.1c0-0.1,0-0.1,0.1-0.2c0.1-0.4,0.2-0.8,0.4-1.2
		c0-0.1,0-0.1,0.1-0.2c0.1-0.3,0.2-0.7,0.4-1c0-0.1,0-0.1,0.1-0.2c0.3-0.8,0.7-1.5,1.1-2.1c0,0,0-0.1,0.1-0.1
		c0.4-0.7,0.9-1.3,1.4-1.8c0.1-0.8,0.2-1.6,0.3-2.5c-0.3,0.2-0.5,0.5-0.8,0.7c-0.3,0.3-0.5,0.5-0.7,0.8c-0.1,0.2-0.3,0.3-0.5,0.3
		c-0.1,0-0.2,0-0.2,0c-0.2,0-0.4-0.1-0.6-0.3C45,29.1,45,28.4,45.3,28c0.6-0.7,1.2-1.4,1.9-1.9c0.1-0.1,0.2-0.1,0.3-0.2
		c0.1,0,0.1,0,0.2,0c0.1,0,0.1,0,0.2,0c0.1,0,0.2,0.1,0.3,0.1c0,0,0.1,0,0.1,0c0.1,0,0.2,0.1,0.2,0.2c0,0,0.1,0,0.1,0.1
		c1-5,5.1-15.8,10.5-20.6C46.9,8.2,39.7,16.3,38.2,23.7c-1.3,6.3,1.1,18.8,2.1,23.5c0.1,0.7,1,1.3,1,1.3c-0.1-0.4-0.2-0.7-0.2-1.1
		c-0.1-0.3,0-0.6,0.1-0.8c0.1-0.2,0.4-0.4,0.6-0.4c0.5-0.1,1,0.4,1.2,0.9c0,0.3,0.1,0.5,0.2,0.8l0.8-0.2c-0.1-1-0.5-4.1,0-7.7
		C44,39.5,44.1,39.1,44.2,38.7z M42.4,32.8c0.4-0.9,0.8-1.7,1.3-2.5c0.3-0.5,0.9-0.5,1.3-0.2c0.4,0.4,0.6,1,0.3,1.5
		c-0.4,0.7-0.8,1.5-1.2,2.3c-0.1,0.3-0.4,0.5-0.7,0.5c-0.1,0-0.2,0-0.2,0c-0.1,0-0.3-0.1-0.4-0.1C42.4,33.9,42.2,33.3,42.4,32.8z
		 M42.5,41.9c0,0.9,0,1.7,0.1,2.5c0,0.5-0.3,1-0.8,1c0,0-0.1,0-0.2,0c-0.1,0-0.1,0-0.1,0c-0.5-0.1-0.9-0.5-0.9-1
		c-0.1-0.9-0.1-1.8-0.1-2.7l0-0.3c0-0.6,0.5-1,1-0.9c0.5,0.1,0.9,0.6,0.9,1.2L42.5,41.9z M43.3,36.3c-0.2,0.9-0.4,1.7-0.6,2.6
		c-0.1,0.4-0.4,0.7-0.7,0.8c-0.1,0-0.2,0-0.2,0c0,0-0.1,0-0.2,0c-0.5-0.2-0.9-0.7-0.8-1.3c0.1-1,0.4-1.9,0.6-2.9
		c0.1-0.5,0.7-0.8,1.2-0.6C43.1,35.2,43.4,35.8,43.3,36.3z"/>
	<path class="st13" d="M48.2,74.8l-3.6-3.5c0.7,1.3,1.3,2.6,1.3,2.6L44,73c-0.2,2.3-0.8,3.3-0.1,5.1c0.8,2.2,5.2,10.1,6.1,11
		c0.9,0.9,1.7,0.6,1.7,0.6l0,0c0-0.6-0.1-0.9-0.2-1c-0.6-0.4-3-3.3-4.7-6.9c-1.7-3.5-1.4-6.8-1.4-6.8L48.2,74.8z"/>
	<polygon class="st5" points="64.9,56.4 58.4,58 56.3,60.4 53.6,57.2 47,55.8 54.2,56.2 56,58 57.6,57.2 	"/>
	<path class="st10" d="M110.1,65.3c-0.3-0.9-0.3-1.9-0.3-2.8c0-1.1-0.1-2-0.5-2.6c-0.4-0.5-0.6-0.5-0.6-0.5c-0.1,0-0.3,0.2-0.3,0.9
		c0,0.4-0.1,0.9-0.1,1.6c0,1.5-0.1,3.4-0.5,4.7c-0.5,1.7-0.1,6.3,2.1,7.2c0.3,0.1,0.7,0.2,1.1,0.2c2,0,4.2-1.8,4.8-3.3
		c0.7-1.7,1.9-3.9,3.3-5.7c0.5-0.7,1.1-1.8,1.5-2.8c-0.4,0.5-0.9,1-1.5,1.3c-0.4,0.2-0.7,0.2-0.8,0c-0.3-0.4,0-1.4,0.8-3.9
		c0.6-1.7,1.3-4,1.1-4.7c-0.6-1.8-2.7-7-3.6-8.5c-0.1-0.1-0.2-0.3-0.6-0.3c-0.9,0-2.2,0.8-3,1.4c0.8,0.3,1.9,0.7,2,1.4
		c0,0.4-0.3,0.7-0.9,0.9c-0.2,0.1-0.5,0.1-0.7,0.2c-1.4,0.4-2,0.6-2.1,2c0,0.6,0,0.7,0,0.7c0.1,0,0.2-0.1,0.4-0.1
		c0.4-0.1,0.9-0.2,1.3-0.1c0.6,0.2,0.7,1,0.8,1.7c0.2,1,0.3,1.7,1,1.7c0.7,0,1.2-0.5,1.6-0.8c0.3-0.3,0.5-0.5,0.9-0.5
		c0.5,0,0.7,0.5,0.8,0.7c0.8,1.8,0.5,2.9-1.3,4.7c-0.7,0.7-1.4,1.2-2,1.7c-0.9,0.7-1.6,1.2-1.7,1.9c-0.1,0.9-1,2.7-2,2.7
		c0,0,0,0,0,0C110.7,66.3,110.3,66.1,110.1,65.3z"/>
	<polygon class="st1" points="110.8,72 109.9,71.2 109.7,69.9 110.5,69 111.8,68.9 112.8,69.6 112.9,70.9 112.1,71.8 	"/>
	<path class="st5" d="M78.5,95.8c-0.6,0.2-1-0.3-3.9-0.6c-2.9-0.4-7-1.8-8-1.4c-0.9,0.4-2.9,1.7-4.6,1.9c-1.6,0.3-3.3-0.9-4-1.1
		c-0.7-0.3-1.8,0-3.1,0.7c-0.5,0.3-1,0.6-1.5,0.9C53,96.6,53,96.9,53,96.9s0.3,2.2,0.6,3.4c0.3,1.1,0.9,2.3,0.9,2.3
		c0.4,0.6,0.8,1.2,1.4,1.7c2.3,2,7.3,4.6,14.6,2.1c7.3-2.5,8.5-8.4,8.9-9.1C79.6,96.5,79.1,95.7,78.5,95.8z"/>
	<path class="st14" d="M75,96.5c-2.3-0.3-6.2-1-7.1-1.3c-1.2-0.4-4.7,2.2-6.4,2c-1.8-0.1-3.6-1.5-4.3-1.7c-0.7-0.2-3.8,1.5-3.7,1.8
		c0.1,0.4,4.5,1.9,8.2,1.8c3.7-0.2,8.5-0.8,11.1-1.4c1.3-0.3,2.2-0.6,2.8-0.8C76.2,96.7,75.7,96.6,75,96.5z"/>
	<path class="st14" d="M54.7,99.8c-0.3,0-0.4,0.7,0.1,1.6c0.5,0.9,3.1,3.9,7.4,4.5c4.3,0.6,8.8-0.5,10.7-1.7c1.9-1.1,4-3.9,4.4-4.8
		c0.4-0.9,0.4-1.2-0.3-1.2c-0.7,0-8.5,2.5-14.7,2.7C56.2,100.9,54.7,99.8,54.7,99.8z"/>
	<path class="st5" d="M64.2,100.6c-2.9,0.4-3.8,1.5-3.8,1.5s0-1.6,1.2-2C62.7,99.7,64.2,100.6,64.2,100.6z"/>
	<path class="st15" d="M63,97.5c0.4-0.2,3.6-1.5,4.1-1.6c0.5-0.2,3.9,0.7,4.4,0.7c0.5,0-3.1,0-4.3,0.1c-1.2,0.1-3.3,1.2-4.6,1.2
		C61.2,97.9,63,97.5,63,97.5z"/>
	<path class="st5" d="M67.6,99.1c0,0,2.1-1.8,5.7-2c3.6-0.3,9.6,1.3,15.4,4.9c7,4.3,9.4,9.9,9.3,9.9c0,0,1.4,2.8-2.2,6.5
		c-3.2,3.5-6,1.6-6,1.6c-1-0.5-7.5-3.9-14.1-9.5C68.8,104.4,67.5,99.2,67.6,99.1z"/>
	<g>
		<path class="st16" d="M94.7,110.6c-0.6-0.8-1.6-2-2.9-3.4c-0.3-0.3-1.7-1.4-2.7-1.7c-1.4-0.3-3.2-0.3-5.2,0.9
			c-2.6,1.6-3.4,3.1-3.7,4c3.2,2.2,6.6,4.4,8.6,5.8c0.2-1,0.6-2.9,2.5-4.4C92.8,110.4,94,110.4,94.7,110.6z"/>
		<path class="st16" d="M73.8,99.6c0.6-0.4,1.1-0.7,1.6-0.9c-0.8-0.1-1.6-0.1-2.2-0.1c-1.5,0.1-2.8,0.6-3.6,1c0.4,0.6,1,1.5,1.7,2.4
			C71.8,101.3,72.5,100.4,73.8,99.6z"/>
		<path class="st16" d="M82.9,105c1.7-1.1,3.4-1.4,4.9-1.3c-0.2-0.1-0.3-0.2-0.5-0.3c-2.4-1.5-4.5-2.5-6.6-3.2
			c-0.3-0.1-1.1-0.3-1.9-0.4c-0.7-0.1-1.4,0-1.8,0.1c-0.7,0.2-1.6,0.4-2.3,0.9c-1.5,1-2.1,2-2.3,2.5c1.3,1.5,2.8,3.2,4.6,4.8
			c0.6,0.5,1.2,1,1.9,1.5C79.4,108.3,80.4,106.6,82.9,105z"/>
	</g>
	<g>
		<path class="st17" d="M91.8,114.1c-1.2,1.4-1.5,2.9-0.9,3.4c0.6,0.5,2.1-0.2,3.3-1.4c1.2-1.3,1.7-2.8,1-3.4
			C94.6,112.1,92.9,112.4,91.8,114.1z"/>
		<path class="st18" d="M92.4,115.8c-0.6-0.4-0.5-1.4,0-2.4c-0.2,0.2-0.4,0.4-0.6,0.7c-1.2,1.4-1.5,2.9-0.9,3.4
			c0.6,0.5,2.1-0.2,3.3-1.4c0.1-0.2,0.3-0.3,0.4-0.5C93.7,116.1,92.9,116.2,92.4,115.8z"/>
	</g>
	<g>
		<path class="st19" d="M74,99.4c0.5-0.3,0.9-0.6,1.4-0.8c-0.8-0.1-1.6-0.1-2.2-0.1c-0.6,0-1.2,0.2-1.7,0.3C72.2,99,73,99.2,74,99.4
			z"/>
		<path class="st19" d="M84.8,104.1c1.1-0.3,2.1-0.4,3-0.4c-0.2-0.1-0.3-0.2-0.5-0.3c-2.4-1.5-4.5-2.5-6.6-3.2
			c-0.3-0.1-1.1-0.3-1.9-0.4c-0.7-0.1-1.4,0-1.8,0.1c-0.3,0.1-0.6,0.2-1,0.3c1.8,0.6,4,1.5,6.6,2.9
			C83.5,103.3,84.2,103.7,84.8,104.1z"/>
		<path class="st19" d="M94.7,110.6c-0.6-0.8-1.6-2-2.9-3.4c-0.3-0.3-1.7-1.4-2.7-1.7c-0.6-0.2-1.4-0.2-2.2-0.2
			c3.5,2.4,5.4,4.5,6,5.4C93.7,110.5,94.3,110.5,94.7,110.6z"/>
	</g>
	<g>
		<path class="st20" d="M81.4,108.4c-0.7,0.8-1.1,1.5-1.2,2c3.2,2.2,6.6,4.4,8.6,5.8c0.1-0.7,0.4-1.7,1.1-2.9
			C88.3,112.5,84.8,110.5,81.4,108.4z"/>
		<path class="st20" d="M69.7,99.6c0.4,0.6,1,1.5,1.7,2.4c0.2-0.3,0.4-0.6,0.7-0.9c-0.7-0.8-1.2-1.4-1.5-1.9
			C70.3,99.3,69.9,99.4,69.7,99.6z"/>
		<path class="st20" d="M79,109.5c0.2-0.6,0.5-1.3,1.1-2c-1.2-0.8-2.3-1.6-3.3-2.4c-1.5-1.1-2.6-2.1-3.5-3c-0.4,0.5-0.6,0.9-0.7,1.2
			c1.3,1.5,2.8,3.2,4.6,4.8C77.7,108.6,78.3,109.1,79,109.5z"/>
	</g>
	<polygon class="st9" points="84.6,66.5 87.5,66.7 84.3,65.3 	"/>
	<polygon class="st6" points="41.1,54.4 40.5,52.2 41.9,52.3 	"/>
	<path class="st15" d="M58.6,100.7c-3.1-0.3-3.9-0.9-3.9-0.9c-0.3,0-0.4,0.7,0.1,1.6c0.3,0.6,1.7,2.2,3.8,3.3
		C57.7,102.6,58.4,101.2,58.6,100.7z"/>
	<path class="st15" d="M57.2,95.6c-0.7-0.2-3.8,1.5-3.7,1.8c0,0.2,1.1,0.6,2.6,1c0.3-0.7,0.9-2.1,1.8-2.5
		C57.6,95.7,57.4,95.6,57.2,95.6z"/>
	<path class="st5" d="M55.9,95.4c-1.7,1-1.6,3.1-1.6,3.1s-1.3-1.5-0.7-1.9C54.2,96.2,55.9,95.4,55.9,95.4z"/>
	<path class="st13" d="M59.3,69.7c-0.8,0.3-1.9,4.5-2.5,6.1c-0.6,1.6-0.5,2.3-0.4,3.5c0.1,1.2,0.6,3.9,0.8,5
		c0.2,1.1,2.4,3.8,1.4,4.4c-1,0.5-2.5-0.7-3.7,0c-1.2,0.7-1.6,1.3-2,1.5c-0.4,0.2-1.8-1.5-0.9-3.6c0.9-2,1.8-4.5,2-5
		c0.2-0.5,1.1-1.3,0.9-2.9c-0.2-1.6,0.4-3.8,1.2-5.6c0.8-1.8,0.2-3.3,1.3-3.6C58.4,69.2,59.3,69.7,59.3,69.7z"/>
	<path class="st13" d="M63.1,84.6c2.9-1,5.1-1.1,6.3-0.3c1.2,0.8,2.6,2.4,2.6,0.6c0-1.8-0.1-4.5-1.6-4.3
		C68.9,80.8,63.1,84.6,63.1,84.6z"/>
	<g>
		<path class="st9" d="M88.6,69.9c0.1,0.9-0.6,1.7-1.2,1.7c-0.6,0-1-0.7-1.1-1.3c0.1-0.6,0.3-3,0.1-3C86.5,67.1,88.6,68.8,88.6,69.9
			z"/>
	</g>
	<path class="st21" d="M67.9,100.2c-0.4,0.1-0.7,0.1-1.1,0.2c-0.1,1.1,0.6,4,1.1,5.4c1-0.2,2-0.4,2.8-0.7
		C69.1,102.9,68.3,101.2,67.9,100.2z"/>
	<path class="st10" d="M112.7,78.3c0,0-0.1-0.1-0.3-0.1c-0.4,0-1,0.2-1.4,0.4l4.5,17.9l-1.9-15C113.4,80.2,112.9,78.5,112.7,78.3z"
		/>
	<path class="st13" d="M63.8,119.3c-0.4-0.5-1.2-0.2-2.5-1.5c-1.2-1.2-1.5-5.9-1.1-8.2c-1.2,0.4-2.3,0.9-2.3,0.9s0,0.1,0,0.3
		l0.1,0.3l0.9,5.4c0,0,0.9,2,1.9,2.8c1,0.7,2.9,1,2.9,1h0C63.8,120,63.8,119.6,63.8,119.3z"/>
	<polygon class="st1" points="24.3,127.2 24.3,127.2 24.3,127.2 	"/>
	<path class="st1" d="M21.2,120.6C21.2,120.6,21.2,120.6,21.2,120.6c0,0,0-0.1,0-0.1C21.2,120.4,21.2,120.5,21.2,120.6
		C21.2,120.5,21.2,120.5,21.2,120.6z"/>
	<polygon class="st1" points="20.8,117.7 20.8,117.7 20.8,117.7 	"/>
	<path class="st1" d="M24.3,118.5C24.3,118.5,24.3,118.5,24.3,118.5C24.3,118.5,24.3,118.5,24.3,118.5
		C24.3,118.5,24.3,118.5,24.3,118.5z"/>
	<path class="st1" d="M22.6,117.3C22.6,117.3,22.7,117.3,22.6,117.3C22.7,117.3,22.7,117.3,22.6,117.3
		C22.7,117.3,22.6,117.3,22.6,117.3z"/>
	<path class="st1" d="M47.2,143c0.2,0.2,0.4,0.5,0.5,0.7c0.1,0.4,0.2,0.7,0.2,1.1c-0.1,0.2-0.2,0.4-0.5,0.4
		c-0.4,0.1-0.7-0.3-1.1-0.5c-0.6-0.5-1.3-1-2-1.1c0,0,0-0.1,0-0.1c-0.1-0.2-0.2-0.3-0.2-0.5c0-0.1,0.1-0.1,0.2-0.2
		c0.4-0.2,0.9-0.3,1.4-0.2C46.3,142.6,46.9,142.6,47.2,143z"/>
	<path class="st1" d="M45.1,141.7C45.1,141.7,45.1,141.7,45.1,141.7C45.1,141.7,45.1,141.7,45.1,141.7
		C45.1,141.7,45.1,141.7,45.1,141.7z"/>
	<path class="st1" d="M41.4,144.7C41.5,144.7,41.5,144.7,41.4,144.7C41.5,144.7,41.5,144.7,41.4,144.7
		C41.5,144.7,41.4,144.7,41.4,144.7z"/>
	<path class="st1" d="M10,97.5C10,97.5,10,97.5,10,97.5C10,97.5,10,97.5,10,97.5C10,97.5,10,97.5,10,97.5z"/>
	<path class="st1" d="M9.8,99.7C9.8,99.7,9.8,99.6,9.8,99.7C9.8,99.6,9.8,99.6,9.8,99.7C9.8,99.6,9.8,99.6,9.8,99.7z"/>
	<path class="st1" d="M47.3,152.4C47.3,152.4,47.3,152.4,47.3,152.4C47.3,152.4,47.3,152.4,47.3,152.4
		C47.3,152.4,47.3,152.4,47.3,152.4z"/>
	<path class="st1" d="M54.7,146.1C54.7,146.1,54.7,146.1,54.7,146.1C54.7,146.1,54.7,146.1,54.7,146.1
		C54.7,146.1,54.7,146.1,54.7,146.1C54.7,146.1,54.7,146.1,54.7,146.1z"/>
	<path class="st1" d="M48,151.7c0,0,0.1,0,0.1,0c0,0,0,0,0,0C48.1,151.6,48.1,151.6,48,151.7C48.1,151.6,48.1,151.6,48,151.7z"/>
	<path class="st1" d="M29.2,129.8C29.2,129.8,29.2,129.8,29.2,129.8C29.2,129.8,29.2,129.8,29.2,129.8
		C29.2,129.8,29.2,129.8,29.2,129.8z"/>
	<path class="st1" d="M32.2,89.7C32.1,89.7,32.1,89.7,32.2,89.7c-0.1-0.1-0.1-0.1-0.2-0.2C32,89.6,32.1,89.7,32.2,89.7z"/>
	<path class="st1" d="M36.5,94.2c0,0,0.1,0,0.1,0.1c0,0,0,0,0,0C36.5,94.3,36.5,94.3,36.5,94.2z"/>
	<path class="st1" d="M36.7,100.3C36.7,100.3,36.7,100.3,36.7,100.3C36.7,100.3,36.7,100.4,36.7,100.3
		C36.7,100.3,36.7,100.3,36.7,100.3z"/>
	<polygon class="st1" points="33.2,101.4 33.2,101.4 33.2,101.4 	"/>
	<path class="st1" d="M54.7,113.8c0,0.1,0,0.1-0.1,0.2c0,0,0,0,0,0C54.7,113.9,54.7,113.8,54.7,113.8
		C54.7,113.8,54.7,113.8,54.7,113.8z"/>
	<path class="st1" d="M47.9,109.7C47.9,109.7,47.9,109.7,47.9,109.7C47.9,109.7,47.9,109.7,47.9,109.7
		C47.9,109.7,47.9,109.7,47.9,109.7z"/>
	<path class="st1" d="M54.2,118.6C54.2,118.6,54.2,118.6,54.2,118.6C54.2,118.6,54.2,118.6,54.2,118.6
		C54.2,118.6,54.2,118.6,54.2,118.6z"/>
	<path class="st3" d="M50.8,109.9C50.8,109.9,50.9,110,50.8,109.9c0.3,0.5,0.7,1,1,1.5c0.1,0.3,0.2,0.7,0.3,1
		c-0.1-0.2-0.2-0.4-0.3-0.6c-0.1-0.3-0.3-0.6-0.5-0.8c-0.2-0.2-0.4-0.4-0.5-0.6c0,0,0,0,0,0c0.4,0.7,0.7,1.3,0.9,2
		c0.1,0.3,0.1,0.5,0.2,0.8c0,0.1,0.1,0.2,0.1,0.3c-0.2,0.3-0.5,0.4-1,0.5c0,0-0.1,0-0.1,0c0,0,0,0,0-0.1c-0.7-1.1-1.4-2.2-2.1-3.3
		c0.4-0.1,0.9-0.3,1.3-0.5c0.2-0.1,0.5-0.2,0.7-0.3C50.7,110,50.8,110,50.8,109.9z"/>
	<polygon class="st1" points="26.4,103.7 26.4,103.7 26.4,103.7 	"/>
	<path class="st1" d="M19,96.8C19,96.8,19,96.8,19,96.8C19,96.8,19,96.8,19,96.8C19,96.8,19,96.8,19,96.8z"/>
	<path class="st1" d="M20.9,107.9C20.9,107.9,20.9,107.9,20.9,107.9C20.9,107.9,20.9,107.9,20.9,107.9
		C20.9,107.9,20.9,107.9,20.9,107.9z"/>
	<path class="st1" d="M11.3,95C11.3,95,11.3,95,11.3,95C11.2,95,11.2,95,11.3,95C11.3,95,11.3,95,11.3,95C11.3,95,11.3,95,11.3,95z"
		/>
	<polygon class="st1" points="54.5,115 54.5,115 54.5,115 	"/>
	<path class="st1" d="M11.4,90.9C11.4,90.9,11.4,90.9,11.4,90.9C11.4,90.9,11.4,90.9,11.4,90.9C11.4,90.9,11.4,90.9,11.4,90.9z"/>
	<polygon class="st1" points="18.4,84.7 18.4,84.7 18.4,84.7 	"/>
	<path class="st1" d="M52.5,113.1C52.5,113.1,52.5,113.1,52.5,113.1C52.5,113.1,52.5,113.1,52.5,113.1
		C52.5,113.1,52.5,113.1,52.5,113.1z"/>
	<path class="st1" d="M56.8,133.8C56.8,133.8,56.8,133.8,56.8,133.8C56.8,133.8,56.8,133.8,56.8,133.8
		C56.8,133.8,56.8,133.8,56.8,133.8z"/>
	<path class="st1" d="M55.2,146.2C55.2,146.2,55.2,146.1,55.2,146.2C55.2,146.1,55.2,146.1,55.2,146.2
		C55.2,146.1,55.2,146.2,55.2,146.2z"/>
	<path class="st1" d="M58.7,142.2C58.7,142.2,58.7,142.2,58.7,142.2C58.7,142.2,58.7,142.2,58.7,142.2
		C58.7,142.2,58.7,142.2,58.7,142.2z"/>
	<path class="st1" d="M59.6,137.9C59.6,137.9,59.6,137.9,59.6,137.9C59.6,137.9,59.6,137.9,59.6,137.9
		C59.6,137.9,59.6,137.9,59.6,137.9z"/>
	<path class="st1" d="M58.5,135.6C58.5,135.6,58.5,135.5,58.5,135.6C58.5,135.5,58.5,135.5,58.5,135.6
		C58.5,135.6,58.5,135.6,58.5,135.6z"/>
	<path class="st1" d="M46,135.8C46,135.8,46,135.8,46,135.8C46,135.8,46,135.8,46,135.8C46,135.8,46,135.8,46,135.8z"/>
	<path class="st1" d="M55.4,133.4C55.4,133.4,55.4,133.4,55.4,133.4C55.4,133.4,55.4,133.4,55.4,133.4
		C55.4,133.4,55.4,133.4,55.4,133.4z"/>
	<path class="st1" d="M56.2,135C56.2,135,56.1,135,56.2,135C56.1,135,56.1,135,56.2,135C56.1,135,56.1,135,56.2,135z"/>
	<path class="st1" d="M55.3,132.3C55.4,132.3,55.4,132.3,55.3,132.3C55.4,132.4,55.4,132.4,55.3,132.3
		C55.4,132.3,55.4,132.3,55.3,132.3z"/>
	<path class="st1" d="M58.8,135.1C58.8,135.1,58.8,135.1,58.8,135.1C58.8,135.1,58.8,135.1,58.8,135.1
		C58.8,135.1,58.8,135.1,58.8,135.1z"/>
	<path class="st1" d="M54.5,115C54.5,115,54.5,115,54.5,115C54.5,115,54.5,115,54.5,115C54.5,115,54.5,115,54.5,115z"/>
	<path class="st1" d="M58.3,127.8C58.3,127.8,58.3,127.8,58.3,127.8C58.3,127.8,58.3,127.8,58.3,127.8
		C58.3,127.8,58.3,127.8,58.3,127.8z"/>
	<path class="st1" d="M57.1,124.5C57.1,124.5,57.1,124.6,57.1,124.5c-0.1,0-0.2-0.1-0.3-0.2C56.9,124.4,57,124.5,57.1,124.5z"/>
	<path class="st1" d="M51.8,110.1C51.8,110.1,51.8,110.1,51.8,110.1c-0.1-0.1-0.1-0.2-0.2-0.2c0,0,0,0,0-0.1
		c-0.3-0.4-0.9-0.6-1.4-0.6c0,0,0,0,0,0c1.4-0.3,2.8-0.2,3.8,1.1c0.4,0.6,0.9,1.4,1.2,2.1c-0.1,0-0.1,0-0.2,0c0,0,0,0,0,0
		c-0.3-0.7-0.7-1.3-1.2-1.9c0,0,0,0,0,0c0,0,0,0,0,0c-0.2-0.2-0.3-0.4-0.5-0.6c0,0-0.1,0,0,0c0.2,0.6,0.5,1.2,0.9,1.8
		c0.1,0.3,0.2,0.5,0.3,0.8c0.1,0.3,0.2,0.7,0.2,1.1c-0.1,0.5-0.5,0.5-0.9,0.4c-0.1,0-0.1,0-0.1,0.1c-0.1-0.2-0.1-0.4-0.2-0.6
		C53,112.9,52.5,111,51.8,110.1C51.8,110.1,51.8,110.1,51.8,110.1z"/>
	<polygon class="st1" points="49,146.6 49.1,146.6 49.1,146.6 	"/>
	<path class="st1" d="M59.1,135.2C59.1,135.2,59.1,135.2,59.1,135.2C59.1,135.2,59.1,135.2,59.1,135.2
		C59.1,135.2,59.1,135.2,59.1,135.2z"/>
	<path class="st1" d="M59.5,127.8C59.5,127.8,59.5,127.8,59.5,127.8C59.5,127.8,59.5,127.8,59.5,127.8
		C59.5,127.8,59.5,127.8,59.5,127.8C59.5,127.8,59.5,127.8,59.5,127.8z"/>
	<path class="st1" d="M57.2,123.3C57.2,123.3,57.2,123.3,57.2,123.3C57.2,123.3,57.2,123.3,57.2,123.3
		C57.2,123.3,57.2,123.3,57.2,123.3z"/>
	<path class="st1" d="M56.6,122.3C56.6,122.3,56.5,122.3,56.6,122.3C56.6,122.3,56.6,122.3,56.6,122.3
		C56.6,122.3,56.6,122.3,56.6,122.3C56.6,122.3,56.6,122.3,56.6,122.3z"/>
	<path class="st1" d="M36,139C36,139,36,139,36,139C36,139,36,139,36,139C36,139,36,139,36,139z"/>
	<polygon class="st1" points="28.5,126.6 28.5,126.6 28.5,126.6 	"/>
	<path class="st1" d="M36.6,123.4c-0.1-0.1-0.1-0.2-0.2-0.3c0,0,0,0,0,0C36.5,123.2,36.5,123.3,36.6,123.4z"/>
	<path class="st1" d="M33.6,112.2c0-0.1-0.1-0.1-0.1-0.2C33.5,112.1,33.6,112.2,33.6,112.2C33.6,112.2,33.6,112.2,33.6,112.2z"/>
	<path class="st1" d="M43.6,115.5C43.6,115.4,43.5,115.4,43.6,115.5C43.5,115.4,43.5,115.4,43.6,115.5
		C43.5,115.4,43.6,115.4,43.6,115.5z"/>
	<path class="st1" d="M32.7,104.6C32.7,104.6,32.7,104.6,32.7,104.6C32.7,104.6,32.7,104.6,32.7,104.6
		C32.7,104.6,32.7,104.6,32.7,104.6C32.7,104.6,32.7,104.6,32.7,104.6C32.7,104.6,32.7,104.6,32.7,104.6z"/>
	<polygon class="st1" points="18,115.4 18,115.4 18,115.4 	"/>
	<path class="st1" d="M18.8,113.8C18.8,113.8,18.8,113.8,18.8,113.8C18.8,113.8,18.8,113.8,18.8,113.8
		C18.8,113.8,18.8,113.8,18.8,113.8z"/>
	<path class="st1" d="M33.1,105.5C33.1,105.5,33.1,105.5,33.1,105.5c-0.1-0.1-0.1-0.1-0.1-0.2c0,0,0,0,0,0
		C33.1,105.4,33.1,105.5,33.1,105.5z"/>
	<path class="st1" d="M22.7,110.7C22.6,110.7,22.6,110.7,22.7,110.7C22.6,110.7,22.6,110.7,22.7,110.7
		C22.6,110.7,22.6,110.6,22.7,110.7z"/>
	<path class="st1" d="M29.2,106.3C29.2,106.3,29.2,106.3,29.2,106.3C29.2,106.2,29.2,106.2,29.2,106.3
		C29.2,106.3,29.2,106.3,29.2,106.3z"/>
	<path class="st1" d="M44.9,121.9C44.9,121.9,44.9,121.9,44.9,121.9C44.9,121.9,44.9,121.9,44.9,121.9
		C44.9,121.9,44.9,121.9,44.9,121.9z"/>
	<path class="st1" d="M44.6,121.6c0,0-0.1-0.1-0.1-0.1c0,0,0,0,0,0C44.5,121.5,44.6,121.5,44.6,121.6
		C44.6,121.6,44.6,121.6,44.6,121.6z"/>
	<path class="st1" d="M43.3,115.1C43.3,115,43.3,115,43.3,115.1C43.3,115,43.3,115,43.3,115.1C43.3,115,43.3,115.1,43.3,115.1z"/>
	<polygon class="st1" points="44.7,122.7 44.7,122.7 44.7,122.7 	"/>
	<path class="st1" d="M40.4,117.5C40.4,117.5,40.4,117.5,40.4,117.5c0,0-0.1-0.1-0.1-0.1C40.4,117.4,40.4,117.4,40.4,117.5
		C40.4,117.5,40.4,117.5,40.4,117.5z"/>
	<path class="st1" d="M40,116.9C40,116.9,39.9,116.9,40,116.9C39.9,116.8,39.9,116.9,40,116.9C40,116.9,40,116.9,40,116.9z"/>
	<path class="st1" d="M36.3,110.6C36.3,110.6,36.3,110.6,36.3,110.6C36.3,110.6,36.3,110.6,36.3,110.6
		C36.3,110.6,36.3,110.6,36.3,110.6C36.3,110.6,36.3,110.6,36.3,110.6z"/>
	<path class="st1" d="M32.9,104.5C32.9,104.5,32.8,104.4,32.9,104.5C32.8,104.4,32.9,104.4,32.9,104.5
		C32.9,104.4,32.9,104.5,32.9,104.5z"/>
	<path class="st1" d="M40.9,118.2C40.9,118.1,40.8,118.1,40.9,118.2C40.8,118.1,40.9,118.1,40.9,118.2
		C40.9,118.1,40.9,118.1,40.9,118.2z"/>
	<path class="st1" d="M39.6,121.5C39.6,121.5,39.6,121.4,39.6,121.5C39.6,121.4,39.6,121.4,39.6,121.5
		C39.6,121.4,39.6,121.5,39.6,121.5z"/>
	<path class="st1" d="M11.8,108.6C11.8,108.6,11.8,108.6,11.8,108.6C11.8,108.6,11.8,108.6,11.8,108.6
		C11.8,108.6,11.8,108.6,11.8,108.6z"/>
	<path class="st1" d="M12,108.6C11.9,108.6,11.9,108.6,12,108.6C11.9,108.6,11.9,108.6,12,108.6C11.9,108.6,11.9,108.6,12,108.6z"/>
	<polygon class="st1" points="7.6,102.6 7.6,102.6 7.6,102.6 	"/>
	<path class="st1" d="M11.6,107C11.6,107,11.6,107,11.6,107C11.6,107,11.6,107,11.6,107C11.6,107,11.6,107,11.6,107z"/>
	<path class="st1" d="M7,98.7C7,98.7,7,98.7,7,98.7C7,98.7,7,98.7,7,98.7C7,98.7,7,98.7,7,98.7z"/>
	<path class="st1" d="M31.1,127.7C31.1,127.8,31.1,127.8,31.1,127.7C31.1,127.8,31.1,127.8,31.1,127.7
		C31.1,127.8,31.1,127.8,31.1,127.7z"/>
	<polygon class="st1" points="33.7,130.6 33.7,130.6 33.7,130.6 	"/>
	<path class="st1" d="M34.6,131C34.6,131,34.6,131,34.6,131C34.6,131,34.6,131,34.6,131C34.5,131,34.5,131,34.6,131
		C34.6,131,34.6,131,34.6,131C34.6,131,34.6,131,34.6,131z"/>
	<path class="st1" d="M42.1,140.2C42.1,140.2,42.1,140.2,42.1,140.2C42.1,140.2,42.1,140.2,42.1,140.2
		C42.1,140.2,42.1,140.2,42.1,140.2C42.1,140.2,42.1,140.2,42.1,140.2z"/>
	<path class="st1" d="M29.4,127.4C29.4,127.4,29.4,127.4,29.4,127.4C29.4,127.4,29.5,127.4,29.4,127.4
		C29.5,127.4,29.4,127.4,29.4,127.4z"/>
	<path class="st1" d="M58.2,132.7c0,0,0.1,0,0.1,0C58.3,132.7,58.2,132.7,58.2,132.7C58.2,132.7,58.2,132.7,58.2,132.7
		C58.2,132.7,58.2,132.7,58.2,132.7z"/>
	<polygon class="st1" points="52,124.6 52,124.6 52,124.6 	"/>
	<path class="st1" d="M51.8,124.6C51.8,124.6,51.8,124.6,51.8,124.6C51.8,124.6,51.8,124.6,51.8,124.6
		C51.8,124.6,51.8,124.6,51.8,124.6z"/>
	<circle class="st1" cx="55.7" cy="123.3" r="0"/>
	<path class="st1" d="M9.4,101.1C9.5,101.1,9.5,101.1,9.4,101.1C9.5,101.1,9.5,101.1,9.4,101.1C9.5,101.1,9.5,101.1,9.4,101.1z"/>
	<path class="st1" d="M10.1,102.8C10.1,102.8,10.1,102.8,10.1,102.8C10.1,102.8,10.1,102.8,10.1,102.8
		C10.1,102.8,10.1,102.8,10.1,102.8z"/>
	<path class="st1" d="M9,99.8C9,99.8,9,99.8,9,99.8C9,99.8,9,99.8,9,99.8C9,99.8,9,99.8,9,99.8z"/>
	<path class="st1" d="M53.3,122C53.3,122,53.3,122.1,53.3,122C53.3,122.1,53.3,122,53.3,122C53.3,122,53.3,122,53.3,122z"/>
	<path class="st1" d="M25.4,83.9C25.4,83.9,25.4,83.9,25.4,83.9c-0.1,0-0.1,0-0.1,0C25.4,83.9,25.4,83.9,25.4,83.9z"/>
	<path class="st1" d="M53.3,122.1C53.3,122.1,53.3,122.1,53.3,122.1C53.3,122.1,53.3,122.1,53.3,122.1
		C53.3,122.1,53.3,122.1,53.3,122.1z"/>
	<path class="st1" d="M48.6,123.8C48.6,123.8,48.6,123.8,48.6,123.8C48.5,123.8,48.5,123.8,48.6,123.8
		C48.6,123.8,48.6,123.8,48.6,123.8z"/>
	<path class="st1" d="M17.5,123.2C17.5,123.2,17.5,123.2,17.5,123.2C17.5,123.2,17.6,123.2,17.5,123.2
		C17.6,123.2,17.6,123.2,17.5,123.2z"/>
	<path class="st1" d="M20.7,125.2C20.7,125.2,20.7,125.2,20.7,125.2C20.7,125.2,20.7,125.2,20.7,125.2
		C20.7,125.2,20.7,125.2,20.7,125.2z"/>
	<path class="st1" d="M21.2,120.6C21.2,120.6,21.2,120.7,21.2,120.6C21.2,120.7,21.2,120.7,21.2,120.6
		C21.2,120.7,21.2,120.7,21.2,120.6z"/>
	<polygon class="st1" points="20.6,121.4 20.6,121.4 20.6,121.4 20.6,121.4 	"/>
	<path class="st1" d="M41,126.6C41,126.6,41,126.6,41,126.6C41,126.6,41,126.6,41,126.6C41,126.6,41,126.6,41,126.6z"/>
	<path class="st1" d="M48.5,124C48.5,124,48.5,124,48.5,124C48.5,124,48.5,124,48.5,124C48.5,124,48.5,124,48.5,124z"/>
	<path class="st1" d="M18.4,80.7C18.4,80.7,18.4,80.7,18.4,80.7L18.4,80.7c0.1,0,0.2,0,0.3,0C18.5,80.7,18.4,80.8,18.4,80.7
		C18.4,80.8,18.4,80.8,18.4,80.7z"/>
	<path class="st1" d="M54.2,121.1C54.2,121.1,54.1,121.1,54.2,121.1C54.1,121.1,54.1,121.1,54.2,121.1
		C54.1,121.1,54.2,121,54.2,121.1C54.2,121,54.2,121.1,54.2,121.1z"/>
	<path class="st1" d="M46.5,118.4C46.5,118.4,46.5,118.4,46.5,118.4C46.5,118.4,46.5,118.4,46.5,118.4
		C46.5,118.4,46.5,118.4,46.5,118.4z"/>
	<path class="st1" d="M41.7,104.4c0,0-0.1-0.1-0.1-0.1c0,0,0,0,0,0C41.6,104.3,41.7,104.3,41.7,104.4z"/>
	<path class="st1" d="M39.4,104.2C39.4,104.2,39.3,104.2,39.4,104.2C39.4,104.2,39.4,104.2,39.4,104.2
		C39.4,104.2,39.4,104.2,39.4,104.2z"/>
	<path class="st1" d="M48.8,122.2C48.8,122.2,48.8,122.2,48.8,122.2L48.8,122.2C48.8,122.2,48.8,122.2,48.8,122.2
		C48.8,122.2,48.8,122.2,48.8,122.2C48.8,122.2,48.8,122.2,48.8,122.2C48.8,122.2,48.8,122.2,48.8,122.2z"/>
	<polygon class="st1" points="39.7,103.1 39.7,103.1 39.7,103.1 	"/>
	<path class="st1" d="M39.9,103.8C39.9,103.8,39.9,103.8,39.9,103.8C39.9,103.8,39.9,103.7,39.9,103.8
		C39.9,103.8,39.9,103.8,39.9,103.8z"/>
	<path class="st1" d="M41.2,126.9c0,0,0,0.1,0,0.1c0,0,0,0,0,0C41.2,127,41.2,126.9,41.2,126.9C41.2,126.9,41.2,126.9,41.2,126.9z"
		/>
	<path class="st1" d="M44.3,125.2C44.3,125.2,44.3,125.2,44.3,125.2C44.3,125.2,44.3,125.2,44.3,125.2
		C44.3,125.2,44.3,125.2,44.3,125.2z"/>
	<path class="st1" d="M41.2,126.8C41.2,126.8,41.2,126.8,41.2,126.8C41.2,126.8,41.2,126.8,41.2,126.8
		C41.2,126.8,41.2,126.8,41.2,126.8z"/>
	<path class="st1" d="M45.2,124.9C45.2,124.9,45.2,124.9,45.2,124.9C45.2,124.9,45.2,124.9,45.2,124.9
		C45.2,124.9,45.2,124.9,45.2,124.9z"/>
	<polygon class="st1" points="45,125.1 45,125.1 45,125.1 	"/>
	<path class="st1" d="M26.8,83.5c0.1,0,0.1,0,0.1,0c0,0,0,0,0,0c0,0,0,0,0,0c0,0,0,0,0,0c0,0,0,0,0,0C26.9,83.6,26.8,83.6,26.8,83.5
		C26.7,83.5,26.7,83.5,26.8,83.5C26.7,83.5,26.7,83.5,26.8,83.5z"/>
	<path class="st1" d="M43.5,125.9C43.5,125.9,43.5,125.9,43.5,125.9C43.5,125.9,43.6,125.9,43.5,125.9
		C43.6,125.9,43.6,125.9,43.5,125.9z"/>
	<polygon class="st1" points="43.9,125.4 43.9,125.4 43.9,125.4 	"/>
	<path class="st5" d="M27,83.6C27,83.6,27,83.6,27,83.6C27,83.6,27,83.6,27,83.6C27,83.6,26.9,83.6,27,83.6c-0.1,0-0.1,0-0.1,0
		c0,0-0.1,0-0.1,0c0,0,0,0,0,0c0,0,0,0,0,0C26.8,83.6,26.9,83.6,27,83.6z"/>
	<path class="st5" d="M25.4,83.9c0,0-0.1,0-0.1,0C25.3,83.9,25.3,83.9,25.4,83.9C25.4,83.9,25.4,83.9,25.4,83.9z"/>
	<path class="st5" d="M9,99.8C9,99.8,9,99.8,9,99.8C9,99.8,9,99.8,9,99.8C9,99.8,9,99.8,9,99.8z"/>
	<path class="st5" d="M9.8,99.6C9.8,99.6,9.8,99.7,9.8,99.6C9.8,99.6,9.8,99.6,9.8,99.6C9.8,99.6,9.8,99.6,9.8,99.6z"/>
	<path class="st5" d="M10,97.5C10,97.5,10,97.5,10,97.5C10,97.5,10,97.5,10,97.5C10,97.5,10,97.5,10,97.5z"/>
	<path class="st5" d="M11.2,95C11.3,95,11.3,95,11.2,95C11.3,95,11.3,95,11.2,95C11.3,95,11.3,95,11.2,95C11.2,95,11.2,95,11.2,95z"
		/>
	<path class="st5" d="M20.9,107.9C20.9,107.9,20.9,107.9,20.9,107.9C20.9,107.9,20.9,107.9,20.9,107.9
		C20.9,107.9,20.9,107.9,20.9,107.9z"/>
	<polygon class="st5" points="26.4,103.7 26.4,103.7 26.4,103.7 	"/>
	<polygon class="st5" points="18.4,84.7 18.4,84.7 18.4,84.7 	"/>
	<path class="st5" d="M25.2,92.7c0.2,0.3,0.4,0.6,0.7,1C25.6,93.3,25.4,93,25.2,92.7z"/>
	<path class="st5" d="M11.4,90.9C11.4,90.9,11.4,90.9,11.4,90.9C11.4,90.9,11.4,90.9,11.4,90.9C11.4,90.9,11.4,90.9,11.4,90.9z"/>
	<path class="st5" d="M19,96.8C19,96.8,19,96.8,19,96.8C19,96.8,19,96.8,19,96.8C19,96.8,19,96.8,19,96.8z"/>
	<polygon class="st5" points="33.2,101.4 33.2,101.4 33.2,101.4 	"/>
	<path class="st5" d="M36.7,100.3C36.7,100.3,36.7,100.3,36.7,100.3C36.7,100.4,36.7,100.3,36.7,100.3
		C36.7,100.3,36.7,100.3,36.7,100.3z"/>
	<path class="st5" d="M32.2,89.7c-0.1-0.1-0.1-0.1-0.2-0.2C32,89.6,32.1,89.6,32.2,89.7C32.1,89.7,32.1,89.7,32.2,89.7z"/>
	<path class="st5" d="M36.5,94.2c0,0,0.1,0,0.1,0.1c0,0,0,0,0,0C36.5,94.3,36.5,94.2,36.5,94.2z"/>
	<path class="st5" d="M47.9,109.7C47.9,109.7,47.9,109.7,47.9,109.7C47.9,109.7,47.9,109.7,47.9,109.7
		C47.9,109.7,47.9,109.7,47.9,109.7z"/>
	<path class="st5" d="M54.2,118.6C54.2,118.6,54.2,118.6,54.2,118.6C54.2,118.6,54.2,118.6,54.2,118.6
		C54.2,118.6,54.2,118.6,54.2,118.6z"/>
	<path class="st5" d="M54.6,114c0-0.1,0-0.1,0.1-0.2c0,0,0,0,0,0C54.7,113.8,54.7,113.9,54.6,114C54.6,114,54.6,114,54.6,114z"/>
	<polygon class="st5" points="54.5,115 54.5,115 54.5,115 	"/>
	<path class="st5" d="M54.5,115C54.5,115,54.5,115,54.5,115C54.5,115,54.5,115,54.5,115C54.5,115,54.5,115,54.5,115z"/>
	<path class="st5" d="M52.5,113.1C52.5,113.1,52.5,113.1,52.5,113.1C52.5,113.1,52.5,113.1,52.5,113.1
		C52.5,113.1,52.5,113.1,52.5,113.1z"/>
	<path class="st5" d="M57.1,124.5c-0.1-0.1-0.2-0.1-0.3-0.2C56.9,124.4,57,124.5,57.1,124.5C57.1,124.6,57.1,124.5,57.1,124.5z"/>
	<path class="st5" d="M58.3,127.8C58.3,127.8,58.3,127.8,58.3,127.8C58.3,127.8,58.3,127.8,58.3,127.8
		C58.3,127.8,58.3,127.8,58.3,127.8z"/>
	<path class="st5" d="M56.6,122.3C56.5,122.3,56.6,122.3,56.6,122.3C56.6,122.3,56.6,122.3,56.6,122.3
		C56.6,122.3,56.6,122.3,56.6,122.3C56.6,122.3,56.6,122.3,56.6,122.3z"/>
	<path class="st5" d="M57.2,123.3C57.2,123.3,57.2,123.3,57.2,123.3C57.2,123.3,57.2,123.3,57.2,123.3
		C57.2,123.3,57.2,123.3,57.2,123.3z"/>
	<path class="st5" d="M59.5,127.8C59.5,127.8,59.5,127.8,59.5,127.8C59.5,127.8,59.5,127.8,59.5,127.8
		C59.5,127.8,59.5,127.8,59.5,127.8C59.5,127.8,59.5,127.8,59.5,127.8z"/>
	<path class="st5" d="M59.1,135.2C59.1,135.2,59.1,135.2,59.1,135.2C59.1,135.2,59.1,135.2,59.1,135.2
		C59.1,135.2,59.1,135.2,59.1,135.2z"/>
	<path class="st5" d="M58.8,135.1C58.8,135.1,58.8,135.1,58.8,135.1C58.8,135.1,58.8,135.1,58.8,135.1
		C58.8,135.1,58.8,135.1,58.8,135.1z"/>
	<path class="st5" d="M59.6,137.9C59.6,137.9,59.6,137.9,59.6,137.9C59.6,137.9,59.6,137.9,59.6,137.9
		C59.6,137.9,59.6,137.9,59.6,137.9z"/>
	<path class="st5" d="M58.5,135.6C58.5,135.6,58.5,135.6,58.5,135.6C58.5,135.5,58.5,135.5,58.5,135.6
		C58.5,135.5,58.5,135.6,58.5,135.6z"/>
	<path class="st5" d="M57.7,134C57.6,134,57.6,134,57.7,134C57.6,134,57.6,134,57.7,134z"/>
	<path class="st5" d="M58.7,142.2C58.7,142.2,58.7,142.2,58.7,142.2C58.7,142.2,58.7,142.2,58.7,142.2
		C58.7,142.2,58.7,142.2,58.7,142.2z"/>
	<path class="st5" d="M55.2,146.2C55.2,146.2,55.2,146.1,55.2,146.2C55.2,146.1,55.2,146.1,55.2,146.2
		C55.2,146.1,55.2,146.2,55.2,146.2z"/>
	<path class="st5" d="M56.8,133.8C56.8,133.8,56.8,133.8,56.8,133.8C56.8,133.8,56.8,133.8,56.8,133.8
		C56.8,133.8,56.8,133.8,56.8,133.8z"/>
	<path class="st5" d="M55.4,132.4C55.4,132.3,55.4,132.3,55.4,132.4C55.4,132.3,55.4,132.3,55.4,132.4
		C55.4,132.4,55.4,132.4,55.4,132.4z"/>
	<path class="st5" d="M56.2,135C56.1,135,56.1,135,56.2,135C56.1,135,56.1,135,56.2,135C56.1,135,56.2,135,56.2,135z"/>
	<path class="st5" d="M55.4,133.4C55.4,133.4,55.4,133.4,55.4,133.4C55.4,133.4,55.4,133.4,55.4,133.4
		C55.4,133.4,55.4,133.4,55.4,133.4z"/>
	<path class="st5" d="M46,135.8C46,135.8,46,135.8,46,135.8C46,135.8,46,135.8,46,135.8C46,135.8,46,135.8,46,135.8z"/>
	<polygon class="st5" points="49,146.6 49.1,146.6 49.1,146.6 	"/>
	<path class="st5" d="M54.7,146.1C54.7,146.1,54.7,146.1,54.7,146.1C54.7,146.1,54.7,146.1,54.7,146.1
		C54.7,146.1,54.7,146.1,54.7,146.1C54.7,146.1,54.7,146.1,54.7,146.1z"/>
	<path class="st5" d="M45.1,141.7C45.1,141.7,45.1,141.7,45.1,141.7C45.1,141.7,45.1,141.7,45.1,141.7
		C45.1,141.7,45.1,141.7,45.1,141.7z"/>
	<path class="st5" d="M41.4,144.7C41.4,144.7,41.5,144.7,41.4,144.7C41.5,144.7,41.5,144.7,41.4,144.7
		C41.5,144.7,41.5,144.7,41.4,144.7z"/>
	<path class="st5" d="M36,139C36,139,36,139,36,139C36,139,36,139,36,139C36,139,36,139,36,139z"/>
	<path class="st5" d="M21.2,120.6C21.2,120.6,21.2,120.6,21.2,120.6c0-0.1,0-0.1,0-0.1c0,0,0,0,0,0
		C21.2,120.5,21.2,120.5,21.2,120.6z"/>
	<polygon class="st5" points="20.8,117.7 20.8,117.7 20.8,117.7 	"/>
	<polygon class="st5" points="24.3,127.2 24.3,127.2 24.3,127.2 	"/>
	<path class="st5" d="M22.6,117.3C22.6,117.3,22.7,117.3,22.6,117.3C22.7,117.3,22.7,117.3,22.6,117.3
		C22.7,117.3,22.6,117.3,22.6,117.3z"/>
	<path class="st5" d="M24.3,118.5C24.3,118.5,24.3,118.5,24.3,118.5C24.3,118.5,24.3,118.5,24.3,118.5
		C24.3,118.5,24.3,118.5,24.3,118.5z"/>
	<path class="st5" d="M48.2,151.6c0,0-0.1,0-0.1,0C48.1,151.6,48.1,151.6,48.2,151.6C48.1,151.6,48.1,151.6,48.2,151.6
		C48.1,151.6,48.2,151.6,48.2,151.6z"/>
	<path class="st5" d="M47.3,152.4C47.3,152.4,47.3,152.4,47.3,152.4C47.3,152.4,47.3,152.4,47.3,152.4
		C47.3,152.4,47.3,152.4,47.3,152.4z"/>
	<path class="st5" d="M21.2,120.6C21.2,120.7,21.2,120.7,21.2,120.6C21.2,120.7,21.2,120.7,21.2,120.6
		C21.2,120.7,21.2,120.6,21.2,120.6z"/>
	<polygon class="st5" points="20.6,121.4 20.6,121.4 20.6,121.4 20.6,121.4 	"/>
	<path class="st5" d="M20.7,125.2C20.7,125.2,20.7,125.2,20.7,125.2C20.7,125.2,20.7,125.2,20.7,125.2
		C20.7,125.2,20.7,125.2,20.7,125.2z"/>
	<path class="st5" d="M17.5,123.2C17.6,123.2,17.6,123.2,17.5,123.2C17.6,123.2,17.5,123.2,17.5,123.2
		C17.5,123.2,17.5,123.2,17.5,123.2z"/>
	<path class="st5" d="M18.8,113.8C18.8,113.8,18.8,113.8,18.8,113.8C18.8,113.8,18.8,113.8,18.8,113.8
		C18.8,113.8,18.8,113.8,18.8,113.8z"/>
	<polygon class="st5" points="18,115.4 18,115.4 18,115.4 	"/>
	<polygon class="st5" points="28.5,126.6 28.5,126.6 28.5,126.6 	"/>
	<path class="st5" d="M29.4,127.4C29.4,127.4,29.5,127.4,29.4,127.4C29.5,127.4,29.4,127.4,29.4,127.4
		C29.4,127.4,29.4,127.4,29.4,127.4z"/>
	<path class="st5" d="M31.1,127.7C31.1,127.8,31.1,127.8,31.1,127.7C31.1,127.8,31.1,127.8,31.1,127.7
		C31.1,127.8,31.1,127.8,31.1,127.7z"/>
	<polygon class="st5" points="33.7,130.6 33.7,130.6 33.7,130.6 	"/>
	<path class="st5" d="M34.5,131C34.6,131,34.6,131,34.5,131C34.6,131,34.6,131,34.5,131c0.1,0,0.1,0,0.1,0
		C34.6,131,34.6,131,34.5,131C34.5,131,34.5,131,34.5,131z"/>
	<path class="st5" d="M42.1,140.2C42.1,140.2,42.1,140.2,42.1,140.2C42.1,140.2,42.1,140.2,42.1,140.2
		C42.1,140.2,42.1,140.2,42.1,140.2C42.1,140.2,42.1,140.2,42.1,140.2z"/>
	<path class="st5" d="M58.3,132.7c0,0-0.1,0-0.1,0c0,0,0,0,0,0c0,0,0,0,0,0C58.2,132.7,58.3,132.7,58.3,132.7z"/>
	<ellipse transform="matrix(0.5093 -0.8606 0.8606 0.5093 -78.7234 108.4326)" class="st5" cx="55.7" cy="123.3" rx="0" ry="0"/>
	<polygon class="st5" points="52,124.6 52,124.6 52,124.6 	"/>
	<path class="st5" d="M51.8,124.6C51.8,124.6,51.8,124.6,51.8,124.6C51.8,124.6,51.8,124.6,51.8,124.6
		C51.8,124.6,51.8,124.6,51.8,124.6z"/>
	<path class="st5" d="M11.6,107C11.6,107,11.6,107,11.6,107C11.6,107,11.6,107,11.6,107C11.6,107,11.6,107,11.6,107z"/>
	<path class="st5" d="M12,108.6C11.9,108.6,11.9,108.6,12,108.6C11.9,108.6,11.9,108.6,12,108.6C11.9,108.6,11.9,108.6,12,108.6z"/>
	<path class="st5" d="M7,98.7C7,98.7,7,98.7,7,98.7C7,98.7,7,98.7,7,98.7C7,98.7,7,98.7,7,98.7z"/>
	<polygon class="st5" points="7.6,102.6 7.6,102.6 7.6,102.6 	"/>
	<path class="st5" d="M21.9,110.7c0,0.1,0,0.2,0.1,0.3c0,0.1,0.1,0.1,0.1,0c0.1,0.1,0.1,0.3,0.2,0.4c0.7,1.6,1.9,2.8,2.9,4.3
		c1.2,1.7,2.3,3.5,3.4,5.2c1.1,1.7,2.2,3.4,3.4,5c0.8,1.2,1.7,2.4,2.7,3.5c0.1,0.2,0.3,0.4,0.5,0.5c0.1,0,0.2,0,0.2,0
		c0,0,0.1,0,0.2,0c0,0,0.1,0,0.1,0c0,0,0,0,0,0c0.1,0,0.2-0.1,0.3-0.2c0.2-0.1,0.4-0.3,0.4-0.6c0,0,0.1-0.1,0-0.2c0,0,0,0,0,0
		c0,0,0,0,0-0.1c-0.1-0.3-0.3-0.5-0.4-0.8c0-0.1-0.1-0.1-0.1-0.2c-1-1.5-2.2-2.9-3.3-4.4c-2.6-3.6-5.1-7.3-7.3-11.1
		c-0.2-0.4-0.4-0.8-0.7-1.1c0-0.1-0.1-0.1-0.1-0.2c-0.3-0.7-0.7-1.5-1.3-2c0.1-0.2,0.3-0.3,0.4-0.5c0,0,0,0,0.1-0.1
		c0.2-0.1,0.5-0.3,0.7-0.4c0,0,0,0,0.1,0c0-0.1,0.1-0.1,0.1-0.1c0.1,0,0.1-0.1,0.1-0.1c0.2-0.1,0.4-0.3,0.6-0.5
		c0.1,0.1,0.2,0.2,0.3,0.3c0,0.1,0.1,0.2,0.2,0.3c0.3,0.4,0.6,0.8,0.9,1.2c0,0,0,0,0,0c2,3,4,5.9,6,8.9c1.1,1.7,2.3,3.4,3.4,5.1
		c0.5,0.8,1,1.7,1.6,2.5c0.3,0.5,0.6,1.1,1.1,1.3c0.6,0.4,1.3-0.2,1.2-0.8c0-0.1,0-0.1,0-0.2c-0.4-0.6-0.9-1.1-1.4-1.6
		c-0.6-0.8-1.1-1.6-1.6-2.4c-1.4-2.1-2.7-4.2-4.1-6.2c-1.3-2-2.7-4.1-4-6.1c-0.3-0.5-0.7-1.1-1.1-1.7c0,0,0-0.1-0.1-0.1
		c-0.1-0.3-0.3-0.5-0.4-0.8c0,0,0,0,0,0c0,0,0,0,0,0c-0.1-0.2-0.2-0.3-0.4-0.5c0.4-0.2,0.7-0.4,1.1-0.6c0.1,0,0.1-0.1,0.2-0.1
		c0.3,0.5,0.6,0.9,1,1.3c0.5,0.8,1.3,1.6,1.8,2.3c1.2,1.6,2.3,3.2,3.4,4.9c1.2,1.7,2.3,3.5,3.6,5.2c0.6,0.9,1.4,1.8,2.1,2.6
		c0.2,0.4,0.5,0.8,0.7,1.2c0.3,0.4,0.5,0.9,0.9,1.2c0.2,0.2,0.5,0.2,0.7,0.2c0.1,0,0.2,0,0.3,0c0,0,0,0,0,0c0.3,0.1,0.6-0.3,0.6-0.6
		c0-0.1,0-0.1,0-0.2c0,0,0,0,0-0.1c0,0,0,0,0-0.1c0-0.1-0.1-0.1-0.2-0.2c-0.3-0.3-0.5-0.7-0.8-1.1c0,0,0,0-0.1-0.1
		c-0.5-0.9-1.2-1.8-1.9-2.7c-1.2-1.6-2.5-3.3-3.7-5c-2.2-3-4-6.4-6.4-9.2c0-0.1-0.1-0.1-0.1-0.2c0,0,0-0.1-0.1-0.1c0,0,0,0,0,0
		c0,0-0.1-0.1-0.1-0.2c0,0,0-0.1,0-0.1c0,0,0-0.1-0.1-0.1c0,0,0.1,0,0.1,0c0.2-0.1,0.4-0.1,0.5-0.2c0,0,0,0,0,0
		c0.1,0,0.3-0.1,0.4-0.1c0,0,0,0,0,0c0.1,0,0.2-0.1,0.3-0.1c0.3,0.6,0.7,1.1,1.1,1.6c0.6,1,1.4,1.9,2,2.8c1.1,1.5,2,3.1,3.2,4.5
		c0.2,0.2,0.4,0.5,0.6,0.7c0.1,0.2,0.3,0.4,0.5,0.6c0.9,1.1,1.7,2.2,2.5,3.4c0.7,1.1,1.4,2.3,2.3,3.3c0.2,0.3,0.3,0.5,0.5,0.8
		c0.2,0.3,0.4,0.6,0.7,0.9c0.2,0.3,0.6,0.4,1,0.3c0,0,0.1,0,0.1,0c0.2-0.1,0.3-0.1,0.4-0.3c0.1,0,0.1-0.1,0.2-0.1
		c0.1-0.2,0.1-0.4,0-0.5c-0.1-0.3-0.3-0.5-0.5-0.6c-0.5-0.7-1-1.3-1.5-1.9c-0.2-0.3-0.4-0.5-0.6-0.8c-0.4-0.6-0.8-1.3-1.2-1.9
		c-1-1.7-2.3-3.2-3.6-4.8c-1.2-1.5-2.2-3.2-3.4-4.7c-0.7-1-1.5-1.9-2.2-3c0,0,0,0,0-0.1c-0.1-0.1-0.1-0.3-0.2-0.4
		c0.4-0.5,1.2-0.3,1.8-0.4c0.3,0.2,0.5,0.5,0.8,0.8c4.1,5.7,8.1,11.6,12.4,17.1c0,0,0,0,0,0c0.1,0.2,0.3,0.3,0.4,0.4
		c0,0,0.1,0.1,0.1,0.1c0.2,0.3,0.7,0.3,0.9,0c0,0,0.1-0.1,0.1-0.1c0.2-0.2,0.1-0.5,0-0.7c-0.1-0.2-0.3-0.4-0.5-0.6
		c-0.1-0.1-0.1-0.2-0.2-0.3c-1.1-1.8-2.4-3.4-3.7-5.1c-0.5-1-1.4-1.8-2.1-2.6c-0.2-0.3-0.4-0.5-0.6-0.8c-0.1-0.2-0.3-0.4-0.4-0.6
		c-1.2-1.6-2.3-3.4-3.4-5.1c-0.4-0.6-0.8-1.2-1.2-1.8c-0.2-0.3-0.3-0.5-0.5-0.8c0-0.1-0.1-0.1-0.1-0.2c0,0,0,0,0,0c0,0,0,0,0,0
		c0,0,0,0,0,0c-0.1-0.1-0.1-0.2-0.2-0.3c0-0.1-0.1-0.1-0.1-0.2c0.1,0,0.2,0,0.3-0.1c0.3,0,0.5-0.1,0.7-0.1c0.2,0,0.4-0.1,0.6-0.1
		c1.7,2.2,3.3,4.4,4.8,6.6c1.5,2.1,2.8,4.5,4.5,6.5c1,1.1,1.8,2.4,2.7,3.6c0.3,0.4,0.6,1,1,1.4c0.2,0.3,0.5,0.5,0.8,0.6
		c0.2,0,0.3,0,0.4-0.1c0,0,0,0,0,0c0.1,0,0.2-0.1,0.1-0.3c0,0,0,0,0,0c0,0,0,0,0,0c0-0.1,0-0.2-0.1-0.3c0-0.1,0-0.1,0-0.2
		c-0.8-1.6-2-2.8-3.1-4c-0.1-0.1-0.1-0.1-0.2-0.2c-0.7-0.9-1.3-1.7-2-2.6c-0.5-0.7-1-1.5-1.5-2.2c-1.3-2-2.7-4-4.2-5.9
		c-0.1-0.1-0.2-0.2-0.2-0.4c0,0-0.1-0.1-0.1-0.1c0,0,0-0.1,0-0.1c-0.1-0.1-0.2-0.2-0.2-0.2c-0.5-0.7-0.9-1.5-1.2-2.2
		c0.1,0,0.2,0,0.2-0.1c0.2,0.3,0.5,0.6,0.7,0.9c0.5,1,1.7,1.8,2.3,2.6c1.1,1.6,2.3,3.2,3.5,4.7c1.3,1.8,2.6,3.7,3.9,5.5
		c1.1,1.5,2.4,2.9,3.3,4.6c0.1,0.1,0.2,0.1,0.3,0.1c0,0,0,0,0,0c0.1,0,0.3,0,0.4-0.1c0,0,0,0,0,0c0,0,0,0,0,0
		c0.4-0.4-0.7-1.6-0.9-1.9c-0.8-1.1-1.6-2.1-2.4-3.1c-1.8-2.3-3.3-4.8-5-7.2c-0.9-1.1-1.6-2.3-2.4-3.5c-0.3-0.4-0.7-0.8-1.1-1.3
		c-0.3-0.6-0.6-1.2-1-1.7c-0.1-0.2-0.2-0.4-0.3-0.6c-0.1-0.1-0.2-0.1-0.3,0c-0.3,0-0.5,0.1-0.8,0.1c0,0,0,0,0,0c0,0-0.1,0-0.1,0
		c-2.3,0.4-4.5,0.9-6.7,1.6c-0.1,0-0.2,0-0.2,0.1c-0.1,0-0.2,0-0.2,0.1c-0.1,0-0.2,0.1-0.3,0.1c0,0,0,0,0,0
		c-1.4,0.4-2.8,0.8-4.1,1.4c-1.6,0.6-3.3,1.5-4.7,2.6c-0.6,0.5-1.6,1.3-1.8,2.1C21.9,110.3,21.8,110.5,21.9,110.7
		C21.8,110.7,21.9,110.7,21.9,110.7z M54.1,121.1C54.1,121.1,54.2,121,54.1,121.1C54.2,121,54.2,121.1,54.1,121.1
		C54.2,121.1,54.1,121.1,54.1,121.1C54.1,121.1,54.1,121.1,54.1,121.1z M41.6,104.3C41.6,104.3,41.6,104.3,41.6,104.3
		c0,0,0.1,0.1,0.1,0.1C41.6,104.3,41.6,104.3,41.6,104.3z M39.9,103.8C39.9,103.8,39.9,103.7,39.9,103.8
		C39.9,103.8,39.9,103.8,39.9,103.8C39.9,103.8,39.9,103.8,39.9,103.8z M39.7,103.1C39.7,103.1,39.7,103.1,39.7,103.1
		C39.7,103.1,39.7,103.1,39.7,103.1L39.7,103.1z M39.3,104.2C39.4,104.2,39.4,104.2,39.3,104.2C39.4,104.2,39.4,104.2,39.3,104.2
		C39.4,104.2,39.3,104.2,39.3,104.2z M48.8,122.2C48.8,122.2,48.8,122.2,48.8,122.2C48.8,122.2,48.8,122.2,48.8,122.2
		C48.8,122.2,48.8,122.2,48.8,122.2L48.8,122.2C48.8,122.2,48.8,122.2,48.8,122.2C48.8,122.2,48.8,122.2,48.8,122.2z M46.5,118.4
		C46.5,118.4,46.5,118.4,46.5,118.4C46.5,118.4,46.5,118.4,46.5,118.4C46.5,118.4,46.5,118.4,46.5,118.4z M43.5,115.4
		C43.5,115.4,43.5,115.4,43.5,115.4C43.5,115.4,43.6,115.4,43.5,115.4C43.6,115.4,43.5,115.4,43.5,115.4z M43.3,115
		C43.3,115,43.3,115,43.3,115C43.3,115,43.3,115.1,43.3,115C43.3,115,43.3,115,43.3,115z M44.9,121.9
		C44.9,121.9,44.9,121.9,44.9,121.9C44.9,121.9,44.9,121.9,44.9,121.9C44.9,121.9,44.9,121.9,44.9,121.9z M44.5,121.4
		c0,0.1,0.1,0.1,0.1,0.2c0,0,0,0,0,0C44.6,121.5,44.5,121.5,44.5,121.4C44.5,121.4,44.5,121.4,44.5,121.4z M44.7,122.7
		C44.7,122.7,44.7,122.7,44.7,122.7C44.7,122.7,44.7,122.7,44.7,122.7C44.7,122.7,44.7,122.7,44.7,122.7z M40.8,118.1
		C40.8,118.1,40.9,118.1,40.8,118.1C40.9,118.1,40.9,118.1,40.8,118.1C40.9,118.1,40.8,118.1,40.8,118.1z M40.3,117.4
		C40.4,117.4,40.4,117.4,40.3,117.4c0.1,0.1,0.1,0.1,0.1,0.1c0,0,0,0,0,0C40.4,117.5,40.4,117.4,40.3,117.4z M39.9,116.8
		C39.9,116.8,39.9,116.9,39.9,116.8C40,116.9,40,116.9,39.9,116.8C40,116.9,39.9,116.9,39.9,116.8z M36.3,110.6
		C36.3,110.6,36.3,110.6,36.3,110.6C36.3,110.6,36.3,110.6,36.3,110.6C36.3,110.6,36.3,110.6,36.3,110.6
		C36.3,110.6,36.3,110.6,36.3,110.6z M32.8,104.4C32.8,104.4,32.9,104.4,32.8,104.4C32.9,104.4,32.9,104.5,32.8,104.4
		C32.9,104.5,32.8,104.4,32.8,104.4z M33,105.3C33,105.3,33,105.3,33,105.3c0,0.1,0.1,0.1,0.1,0.2c0,0,0,0,0,0
		C33.1,105.4,33,105.4,33,105.3z M32.7,104.6C32.7,104.6,32.7,104.6,32.7,104.6C32.7,104.6,32.7,104.6,32.7,104.6
		C32.7,104.6,32.7,104.6,32.7,104.6C32.7,104.6,32.7,104.6,32.7,104.6C32.7,104.6,32.7,104.6,32.7,104.6z M39.6,121.4
		C39.6,121.4,39.6,121.4,39.6,121.4C39.6,121.4,39.6,121.5,39.6,121.4C39.6,121.5,39.6,121.4,39.6,121.4z M33.5,112
		c0,0.1,0.1,0.1,0.1,0.2c0,0,0,0,0,0C33.5,112.2,33.5,112.1,33.5,112z M29.1,106.2C29.2,106.2,29.2,106.2,29.1,106.2
		C29.2,106.3,29.2,106.3,29.1,106.2C29.2,106.3,29.2,106.3,29.1,106.2z M36.4,123.1C36.4,123.1,36.4,123.1,36.4,123.1
		c0.1,0.1,0.2,0.2,0.2,0.3C36.5,123.3,36.5,123.2,36.4,123.1z M22.6,110.7C22.6,110.7,22.6,110.7,22.6,110.7
		C22.6,110.7,22.6,110.6,22.6,110.7C22.6,110.7,22.6,110.7,22.6,110.7z"/>
	<path class="st5" d="M32,86.2C32,86.2,32,86.2,32,86.2C32,86.2,32,86.2,32,86.2z"/>
	<path class="st5" d="M40.3,101.2c-3.3,0.7-6.6,1.3-9.7,2.5c-3.1,1.2-6.1,2.7-8.5,5c0,0-0.1,0-0.1,0c1.9-2.4,5.1-3.8,7.9-5
		C33.1,102.2,36.7,101.5,40.3,101.2C40.3,101.1,40.3,101.2,40.3,101.2z"/>
	<path class="st5" d="M34.2,102.8C34.1,102.8,34.1,102.8,34.2,102.8C34.2,102.7,34.2,102.8,34.2,102.8z"/>
	<path class="st5" d="M52.7,122.6C52.7,122.6,52.7,122.7,52.7,122.6c0.2,0,0.3-0.1,0.4-0.3c0,0,0,0,0,0c0-0.1,0.1-0.1,0.2-0.1
		c0,0,0.1,0,0.1,0c0,0,0,0,0,0c0,0,0.1,0,0.1,0c0,0,0.1,0,0.1,0c0.1,0,0.3,0.1,0.4,0.1c0,0,0,0,0,0c0.1,0,0.2,0,0.2,0
		c0,0,0-0.1,0-0.1c-0.1,0-0.1,0-0.2,0c0,0,0,0,0,0c0,0,0,0,0,0c0,0,0.1,0,0.1,0c0.2,0,0.5-0.1,0.6-0.3c0,0,0,0,0,0c0,0,0-0.1,0,0
		c-0.4,0.2-0.7,0.1-1,0c0,0-0.1-0.1-0.1-0.1c-0.2-0.3-0.4-0.5-0.6-0.8c-0.2-0.4-0.5-0.8-0.8-1.1c0,0,0,0,0,0
		c-0.3-0.5-0.6-0.9-0.9-1.4c0-0.1-0.1,0-0.1,0.1c0.4,0.7,0.8,1.4,1.3,2.1c0.2,0.3,0.4,0.6,0.6,0.8c0,0.3,0,0.5-0.1,0.7
		c0,0.1-0.1,0.1-0.1,0.2C52.9,122.5,52.9,122.5,52.7,122.6z M53.3,122.1C53.3,122.1,53.3,122,53.3,122.1
		C53.3,122,53.3,122,53.3,122.1C53.3,122,53.3,122.1,53.3,122.1z M53.3,122.1C53.3,122.1,53.3,122.1,53.3,122.1
		C53.3,122.1,53.3,122.1,53.3,122.1C53.3,122.1,53.3,122.1,53.3,122.1z"/>
	<path class="st5" d="M42.2,126c0.3,0.1,0.7,0.1,1.1-0.1c0,0,0,0,0,0l0,0c0,0,0,0,0,0c0,0,0,0,0.1,0c0,0-0.1,0.1-0.1,0.1
		c0,0,0,0.1,0,0c0.1,0,0.1-0.1,0.2-0.1c0,0,0,0,0,0c0.2-0.1,0.3-0.2,0.4-0.3c0,0,0-0.1,0.1-0.1c0.3-0.2,0.7-0.4,1.2-0.4
		c0.1,0,0.2,0,0.2,0c0,0,0,0,0,0c0,0,0,0,0,0c-0.1,0-0.2,0-0.2-0.1c0,0-0.1-0.1,0-0.1c0,0,0.1-0.1,0.1-0.1c0.1,0,0.2,0,0.2-0.1
		c0,0,0,0,0,0c0.1,0,0.2-0.1,0.3-0.1c0,0,0-0.1,0,0c-0.2,0.1-0.4,0.1-0.6,0.1c-0.4-0.1-0.8-0.3-1.1-0.5c-0.1,0-0.1-0.1-0.1-0.1
		c-0.6-0.9-1.3-1.7-2-2.5c0,0,0,0,0,0c-0.2-0.3-0.4-0.6-0.6-0.8c0,0-0.1,0-0.1,0c0.1,0.6,0.5,1.2,0.9,1.7c0.3,0.4,0.6,0.8,1,1.2
		c0.2,0.3,0.4,0.5,0.6,0.7c0.1,0.2,0.1,0.3,0.1,0.5C43.8,125.7,42.9,126,42.2,126C42.2,126,42.2,126,42.2,126z M45.2,124.9
		C45.2,124.9,45.2,124.9,45.2,124.9C45.2,124.9,45.2,124.9,45.2,124.9C45.2,124.9,45.2,124.9,45.2,124.9z M45,125.1
		C45,125.1,45,125.1,45,125.1L45,125.1C45,125.1,45,125.1,45,125.1z M44.3,125.2C44.3,125.2,44.3,125.2,44.3,125.2
		C44.3,125.2,44.3,125.2,44.3,125.2C44.3,125.2,44.3,125.2,44.3,125.2z M43.9,125.4C43.9,125.4,43.9,125.4,43.9,125.4
		C43.9,125.4,43.9,125.4,43.9,125.4C43.9,125.4,43.9,125.4,43.9,125.4z M43.5,125.9c0,0,0.1,0,0.1,0
		C43.6,125.9,43.6,125.9,43.5,125.9C43.5,125.9,43.5,125.9,43.5,125.9z"/>
	<path class="st5" d="M40,128.1c0.4-0.1,0.7-0.4,0.8-0.6c0,0,0,0,0.1,0c0.1-0.1,0.1,0,0.1,0c0,0.1-0.1,0.2-0.2,0.2c0,0,0,0.1,0.1,0
		c0.2-0.2,0.4-0.5,0.4-0.8c0-0.1,0-0.2,0-0.3c0,0,0,0,0-0.1c0-0.2,0-0.3,0-0.5c0-0.1,0.1-0.1,0.2,0c0,0,0,0,0,0c0,0,0,0,0,0
		c0,0,0.1-0.1,0-0.1c-0.2-0.1-0.5-0.3-0.7-0.4c-0.6-1.3-2.1-2.6-3-3.6c0,0,0,0,0,0c0.4,0.9,1,1.6,1.6,2.3c0.4,0.5,0.8,1.2,1.2,1.7
		C41,126.8,40.9,127.6,40,128.1C39.9,128.1,40,128.1,40,128.1z M41.2,126.8C41.2,126.8,41.2,126.8,41.2,126.8
		C41.2,126.8,41.2,126.8,41.2,126.8C41.2,126.8,41.2,126.8,41.2,126.8z M41.2,127c0,0,0-0.1,0-0.1c0,0,0,0,0,0
		C41.2,126.9,41.2,127,41.2,127C41.2,127,41.2,127,41.2,127z M41,126.6C41,126.6,41,126.6,41,126.6C41,126.6,41,126.6,41,126.6
		C41,126.6,41,126.6,41,126.6z"/>
	<path class="st5" d="M36.9,130c0.7-0.5,0.8-1.3,0.4-2c-0.4-0.4-0.7-0.9-1-1.4c-0.7-1.1-1.4-2.1-2.1-3.2c0,0,0,0,0,0
		c0.7,0.7,1.3,1.5,1.9,2.3c0.4,0.6,0.9,1.2,1.3,1.8c0.5,0.4,1.1,0.7,1.7,0.8c0.1,0,0,0.1,0,0.1c0,0-0.1,0-0.1,0c0,0,0,0,0,0
		c-0.2,0-0.4,0-0.5-0.1c0,0,0,0,0,0c0,0,0,0-0.1,0c-0.2,0-0.4,0.1-0.5,0.3c-0.2,0.3,0,0.6-0.2,0.9c0,0-0.1,0-0.1,0
		c0-0.1,0-0.1,0-0.2c0,0,0,0-0.1,0c0,0-0.1,0-0.1,0.1C37.5,129.7,37.3,129.9,36.9,130C36.9,130.1,36.8,130,36.9,130z"/>
	<path class="st5" d="M50.2,123.3c0.1-0.2,0.2-0.3,0.2-0.5c0,0,0-0.1,0-0.1c0-0.1,0-0.3-0.1-0.4c0-0.1-0.1-0.3-0.2-0.4
		c0,0-0.1-0.1-0.1-0.1c-0.1-0.2-0.2-0.4-0.4-0.5c-0.6-0.9-1.2-1.8-1.8-2.7c-0.1-0.1,0.1-0.2,0.1-0.1c0.9,1.2,2,2.3,2.8,3.6
		c0.4,0.4,0.9,0.6,1.5,0.7c0,0,0,0,0,0c-0.1,0-0.2,0.1-0.3,0.1c0,0,0,0,0,0c0,0,0,0,0,0c-0.1,0-0.1,0.1-0.2,0.1c0,0,0,0,0,0.1
		c0.2,0.1,0.4,0.1,0.6,0c0.1,0,0.1,0.1,0,0.1c-0.2,0.1-0.4,0.1-0.5,0.1c0,0,0,0,0,0c0,0,0,0,0,0c-0.1,0-0.2-0.1-0.2-0.1
		c0,0,0,0-0.1,0c-0.3-0.1-0.6-0.1-0.9,0c-0.1,0.3-0.4,0.6-0.7,0.5c0,0,0,0,0,0C50,123.5,50.1,123.4,50.2,123.3z"/>
	<path class="st5" d="M46.3,124.4C46.2,124.4,46.3,124.4,46.3,124.4c0.1,0,0.1,0,0.2-0.1c0,0,0,0,0,0c0.3-0.1,0.5-0.2,0.9-0.3
		c0.3,0,0.6,0.1,1,0.1c0,0,0.1,0,0.1,0.1c0,0,0,0,0.1,0c0.2,0,0.5,0,0.7,0c0,0,0-0.1,0-0.1c-0.2,0-0.4,0-0.5-0.1c0,0,0-0.1,0-0.1
		c0,0,0.1,0,0.1-0.1c0.1,0,0.1-0.1,0.2-0.1c0,0,0,0,0,0c0.2,0,0.3,0,0.5-0.1c0,0,0-0.1,0-0.1c-0.7,0.1-1.2-0.2-1.7-0.6
		c-0.3-0.6-0.7-1-1.1-1.5c-0.3-0.4-0.6-0.7-0.9-1.1c0,0,0,0,0,0c-0.4-0.5-0.9-1.1-1.2-1.6c0,0,0,0,0,0c0.4,1.3,1.5,2.7,2.6,3.8
		c0,0.1,0.1,0.3,0.1,0.4c0,0.1,0,0.1,0,0.2C46.8,123.7,46.6,124,46.3,124.4z M48.5,123.8C48.5,123.8,48.5,123.8,48.5,123.8
		C48.6,123.8,48.6,123.8,48.5,123.8C48.6,123.8,48.6,123.8,48.5,123.8z M48.5,124C48.5,124,48.5,124,48.5,124
		C48.5,124,48.5,124,48.5,124C48.5,124,48.5,124,48.5,124z"/>
	<path class="st5" d="M37.5,137.2c0.1,0,0.1-0.1,0.1-0.2c-0.6-1.5,0.8-2.9,2.3-2.9c2.2,0,3.4,2.9,1.3,4.1c-0.7,0.4-1.3,0.8-1.6,1.4
		c0-0.1-0.1-0.3-0.1-0.4c-0.1-0.5-0.3-0.9-0.7-1.3c-0.1-0.1-0.2-0.1-0.3-0.1c0,0-0.1-0.1-0.1-0.1c0,0,0-0.1,0-0.1
		c-0.2-0.3-0.4-0.6-0.6-0.2L37.5,137.2z"/>
	<path class="st5" d="M37.8,137.5c0.2-0.3,0.3,0.3,0.3,0.5c0,0,0,0,0,0L37.8,137.5z"/>
	<path class="st5" d="M51.2,127.8C51.3,127.8,51.2,127.8,51.2,127.8c-1.9-0.4-3.5,0.4-4.6,1.9c0,0-0.1,0-0.1,0
		C47.1,127.7,49.6,127.3,51.2,127.8z"/>
	<path class="st5" d="M30,104.5C30,104.5,30,104.5,30,104.5C30.1,104.5,30.1,104.5,30,104.5z"/>
	<path class="st5" d="M106.8,122.8c-0.1,0.5-0.3,1-0.4,1.5c-2.2,10.6,1.2,16.9,5.2,17.1c0.1,0,0.2,0,0.4,0
		C108.1,139.9,105.1,133.3,106.8,122.8z"/>
	<path class="st1" d="M112.7,104.3c-2.3,0.8-3.6,1.6-4,1.3c-0.4-0.3-1.1-2,1.7-2.7c2.7-0.7,5.4,0.7,5.4,0.7L112.7,104.3z"/>
	<path class="st11" d="M58.1,94.6c0.7,0.3,2.3,1.4,4,1.1c1.6-0.3,3.7-1.5,4.6-1.9c0.6-0.3,10.4,0.3,10.8,0.6
		c0.5,0.3,4.8,3.7,4.8,3.7l-5.6-10.5c0,0-1.8-2-2-2.3c-0.2-0.3-1.1,0.7-1.5,2.3c-0.4,1.6-1.8,1.9-4.4,2.2c-2.6,0.3-5,1.9-6.6,2.7
		c-1.6,0.7-5.4-0.1-6-0.1c-0.4,0-0.5,1.7,0,2.4C56.9,94.5,57.6,94.4,58.1,94.6z"/>
	<path class="st11" d="M55.7,75.5l-6,0.7c0,0,4.5-2.6,4.7-3.1c0.2-0.5-4-1.9-4-1.9l4.3-1.9l1.9,1L55.7,75.5z"/>
	<path class="st5" d="M75.2,83.7c-1.2-2-2.9-3.2-3.5-3.5c-0.7-0.4-2.6-0.1-4.2,0.9c-1.6,1-4.3,3.6-4.3,3.6s0.4,0.1,2.6-1
		c2.2-1.1,4.7-2,4.9-1.5c0.2,0.5,1.3,3.4,1.3,3.6c0,0.3-0.3,2.4-1.2,2.8c-1,0.3-4.6,0.1-5.6,0.5c-1,0.4-2.6,1.8-3.6,2.3
		c-1,0.4-3,0.6-3.8,0.5c-0.8-0.1-2.5-2.5-3.5-2.6c-1-0.1-1.1,0.7-1.3,0.4s-0.5-2.9-0.2-3.6c0.3-0.8,2.3-3.5,2.3-3.5l1.1,2
		c0,0-0.8-5.7-0.8-6.4c0-0.7,0.8-2.2,1.7-5.2c1-3,1.5-3.3,2.3-3.3c0.2,0,0.5,0,0.7,0c0.1,0,0.2,0,0.4,0.1c0.6,0.1,1.4-0.3,1.4-0.3
		c-1.2-0.7-3.4-1.8-4.1-3.2c-0.7-1.4-0.7-1.9-0.7-1.9s-0.5,0.4-1,0.8l-1.9,0.5c0,0-10.4-6.6-11-6.6c-0.6,0-5.5,2.8-5.5,2.8l1.9,3.1
		l3.3-0.9c0,0,5.2,1.7,8.4,2.7L45.2,66l-3.1,2.6l2.6-0.3c0,0,0.8,2,2.7,2.6c3.7,1.3,6.5-0.7,6.5-0.7l1.2,0.6l-0.4-1.4l-1-1.4
		c0.8,0.1,2.1,0.8,2.7,1.8c0.1,0.8,0.1,2.1-0.2,2.8c-0.3,1-1.9,4.4-2,5.4c-0.1,1,0.7,2.3-0.2,3.7c-0.9,1.4-3,3.8-3.1,4.3
		c-0.1,0.5-0.3,2.9,0.4,4.2c0.8,1.4,2,1.5,2.7,1.7c0.7,0.3,3.1,1.9,5.7,1.6c-0.3,1.2,1.2,1.3,2.2,1c0.9-0.3,0.5-0.8,0.9-2
		c1.1-0.5,1.9-1.1,2.3-1.2c0.7-0.3,5.5-0.3,7-1.2c1.6-1,1.7-2.6,1.8-3c0.4-1.7,6,7.1,6,7.1S77.7,87.7,75.2,83.7z"/>
	<path class="st1" d="M45.5,68.1c0,0,1,2.3,3.6,2.4c2.6,0.1,3.9-1.7,3.9-1.7l-1-0.5c0,0-1.8,1.6-3.2,1.3c-1.9-0.3-2.2-1.7-2.2-1.7
		L45.5,68.1z"/>
	<polygon class="st1" points="49,68.1 48.8,68.5 47.8,68.6 47.4,68 	"/>
	<path class="st13" d="M42.9,59.1c0.1,0,0.2,0.1,0.5,0.2l0.8-6.8c-0.4,0-0.9,0-1.2,0l-2.3,6.4l-0.6,1.6
		C41.3,59.7,42.6,59.1,42.9,59.1z"/>
	<path class="st12" d="M97.6,127.2c0.8-3.8,2-6.8,3.3-9c2.2-6.1,5.3-8.8,5.3-8.8l-0.2-2c0,0-2.2,1.4-4.2,4.9
		c-1.6,2.8-4.4,7.9-4.5,16.1C97.4,128.1,97.5,127.6,97.6,127.2z"/>
	<path class="st1" d="M132.9,35.6c-5.4-0.8-15.1-0.6-17.1-0.6l0,1.8c0.5,0.1,1.1,0.2,1.8,0.6c1.2,0.6,2.7,1.9,3.3,2.4
		c1.6-0.1,3.4-0.3,4.9-0.4l0.2,0c3.7-0.5,8.5-2.4,8.7-3.2C134.6,36.1,134.3,35.8,132.9,35.6z"/>
	<path class="st2" d="M115.7,35l0,1.8c0.5,0.1,1.1,0.2,1.8,0.6c0.4,0.2,0.9,0.5,1.4,0.9c3.6-0.5,8.2-2.3,8.5-3.1
		C122.5,34.9,117.2,35,115.7,35z"/>
	<path class="st12" d="M112.7,37.9c0.4-4.8,0.9-13.2-0.6-19.4C109.5,8.1,97.4,4.7,94.2,4.9c2.3,2.2,3.8,5.3,4.5,9.2
		c1.4,7.6,1.8,20.5,1.9,28.9c0,0.3,0.1,1.2,0.6,1.4c0.6,0.3,1.5,0.1,1.5,0.1l4.9-1.6C108.6,40.9,110.8,38.9,112.7,37.9z"/>
	<path class="st7" d="M107.5,42.9c1.1-2,3.3-4,5.2-5c0.4-4.2,0.8-11.4-0.3-17.9c-0.1-0.5-0.2-1.1-0.3-1.6
		C109.5,8.1,97.4,4.7,94.2,4.9c0.3,0.3,0.6,0.6,0.9,0.9c0,0,0,0.1,0.1,0.1c0.2,0.3,0.5,0.6,0.7,0.9c0,0,0,0,0,0
		c2.8,1.4,6.4,4.8,8.4,12.8c1.8,7.6,1.2,19.1,0.9,24L107.5,42.9z"/>
	<path class="st10" d="M109.3,49.7c0.1-3,2-6.5,4.5-7.7c0.3-0.2,0.7-0.3,1-0.3c2.2,0,4.4,3.1,5,5.5c0.7,2.7,1.5,5.6,1.5,5.6
		s0.1-7.5-0.6-9.1c-0.7-1.7-4.4-5.1-6.1-5.1c-1.7,0-5.6,3.2-6.5,5.9c-0.8,2.7-1,6.2-0.8,7.7c0.1,1.5-0.1,3.1,0.4,3.5
		c0,0,0.1,0.1,0.1,0.1C108.6,55.8,109.1,52.5,109.3,49.7z"/>
	<path class="st6" d="M113,39.2c-1.1,0.7-2.2,1.8-3.3,3c-1.9,2.1-2.1,6.3-2.1,6.3s1.9-4.9,3.8-6.7c1.9-1.9,4.6-2.1,6-1.3
		c1.3,0.8,2.7,2.1,2.9,2.3c0,0,0,0,0,0c-0.3-0.3-1.8-2-3.2-3.1c-0.9-0.6-1.8-1.1-2.4-1.1C114.3,38.6,113.6,38.8,113,39.2z"/>
	<path class="st10" d="M75.8,110.4c-1.8-1.6-3.3-3.1-4.4-4.5c-0.3,0.1-0.7,0.3-1.1,0.4c-0.1,0-0.2,0.1-0.4,0.1
		c0.3,0.3,0.7,0.9,1.3,1.5c0.9,0.2,1.5,0.3,1.5,0.3s-0.4,0.1-1.1,0.2c2.4,2.8,6.4,7.4,9.4,10.1c1.9-0.9,3.4-1.6,3.4-1.6s0,0,0.1-0.1
		C82.1,115.3,78.9,113.1,75.8,110.4z"/>
	<path class="st5" d="M81.8,63.6l1.5-0.6l3.2-1.1l-4.1-0.1l-9.5,4.4c3-2,8.7-6.3,10.6-7.8l-1.4-0.4l11-0.9l0.2-0.4l-13.7-2
		c0,0-2.4,1.1-5,3c-2.5,1.9-8.5,6.9-8.5,6.9l-4-0.6c0,0-0.1,1.7,1.9,2.8c1.7,1,3.8,1.5,4.2,1.6l0.4,0.5l0.2,2.6l0.2-1.2
		c0,0,0.2-0.6,0.6-0.9c0.1-0.1,0.6,0.1,1.2,0.3c0.5,0.3,3.5,1.9,7.5,1c4-0.9,6.8-4.5,6.8-4.5l-0.6-1.2l4.6-0.6L81.8,63.6z"/>
	<polygon class="st1" points="74.2,67.8 75.1,68.4 76.5,67.5 76.1,67.2 	"/>
	<path class="st1" d="M72.3,68.5l-0.8,0.3c0,0,1.7,1.7,4.8,1.5c3.1-0.2,5.4-2.1,6.3-2.8c0.9-0.8,1.2-1.2,1.2-1.2s-0.7-0.4-1.7-0.6
		c-1-0.2-1.4-0.3-1.4-0.3l-1,0.5c0,0,0.3,2.8-2.9,3.6C73.7,70.3,72.3,68.5,72.3,68.5z"/>
	<path class="st2" d="M122.8,93.5c-1.1-3.5-3.4-5.1-5-5.9c0,0.5-0.1,1-0.1,1.5c0.7,0.6,1.5,1.6,2.3,3.5c1.9,4.4,1.4,6.7,1.4,6.7
		s0.7,0.4,1.4,0.9c0.7,0.4,1.1,1.3,1.1,1.3S124.5,98.7,122.8,93.5z"/>
	<path class="st5" d="M113.4,36.5c0,0-2.4,0.2-4.6,2.9c-2.2,2.7-2.5,5.1-2.5,5.1l1.1-0.2c0,0,1.1-2.5,3.3-4.2c2.1-1.6,4.7-2,4.7-2
		l7,5l2.1-0.2c0,0-3.3-4.8-6.4-6.2C115.2,35.3,113.4,36.5,113.4,36.5z"/>
</g>
</svg>
