<?xml version="1.0" encoding="utf-8"?>
<!-- Generator: Adobe Illustrator 20.0.0, SVG Export Plug-In . SVG Version: 6.00 Build 0)  -->
<svg version="1.1" id="Layer_1" xmlns="http://www.w3.org/2000/svg" xmlns:xlink="http://www.w3.org/1999/xlink" x="0px" y="0px"
	 viewBox="0 0 183.5 123.1" style="enable-background:new 0 0 183.5 123.1;" xml:space="preserve">
<style type="text/css">
	.st0{fill:#1A1A23;}
	.st1{fill:#FFC95C;}
	.st2{fill:#FFFFFF;}
</style>
<path class="st0" d="M179.1,103.9V83.4h0V64.8L183,57l-8.6-3c-1.1-0.4-2.4-0.9-4-1.6l-5-2c-1.2-0.5-2.3-1-3.4-1.4
	c-0.4-0.2-0.8-0.3-1.2-0.5c-0.3-0.1-0.7-0.3-1-0.4c-0.9-0.3-1.8-0.6-2.6-0.9c-0.4-0.1-0.9-0.3-1.1-0.3l-0.1-0.1v-4.1l4.5-11.4h0V13
	h-2.1V7h-1v6h-2.2V0H154v13h-1.7v16.4h-6.5v-9.8l-6.3,0l-0.1,3.1h-5.7V1.7H127v21.1h-4.2V8.6h-4.9v22.7h-5.5l0.2-0.2L80.7,18.7h0h0
	L51.3,29.6l0-20.9h-5.7v14.2h-4.2v-7.4h-3v-5.3h-1.3v5.3h-2.6v7.4h-1.2L26.5,16l-7.8,7.8l2.5,2.5l1.4-1.4v4.7h-6.5v-3.2H8v5H0h0
	l0.8,0.8v0h0l12,12v17.5L10,66l2.8,4.1v39.5L2.3,122.1H58l12.6-0.1l-3.3-6.9h64.9l20.5,8l30.9-11.9L179.1,103.9z"/>
<g>
	<path class="st1" d="M61.1,34.5l19.5-7.3l18.7,7.3c-0.3,0.4-0.6,0.9-0.8,1.4c-0.2,0.6-0.4,1-0.4,1.3V44v3.6v0.9
		c0,0.4,0.3,0.8,0.8,1.2l-22,16.4v35.5c0,0.2-0.2,0.5-0.5,0.8c-0.3,0.3-0.7,0.6-1,0.9c0.2,0.3,0.7,0.6,1.5,0.9
		c0.8,0.3,2.7,0.4,3.5,0.4c0.8,0,2.6-0.1,3.4-0.4c0.8-0.3,1.3-0.6,1.6-0.9c-0.3-0.2-0.6-0.5-0.9-0.8c-0.3-0.3-0.5-0.6-0.5-0.7V67
		c0-0.2-0.1-0.6-0.3-1.1c-0.2-0.5-0.4-0.9-0.7-1.2h16.6c-0.2,0.2-0.5,0.6-0.7,1.1c-0.2,0.5-0.3,0.9-0.3,1.3v37.4
		c0,0.3,0.1,0.7,0.2,1.3c0.2,0.6,0.3,1,0.5,1.4H60.7c0.4-0.4,0.7-0.9,1-1.6c0.3-0.7,0.5-1.3,0.5-1.8V64.7l-1.3-2.1L84,45.7V35
		c0-0.2,0.1-0.4,0.4-0.7c0.3-0.3,0.6-0.6,0.9-0.8c-0.1-0.4-0.6-0.7-1.5-1.1c-0.9-0.3-2.8-0.5-3.7-0.5c-0.7,0-2.4,0.2-3.2,0.5
		c-0.8,0.3-1.3,0.7-1.6,1.1l1.6,1.6v11.4l0.4,1.7L61.7,48l0.5-1.5V37c0-0.3-0.1-0.7-0.3-1.3C61.7,35.2,61.4,34.8,61.1,34.5z"/>
	<path class="st2" d="M57.5,69.9c0.2-0.5,0.4-0.9,0.7-1.1h-16l0.5,2.3v36.8c0,0.2,0.2,0.5,0.5,0.8c0.3,0.3,0.6,0.6,0.9,0.9
		c-0.2,0.3-0.8,0.6-1.5,0.8c-0.8,0.2-1.5,0.4-2.3,0.4c-0.9,0-3.7-0.1-4.6-0.4c-0.8-0.2-1.4-0.5-1.6-0.8c0.4-0.2,0.7-0.5,1-0.9
		c0.3-0.3,0.5-0.6,0.5-0.8V65.1h11.9c0,0,0.1,0,0.1,0v-3c0,0-0.1,0-0.1,0H35.5v-4.6v-3.6v-8.2c0-0.2-0.2-0.4-0.5-0.8
		c-0.3-0.3-0.7-0.6-1-0.8c0.2-0.3,0.8-0.6,1.7-0.8c0.9-0.2,3.7-0.4,4.5-0.4c0.7,0,1.5,0.1,2.3,0.4c0.8,0.2,1.3,0.5,1.5,0.8
		c-0.3,0.2-0.6,0.5-0.9,0.8c-0.3,0.3-0.5,0.6-0.5,0.8c-0.1,0.3-0.1,0.8-0.2,1.3c-0.1,0.6-0.1,1.2-0.1,1.9c0,0.7-0.1,1.3-0.1,2
		c0,0.7,0,1.3,0,1.8c0,0.9,0.1,1.9,0.2,3c0.2,1.1,0.3,1.8,0.5,2.3h14.3c-0.1-0.6-0.2-1.5-0.3-2.8c-0.1-1.2-0.1-2.3-0.1-3.3
		c0-0.7,0-1.7,0.1-2.8c0.1-1.1,0.2-2.3,0.3-3.4c0.1-1.2,0.3-2.3,0.4-3.5c0.2-1.1,0.3-2.1,0.4-2.9H19.3c0.4,0.4,0.7,0.8,1,1.4
		c0.3,0.6,0.5,1,0.5,1.3v22l-1.2,1.9l1.2,1.8v43.2c0,0.5-0.2,1.1-0.5,1.8c-0.3,0.7-0.6,1.2-0.9,1.6H58c-0.2-0.4-0.4-0.8-0.5-1.4
		c-0.2-0.6-0.2-1-0.2-1.3V71.2C57.2,70.8,57.3,70.4,57.5,69.9z"/>
</g>
<path class="st1" d="M150.4,74.4l21.7,6.7c-0.2,0.2-0.5,0.6-0.7,1c-0.2,0.4-0.3,0.8-0.3,1.1v21.9c0,0.2,0.1,0.6,0.2,1
	c0.1,0.4,0.3,0.8,0.5,1.1l-19,7.3l-18.9-7.3c0.2-0.2,0.4-0.6,0.5-1c0.2-0.4,0.2-0.7,0.2-1v-16l-0.8-2.2l16.1,5.6
	c-0.1,0.3-0.2,0.7-0.4,1.1c-0.1,0.4-0.2,0.7-0.2,1v12.3c0,0.2-0.2,0.4-0.5,0.7c-0.3,0.3-0.7,0.6-1.1,0.8c0.2,0.3,0.8,0.6,1.6,0.9
	c0.8,0.3,2.6,0.4,3.4,0.4c0.8,0,2.6-0.1,3.5-0.4c0.8-0.3,1.4-0.6,1.6-0.9c-0.3-0.2-0.6-0.4-0.9-0.8c-0.3-0.3-0.5-0.6-0.5-0.8V91.4
	c0-0.4-0.1-0.8-0.4-1.2c-0.3-0.4-0.6-0.7-0.9-0.8l-21.2-6.9c0.1-0.3,0.3-0.7,0.4-1c0.2-0.4,0.2-0.7,0.2-0.8v-4.8l-1.3-1.8l1.3-1.8
	v-8.7l-0.7-1.9l9.1-3.4c0.6-0.2,1.3-0.5,2.2-0.9c0.8-0.3,1.7-0.7,2.5-1.1c0.8-0.4,1.6-0.7,2.4-1.1c0.7-0.3,2.3-0.6,2.8-0.9
	c1,0.4,3.2,1,4.8,1.6c1.5,0.7,3.1,1.3,4.8,2c1.7,0.7,3.3,1.4,5,2c1.7,0.7,3.1,1.2,4.4,1.7c-0.1,0.2-0.3,0.6-0.4,1
	c-0.2,0.4-0.2,0.7-0.2,1v11l0.7,2.1l-16.1-5.4l0.7-2.2v-7c0-0.2,0.1-0.4,0.4-0.7c0.3-0.3,0.6-0.6,1-0.8c-0.2-0.3-0.7-0.6-1.5-0.9
	c-0.8-0.3-2.6-0.4-3.4-0.4c-0.8,0-2.6,0.1-3.5,0.4c-0.8,0.3-1.4,0.6-1.6,0.9c0.4,0.2,0.7,0.5,1,0.8c0.3,0.3,0.5,0.6,0.5,0.8v4.8v3.6
	v2.1c0,0.3,0.1,0.7,0.3,1C149.8,74.1,150.1,74.3,150.4,74.4z"/>
<path class="st2" d="M148,48.2v-7.1l0.7-1.9h-47.1c0,3.1-0.1,7.3-0.4,9.9h7.7c-0.1-0.4-0.2-0.8-0.4-1.3c-0.1-0.5-0.2-0.8-0.2-1v-1.2
	c0-0.2-0.2-0.4-0.5-0.8c-0.3-0.3-0.6-0.6-0.9-0.8c0.2-0.3,0.7-0.6,1.4-0.8c0.7-0.2,3-0.4,3.7-0.4c0.7-0.1,1.5,0,2.2,0.3
	c0.7,0.3,1.2,0.6,1.3,0.9c-0.4,0.2-0.7,0.5-1,0.9c-0.3,0.3-0.4,0.6-0.4,0.8V64l-1.3,1.8l1.3,1.8v36.3c0,0.5-0.2,1.1-0.5,1.8
	c-0.3,0.7-0.7,1.2-1,1.6h17.8c-0.4-0.5-0.8-1.1-1.2-1.7c-0.3-0.7-0.5-1.1-0.5-1.4V67.5l1.3-1.8l-1.3-1.8V45.7l-1.4-1.6
	c0.2-0.3,0.7-0.6,1.4-0.8c0.7-0.2,1.5-0.4,2.2-0.4c0.7,0,3.2,0.1,3.9,0.4c0.7,0.2,1.1,0.5,1.3,0.8l-1.4,1.6v8.1l-0.7,2.1l14.5-5.6
	c-0.2-0.3-0.4-0.7-0.5-1.1C148.1,48.7,148,48.4,148,48.2z"/>
</svg>
