<?xml version="1.0" encoding="utf-8"?>
<!-- Generator: Adobe Illustrator 20.0.0, SVG Export Plug-In . SVG Version: 6.00 Build 0)  -->
<svg version="1.1" id="Layer_1" xmlns="http://www.w3.org/2000/svg" xmlns:xlink="http://www.w3.org/1999/xlink" x="0px" y="0px"
	 viewBox="0 0 1000 300" style="enable-background:new 0 0 1000 300;" xml:space="preserve">
<style type="text/css">
	.st0{fill:#A4AAAA;}
	.st1{fill:#313239;}
	.st2{fill:#292A31;}
</style>
<rect x="964.8" y="240.9" class="st0" width="43.4" height="33.4"/>
<polygon class="st1" points="1013.2,231.4 921.7,323 -56,323 -56,-53 1016,-53 "/>
<polygon class="st2" points="-549.1,169.1 -550.2,168 22.6,-377.1 23.8,-376 "/>
<polygon class="st2" points="45.8,-370.5 46.9,-369.4 -525.9,175.7 -527.1,174.6 "/>
<polygon class="st2" points="68.9,-363.9 70.1,-362.8 -502.8,182.3 -503.9,181.3 "/>
<polygon class="st2" points="92.1,-357.3 93.2,-356.2 -479.6,189 -480.8,187.9 "/>
<polygon class="st2" points="115.2,-350.7 116.4,-349.6 -456.5,195.6 -457.6,194.5 "/>
<polygon class="st2" points="138.4,-344.1 139.5,-343 -433.3,202.2 -434.5,201.1 "/>
<polygon class="st2" points="161.5,-337.5 162.7,-336.4 -410.2,208.8 -411.3,207.7 "/>
<polygon class="st2" points="184.7,-330.9 185.8,-329.8 -387,215.4 -388.2,214.3 "/>
<polygon class="st2" points="207.8,-324.3 209,-323.2 -363.9,222 -365,220.9 "/>
<polygon class="st2" points="231,-317.7 232.1,-316.6 -340.8,228.6 -341.9,227.5 "/>
<polygon class="st2" points="254.1,-311.1 255.3,-310 -317.6,235.2 -318.8,234.1 "/>
<polygon class="st2" points="277.3,-304.4 278.4,-303.4 -294.5,241.8 -295.6,240.7 "/>
<polygon class="st2" points="300.4,-297.8 301.6,-296.7 -271.3,248.4 -272.5,247.3 "/>
<polygon class="st2" points="323.6,-291.2 324.7,-290.1 -248.2,255 -249.3,253.9 "/>
<polygon class="st2" points="346.7,-284.6 347.9,-283.5 -225,261.6 -226.2,260.6 "/>
<polygon class="st2" points="369.9,-278 371,-276.9 -201.9,268.3 -203,267.2 "/>
<polygon class="st2" points="393,-271.4 394.2,-270.3 -178.7,274.9 -179.9,273.8 "/>
<polygon class="st2" points="416.2,-264.8 417.3,-263.7 -155.6,281.5 -156.7,280.4 "/>
<polygon class="st2" points="439.3,-258.2 440.5,-257.1 -132.4,288.1 -133.6,287 "/>
<polygon class="st2" points="462.5,-251.6 463.6,-250.5 -109.3,294.7 -110.4,293.6 "/>
<polygon class="st2" points="485.6,-245 486.7,-243.9 -86.1,301.3 -87.3,300.2 "/>
<polygon class="st2" points="508.8,-238.4 509.9,-237.3 -63,307.9 -64.1,306.8 "/>
<polygon class="st2" points="531.9,-231.8 533,-230.7 -39.8,314.5 -41,313.4 "/>
<polygon class="st2" points="555,-225.1 556.2,-224.1 -16.7,321.1 -17.8,320 "/>
<polygon class="st2" points="578.2,-218.5 579.3,-217.4 6.5,327.7 5.3,326.6 "/>
<polygon class="st2" points="601.3,-211.9 602.5,-210.8 29.6,334.3 28.5,333.3 "/>
<polygon class="st2" points="624.5,-205.3 625.6,-204.2 52.8,341 51.6,339.9 "/>
<polygon class="st2" points="647.6,-198.7 648.8,-197.6 75.9,347.6 74.8,346.5 "/>
<polygon class="st2" points="670.8,-192.1 671.9,-191 99.1,354.2 97.9,353.1 "/>
<polygon class="st2" points="693.9,-185.5 695.1,-184.4 122.2,360.8 121.1,359.7 "/>
<polygon class="st2" points="717.1,-178.9 718.2,-177.8 145.3,367.4 144.2,366.3 "/>
<polygon class="st2" points="740.2,-172.3 741.4,-171.2 168.5,374 167.4,372.9 "/>
<polygon class="st2" points="763.4,-165.7 764.5,-164.6 191.6,380.6 190.5,379.5 "/>
<polygon class="st2" points="786.5,-159.1 787.7,-158 214.8,387.2 213.6,386.1 "/>
<polygon class="st2" points="809.7,-152.4 810.8,-151.4 237.9,393.8 236.8,392.7 "/>
<polygon class="st2" points="832.8,-145.8 834,-144.7 261.1,400.4 259.9,399.3 "/>
<polygon class="st2" points="856,-139.2 857.1,-138.1 284.2,407 283.1,405.9 "/>
<polygon class="st2" points="879.1,-132.6 880.3,-131.5 307.4,413.6 306.2,412.6 "/>
<polygon class="st2" points="902.3,-126 903.4,-124.9 330.5,420.3 329.4,419.2 "/>
<polygon class="st2" points="925.4,-119.4 926.6,-118.3 353.7,426.9 352.5,425.8 "/>
<polygon class="st2" points="948.6,-112.8 949.7,-111.7 376.8,433.5 375.7,432.4 "/>
<polygon class="st2" points="971.7,-106.2 972.9,-105.1 400,440.1 398.8,439 "/>
<polygon class="st2" points="994.9,-99.6 996,-98.5 423.1,446.7 422,445.6 "/>
<polygon class="st2" points="1018,-93 1019.1,-91.9 446.3,453.3 445.1,452.2 "/>
<polygon class="st2" points="1041.1,-86.4 1042.3,-85.3 469.4,459.9 468.3,458.8 "/>
<polygon class="st2" points="1064.3,-79.8 1065.4,-78.7 492.6,466.5 491.4,465.4 "/>
<polygon class="st2" points="1087.4,-73.1 1088.6,-72.1 515.7,473.1 514.6,472 "/>
<polygon class="st2" points="1110.6,-66.5 1111.7,-65.4 538.9,479.7 537.7,478.6 "/>
<polygon class="st2" points="1133.7,-59.9 1134.9,-58.8 562,486.3 560.9,485.2 "/>
<polygon class="st2" points="1156.9,-53.3 1158,-52.2 585.2,492.9 584,491.9 "/>
<polygon class="st2" points="1180,-46.7 1181.2,-45.6 608.3,499.6 607.2,498.5 "/>
<polygon class="st2" points="1203.2,-40.1 1204.3,-39 631.5,506.2 630.3,505.1 "/>
<polygon class="st2" points="1226.3,-33.5 1227.5,-32.4 654.6,512.8 653.5,511.7 "/>
<polygon class="st2" points="1249.5,-26.9 1250.6,-25.8 677.7,519.4 676.6,518.3 "/>
</svg>
