<?xml version="1.0" encoding="utf-8"?>
<!-- Generator: Adobe Illustrator 20.0.0, SVG Export Plug-In . SVG Version: 6.00 Build 0)  -->
<svg version="1.1" id="Layer_1" xmlns="http://www.w3.org/2000/svg" xmlns:xlink="http://www.w3.org/1999/xlink" x="0px" y="0px"
	 viewBox="0 0 18 18" style="enable-background:new 0 0 18 18;" xml:space="preserve">
<style type="text/css">
	.st0{display:none;}
	.st1{display:inline;fill:#D3D3D3;}
	.st2{fill:#FFC85B;}
</style>
<g class="st0">
	<path class="st1" d="M9,0C4,0,0,4,0,9c0,5,4,9,9,9c5,0,9-4,9-9C18,4,14,0,9,0z M9,16.2C5,16.2,1.8,13,1.8,9S5,1.8,9,1.8
		S16.2,5,16.2,9S13,16.2,9,16.2z"/>
</g>
<path class="st2" d="M9,18c-5,0-9-4-9-9s4-9,9-9s9,4,9,9S14,18,9,18z M9,5C6.8,5,5,6.8,5,9c0,2.2,1.8,4,4,4c2.2,0,4-1.8,4-4
	C13,6.8,11.2,5,9,5z"/>
</svg>
