<?xml version="1.0" encoding="utf-8"?>
<!-- Generator: Adobe Illustrator 20.0.0, SVG Export Plug-In . SVG Version: 6.00 Build 0)  -->
<svg version="1.1" id="Layer_1" xmlns="http://www.w3.org/2000/svg" xmlns:xlink="http://www.w3.org/1999/xlink" x="0px" y="0px"
	 viewBox="0 0 32 32" style="enable-background:new 0 0 32 32;" xml:space="preserve">
<style type="text/css">
	.st0{fill:#747478;}
</style>
<path class="st0" d="M0.8,31.2c1.1,1.1,2.9,1,4-0.2l6.4-7.6c0.7-0.8,1-1.6,1-2.3C14.3,22.9,17,24,20,24c6.6,0,12-5.4,12-12
	S26.6,0,20,0C13.4,0,8,5.4,8,12c0,3,1.1,5.7,2.9,7.8c-0.7,0-1.5,0.3-2.3,1L1,27.2C-0.2,28.3-0.3,30.1,0.8,31.2z M12,12
	c0-4.4,3.6-8,8-8s8,3.6,8,8s-3.6,8-8,8S12,16.4,12,12z"/>
</svg>
